{
.appVersion = "1230";
DisplayStrings = (
"/alefHamzaabove-ar/heh-ar/lam-ar/alef-ar/fathatan-ar  /waw-ar/seen-ar/heh-ar/lam-ar/alef-ar/fathatan-ar  /beh-ar/kaf-ar/meem-ar  /alefHamzaabove-ar/ain-ar/zain-ar/alef-ar/yehHamzaabove-ar/yeh-ar \012Welcome, dears"
);
copyright = "Copyright 2019 The Vibes Project Authors (https://github.com/bluemix/vibes-typeface)";
customParameters = (
{
name = note;
value = "تم عَمَل هذا الـ typeface بأخذ حرف العين من خط Cairo ، المتوفر على GitHub ، وإستلهام بقية الحروف منه";
},
{
name = "side-note";
value = "this is my first typeface I designed using the online Arabic typeface course presented by Nadine Chahine.";
},
{
name = fsType;
value = (
);
},
{
name = licenseURL;
value = "http://scripts.sil.org/OFL";
},
{
name = license;
value = "This Font Software is licensed under the SIL Open Font License, Version 1.1. This license is available with a FAQ at: http://scripts.sil.org/OFL";
},
{
name = "Use Typo Metrics";
value = 1;
},
{
name = "Disable Last Change";
value = 1;
},
{
name = "Use Line Breaks";
value = 1;
},
{
name = Axes;
value = (
{
Name = Weight;
Tag = wght;
}
);
},
{
name = openTypeOS2StrikeoutPosition;
value = 250;
},
{
name = openTypeOS2StrikeoutSize;
value = 50;
},
{
name = openTypeOS2SubscriptXOffset;
value = 0;
},
{
name = openTypeOS2SubscriptXSize;
value = 700;
},
{
name = openTypeOS2SubscriptYOffset;
value = 140;
},
{
name = openTypeOS2SubscriptYSize;
value = 650;
},
{
name = openTypeOS2SuperscriptXOffset;
value = 0;
},
{
name = openTypeOS2SuperscriptXSize;
value = 700;
},
{
name = openTypeOS2SuperscriptYOffset;
value = 477;
},
{
name = openTypeOS2SuperscriptYSize;
value = 650;
},
{
name = flags;
value = header;
}
);
date = "2019-04-23 10:26:53 +0000";
designer = "AbdElmomen Kadhim";
designerURL = "http://bluemix.me";
familyName = Vibes;
featurePrefixes = (
{
automatic = 1;
code = "languagesystem DFLT dflt;
languagesystem arab dflt;
languagesystem arab URD;
";
name = Languagesystems;
}
);
features = (
{
automatic = 1;

glyphs = (
{
color = 6;
glyphname = A;
layers = (
{
layerId = "BA82AF6A-5289-49F9-B535-AE40A2A15B95";
paths = (
{
closed = 1;
nodes = (
"356 97 OFFCURVE",
"309 354 OFFCURVE",
"243 687 CURVE",
"205 685 LINE",
"183 474 OFFCURVE",
"114 219 OFFCURVE",
"16 22 CURVE SMOOTH",
"15 20 OFFCURVE",
"15 18 OFFCURVE",
"18 16 CURVE SMOOTH",
"43 2 LINE SMOOTH",
"46 0 OFFCURVE",
"49 2 OFFCURVE",
"50 5 CURVE SMOOTH",
"150 205 OFFCURVE",
"221 466 OFFCURVE",
"243 681 CURVE",
"205 679 LINE",
"271 347 OFFCURVE",
"318 91 OFFCURVE",
"325 4 CURVE SMOOTH",
"325 1 OFFCURVE",
"327 -1 OFFCURVE",
"330 -1 CURVE SMOOTH",
"358 1 LINE SMOOTH",
"361 1 OFFCURVE",
"363 3 OFFCURVE",
"363 6 CURVE SMOOTH"
);
},
{
closed = 1;
nodes = (
"253 126 OFFCURVE",
"145 130 OFFCURVE",
"48 145 CURVE",
"42 107 LINE",
"142 92 OFFCURVE",
"254 88 OFFCURVE",
"323 98 CURVE",
"317 136 LINE"
);
}
);
width = 378;
}
);
rightMetricsKey = "=|";
unicode = 0041;
},
{
glyphname = AE;
layers = (
{
components = (
{
alignment = -1;
name = E;
transform = "{1, 0, 0, 1, 295, 0}";
}
);
layerId = "BA82AF6A-5289-49F9-B535-AE40A2A15B95";
paths = (
{
closed = 1;
nodes = (
"283 126 OFFCURVE",
"180 130 OFFCURVE",
"83 145 CURVE",
"72 107 LINE",
"172 92 OFFCURVE",
"284 88 OFFCURVE",
"353 98 CURVE",
"347 136 LINE"
);
},
{
closed = 1;
nodes = (
"265 476 OFFCURVE",
"120 196 OFFCURVE",
"16 31 CURVE SMOOTH",
"15 29 OFFCURVE",
"14 27 OFFCURVE",
"17 24 CURVE SMOOTH",
"39 7 LINE SMOOTH",
"42 4 OFFCURVE",
"45 6 OFFCURVE",
"46 8 CURVE SMOOTH",
"153 171 OFFCURVE",
"292 443 OFFCURVE",
"367 674 CURVE",
"330 684 LINE"
);
}
);
width = 806;
}
);
unicode = 00C6;
},
{
color = 6;
glyphname = B;
layers = (
{
layerId = "BA82AF6A-5289-49F9-B535-AE40A2A15B95";
paths = (
{
closed = 1;
nodes = (
"57 473 OFFCURVE",
"66 209 OFFCURVE",
"43 7 CURVE SMOOTH",
"42 3 OFFCURVE",
"45 1 OFFCURVE",
"48 1 CURVE SMOOTH",
"80 0 LINE",
"105 204 OFFCURVE",
"96 475 OFFCURVE",
"57 678 CURVE",
"25 677 LINE SMOOTH",
"22 677 OFFCURVE",
"20 674 OFFCURVE",
"20 671 CURVE SMOOTH"
);
},
{
closed = 1;
nodes = (
"254 376 OFFCURVE",
"315 709 OFFCURVE",
"29 678 CURVE SMOOTH",
"23 678 OFFCURVE",
"20 675 OFFCURVE",
"20 672 CURVE SMOOTH",
"26 639 LINE",
"259 668 OFFCURVE",
"214 408 OFFCURVE",
"84 390 CURVE",
"90 352 LINE"
);
},
{
closed = 1;
nodes = (
"214 -11 OFFCURVE",
"350 55 OFFCURVE",
"390 166 CURVE SMOOTH",
"443 315 OFFCURVE",
"322 404 OFFCURVE",
"88 390 CURVE",
"90 352 LINE",
"290 364 OFFCURVE",
"395 294 OFFCURVE",
"354 178 CURVE SMOOTH",
"320 83 OFFCURVE",
"198 27 OFFCURVE",
"47 39 CURVE",
"43 6 LINE SMOOTH",
"43 2 OFFCURVE",
"44 1 OFFCURVE",
"48 1 CURVE SMOOTH"
);
}
);
width = 422;
}
);
leftMetricsKey = "=|";
unicode = 0042;
},
{
color = 6;
glyphname = C;
layers = (
{
layerId = "BA82AF6A-5289-49F9-B535-AE40A2A15B95";
paths = (
{
closed = 1;
nodes = (
"119 679 OFFCURVE",
"-13 523 OFFCURVE",
"13 298 CURVE SMOOTH",
"34 118 OFFCURVE",
"180 -1 OFFCURVE",
"378 0 CURVE SMOOTH",
"381 0 OFFCURVE",
"383 2 OFFCURVE",
"383 5 CURVE SMOOTH",
"383 33 LINE SMOOTH",
"383 36 OFFCURVE",
"381 38 OFFCURVE",
"378 38 CURVE SMOOTH",
"198 37 OFFCURVE",
"70 142 OFFCURVE",
"51 302 CURVE SMOOTH",
"27 505 OFFCURVE",
"142 641 OFFCURVE",
"340 645 CURVE SMOOTH",
"343 645 OFFCURVE",
"345 647 OFFCURVE",
"345 650 CURVE SMOOTH",
"345 678 LINE SMOOTH",
"345 681 OFFCURVE",
"343 683 OFFCURVE",
"340 683 CURVE SMOOTH"
);
}
);
width = 393;
}
);
rightMetricsKey = "=|";
unicode = 0043;
},
{
color = 6;
glyphname = D;
layers = (
{
layerId = "BA82AF6A-5289-49F9-B535-AE40A2A15B95";
paths = (
{
closed = 1;
nodes = (
"74 153 OFFCURVE",
"62 491 OFFCURVE",
"48 682 CURVE",
"16 684 LINE",
"13 684 OFFCURVE",
"10 681 OFFCURVE",
"10 678 CURVE",
"25 482 OFFCURVE",
"36 171 OFFCURVE",
"23 6 CURVE SMOOTH",
"23 3 OFFCURVE",
"26 1 OFFCURVE",
"29 1 CURVE SMOOTH",
"61 4 LINE"
);
},
{
closed = 1;
nodes = (
"500 23 OFFCURVE",
"486 679 OFFCURVE",
"16 684 CURVE SMOOTH",
"12 684 OFFCURVE",
"10 682 OFFCURVE",
"10 678 CURVE",
"13 642 LINE",
"438 642 OFFCURVE",
"456 53 OFFCURVE",
"26 38 CURVE",
"23 6 LINE SMOOTH",
"23 2 OFFCURVE",
"26 0 OFFCURVE",
"29 0 CURVE SMOOTH"
);
}
);
width = 385;
}
);
rightMetricsKey = "=|";
unicode = 0044;
},
{
color = 6;
glyphname = E;
layers = (
{
layerId = "BA82AF6A-5289-49F9-B535-AE40A2A15B95";
paths = (
{
closed = 1;
nodes = (
"274 33 OFFCURVE",
"206 33 OFFCURVE",
"70 39 CURVE",
"81 254 OFFCURVE",
"82 430 OFFCURVE",
"73 645 CURVE",
"153 648 OFFCURVE",
"233 647 OFFCURVE",
"313 643 CURVE SMOOTH",
"315 643 OFFCURVE",
"318 645 OFFCURVE",
"318 647 CURVE SMOOTH",
"325 674 LINE SMOOTH",
"326 677 OFFCURVE",
"324 681 OFFCURVE",
"320 681 CURVE SMOOTH",
"225 685 OFFCURVE",
"130 686 OFFCURVE",
"35 684 CURVE",
"44 443 OFFCURVE",
"43 242 OFFCURVE",
"32 1 CURVE",
"181 -5 OFFCURVE",
"261 -5 OFFCURVE",
"408 1 CURVE SMOOTH",
"411 1 OFFCURVE",
"414 3 OFFCURVE",
"413 7 CURVE SMOOTH",
"408 35 LINE SMOOTH",
"408 38 OFFCURVE",
"405 39 OFFCURVE",
"403 39 CURVE SMOOTH"
);
},
{
closed = 1;
nodes = (
"77 248 OFFCURVE",
"139 246 OFFCURVE",
"201 247 CURVE SMOOTH",
"204 247 OFFCURVE",
"206 249 OFFCURVE",
"206 251 CURVE SMOOTH",
"212 277 LINE SMOOTH",
"213 280 OFFCURVE",
"210 284 OFFCURVE",
"206 284 CURVE SMOOTH",
"142 283 OFFCURVE",
"80 286 OFFCURVE",
"16 291 CURVE",
"15 253 LINE"
);
}
);
width = 428;
}
);
rightMetricsKey = "=|";
unicode = 0045;
},
{
color = 6;
glyphname = F;
layers = (
{
layerId = "BA82AF6A-5289-49F9-B535-AE40A2A15B95";
paths = (
{
closed = 1;
nodes = (
"83 248 OFFCURVE",
"147 246 OFFCURVE",
"210 247 CURVE",
"218 284 LINE",
"152 283 OFFCURVE",
"87 286 OFFCURVE",
"21 291 CURVE",
"20 253 LINE"
);
},
{
closed = 1;
nodes = (
"86 240 OFFCURVE",
"87 455 OFFCURVE",
"78 670 CURVE",
"159 673 OFFCURVE",
"241 672 OFFCURVE",
"322 668 CURVE",
"332 706 LINE",
"235 710 OFFCURVE",
"137 711 OFFCURVE",
"40 709 CURVE",
"49 468 OFFCURVE",
"48 241 OFFCURVE",
"37 0 CURVE",
"75 0 LINE"
);
}
);
width = 352;
}
);
rightMetricsKey = "=|";
unicode = 0046;
},
{
color = 6;
glyphname = G;
layers = (
{
layerId = "BA82AF6A-5289-49F9-B535-AE40A2A15B95";
paths = (
{
closed = 1;
nodes = (
"-63 678 OFFCURVE",
"-110 -1 OFFCURVE",
"312 -1 CURVE SMOOTH",
"443 -1 OFFCURVE",
"518 93 OFFCURVE",
"500 235 CURVE SMOOTH",
"500 238 OFFCURVE",
"497 240 OFFCURVE",
"495 240 CURVE SMOOTH",
"467 242 LINE SMOOTH",
"464 242 OFFCURVE",
"462 240 OFFCURVE",
"462 237 CURVE SMOOTH",
"480 117 OFFCURVE",
"420 37 OFFCURVE",
"312 37 CURVE SMOOTH",
"-57 37 OFFCURVE",
"-15 640 OFFCURVE",
"379 645 CURVE SMOOTH",
"382 645 OFFCURVE",
"384 647 OFFCURVE",
"384 650 CURVE SMOOTH",
"384 678 LINE SMOOTH",
"384 681 OFFCURVE",
"382 683 OFFCURVE",
"379 683 CURVE SMOOTH"
);
},
{
closed = 1;
nodes = (
"488 264 OFFCURVE",
"436 259 OFFCURVE",
"385 259 CURVE SMOOTH",
"382 259 OFFCURVE",
"380 257 OFFCURVE",
"380 254 CURVE SMOOTH",
"381 226 LINE SMOOTH",
"381 223 OFFCURVE",
"383 221 OFFCURVE",
"386 221 CURVE SMOOTH",
"437 221 OFFCURVE",
"489 226 OFFCURVE",
"540 226 CURVE SMOOTH",
"543 226 OFFCURVE",
"545 228 OFFCURVE",
"545 231 CURVE SMOOTH",
"544 259 LINE SMOOTH",
"544 262 OFFCURVE",
"542 264 OFFCURVE",
"539 264 CURVE SMOOTH"
);
}
);
width = 565;
}
);
rightMetricsKey = "=|";
unicode = 0047;
},
{
color = 6;
glyphname = H;
layers = (
{
layerId = "BA82AF6A-5289-49F9-B535-AE40A2A15B95";
paths = (
{
closed = 1;
nodes = (
"356 103 OFFCURVE",
"358 196 OFFCURVE",
"359 290 CURVE SMOOTH",
"360 427 OFFCURVE",
"359 538 OFFCURVE",
"356 679 CURVE SMOOTH",
"356 682 OFFCURVE",
"353 684 OFFCURVE",
"351 684 CURVE SMOOTH",
"323 684 LINE SMOOTH",
"320 684 OFFCURVE",
"318 682 OFFCURVE",
"318 679 CURVE SMOOTH",
"321 536 OFFCURVE",
"322 426 OFFCURVE",
"321 290 CURVE SMOOTH",
"320 198 OFFCURVE",
"318 103 OFFCURVE",
"315 6 CURVE SMOOTH",
"315 3 OFFCURVE",
"317 1 OFFCURVE",
"320 1 CURVE SMOOTH",
"348 1 LINE SMOOTH",
"350 1 OFFCURVE",
"353 3 OFFCURVE",
"353 6 CURVE SMOOTH"
);
},
{
closed = 1;
nodes = (
"97 98 OFFCURVE",
"100 191 OFFCURVE",
"101 282 CURVE SMOOTH",
"103 421 OFFCURVE",
"101 536 OFFCURVE",
"96 680 CURVE SMOOTH",
"96 683 OFFCURVE",
"94 685 OFFCURVE",
"91 685 CURVE SMOOTH",
"63 683 LINE SMOOTH",
"61 683 OFFCURVE",
"58 681 OFFCURVE",
"58 678 CURVE SMOOTH",
"63 536 OFFCURVE",
"65 421 OFFCURVE",
"63 282 CURVE SMOOTH",
"62 191 OFFCURVE",
"59 100 OFFCURVE",
"55 6 CURVE SMOOTH",
"55 3 OFFCURVE",
"58 1 OFFCURVE",
"60 1 CURVE SMOOTH",
"88 -1 LINE SMOOTH",
"91 -1 OFFCURVE",
"93 1 OFFCURVE",
"93 4 CURVE SMOOTH"
);
},
{
closed = 1;
nodes = (
"252 272 OFFCURVE",
"110 265 OFFCURVE",
"35 265 CURVE SMOOTH",
"32 265 OFFCURVE",
"30 263 OFFCURVE",
"30 260 CURVE SMOOTH",
"32 232 LINE SMOOTH",
"32 229 OFFCURVE",
"34 227 OFFCURVE",
"37 227 CURVE SMOOTH",
"112 227 OFFCURVE",
"253 234 OFFCURVE",
"328 234 CURVE SMOOTH",
"331 234 OFFCURVE",
"333 236 OFFCURVE",
"333 240 CURVE SMOOTH",
"331 267 LINE SMOOTH",
"331 269 OFFCURVE",
"329 272 OFFCURVE",
"326 272 CURVE SMOOTH"
);
}
);
width = 389;
}
);
leftMetricsKey = "=|";
unicode = 0048;
},
{
color = 6;
glyphname = I;
layers = (
{
layerId = "BA82AF6A-5289-49F9-B535-AE40A2A15B95";
paths = (
{
closed = 1;
nodes = (
"104 103 OFFCURVE",
"109 196 OFFCURVE",
"110 290 CURVE SMOOTH",
"111 428 OFFCURVE",
"107 538 OFFCURVE",
"107 679 CURVE SMOOTH",
"107 682 OFFCURVE",
"104 684 OFFCURVE",
"102 684 CURVE SMOOTH",
"74 684 LINE SMOOTH",
"71 684 OFFCURVE",
"69 682 OFFCURVE",
"69 679 CURVE SMOOTH",
"69 536 OFFCURVE",
"73 426 OFFCURVE",
"72 290 CURVE SMOOTH",
"71 198 OFFCURVE",
"66 103 OFFCURVE",
"66 6 CURVE SMOOTH",
"66 3 OFFCURVE",
"68 1 OFFCURVE",
"71 1 CURVE SMOOTH",
"99 1 LINE SMOOTH",
"101 1 OFFCURVE",
"104 3 OFFCURVE",
"104 6 CURVE SMOOTH"
);
},
{
closed = 1;
nodes = (
"20 5 LINE SMOOTH",
"20 2 OFFCURVE",
"22 0 OFFCURVE",
"25 0 CURVE SMOOTH",
"75 2 OFFCURVE",
"99 0 OFFCURVE",
"150 0 CURVE SMOOTH",
"153 0 OFFCURVE",
"155 2 OFFCURVE",
"155 5 CURVE SMOOTH",
"154 33 LINE SMOOTH",
"154 35 OFFCURVE",
"152 38 OFFCURVE",
"149 38 CURVE SMOOTH",
"95 38 OFFCURVE",
"74 40 OFFCURVE",
"25 38 CURVE SMOOTH",
"22 38 OFFCURVE",
"20 35 OFFCURVE",
"20 33 CURVE SMOOTH"
);
},
{
closed = 1;
nodes = (
"40 651 LINE SMOOTH",
"40 648 OFFCURVE",
"42 646 OFFCURVE",
"46 646 CURVE SMOOTH",
"92 648 OFFCURVE",
"82 646 OFFCURVE",
"129 646 CURVE SMOOTH",
"133 646 OFFCURVE",
"135 648 OFFCURVE",
"135 651 CURVE SMOOTH",
"134 679 LINE SMOOTH",
"134 681 OFFCURVE",
"132 684 OFFCURVE",
"129 684 CURVE SMOOTH",
"77 684 OFFCURVE",
"92 686 OFFCURVE",
"45 684 CURVE SMOOTH",
"42 684 OFFCURVE",
"40 681 OFFCURVE",
"40 679 CURVE SMOOTH"
);
}
);
width = 175;
}
);
leftMetricsKey = "=|";
unicode = 0049;
},
{
color = 6;
glyphname = J;
layers = (
{
layerId = "BA82AF6A-5289-49F9-B535-AE40A2A15B95";
paths = (
{
closed = 1;
nodes = (
"158 4 OFFCURVE",
"247 161 OFFCURVE",
"247 396 CURVE SMOOTH",
"247 492 OFFCURVE",
"241 603 OFFCURVE",
"232 677 CURVE SMOOTH",
"231 680 OFFCURVE",
"228 682 OFFCURVE",
"226 682 CURVE SMOOTH",
"198 679 LINE SMOOTH",
"195 679 OFFCURVE",
"193 676 OFFCURVE",
"194 673 CURVE SMOOTH",
"203 600 OFFCURVE",
"209 490 OFFCURVE",
"209 396 CURVE SMOOTH",
"209 184 OFFCURVE",
"135 42 OFFCURVE",
"25 38 CURVE SMOOTH",
"22 38 OFFCURVE",
"20 35 OFFCURVE",
"20 33 CURVE SMOOTH",
"20 5 LINE SMOOTH",
"20 2 OFFCURVE",
"22 0 OFFCURVE",
"25 0 CURVE SMOOTH"
);
}
);
width = 267;
}
);
rightMetricsKey = "=|";
unicode = 004A;
},
{
color = 6;
glyphname = K;
layers = (
{
layerId = "BA82AF6A-5289-49F9-B535-AE40A2A15B95";
paths = (
{
closed = 1;
nodes = (
"68 204 OFFCURVE",
"69 474 OFFCURVE",
"61 682 CURVE SMOOTH",
"61 685 OFFCURVE",
"59 687 OFFCURVE",
"56 687 CURVE SMOOTH",
"28 685 LINE SMOOTH",
"25 685 OFFCURVE",
"23 683 OFFCURVE",
"23 680 CURVE SMOOTH",
"31 475 OFFCURVE",
"30 206 OFFCURVE",
"20 5 CURVE SMOOTH",
"20 2 OFFCURVE",
"22 0 OFFCURVE",
"25 0 CURVE SMOOTH",
"53 -1 LINE SMOOTH",
"55 -1 OFFCURVE",
"58 1 OFFCURVE",
"58 4 CURVE SMOOTH"
);
},
{
closed = 1;
nodes = (
"189 393 OFFCURVE",
"290 559 OFFCURVE",
"311 677 CURVE SMOOTH",
"312 679 OFFCURVE",
"310 681 OFFCURVE",
"307 681 CURVE SMOOTH",
"279 684 LINE SMOOTH",
"277 684 OFFCURVE",
"274 682 OFFCURVE",
"273 679 CURVE SMOOTH",
"253 572 OFFCURVE",
"156 415 OFFCURVE",
"30 287 CURVE",
"56 261 LINE"
);
},
{
closed = 1;
nodes = (
"156 210 OFFCURVE",
"246 108 OFFCURVE",
"267 1 CURVE SMOOTH",
"268 -1 OFFCURVE",
"270 -3 OFFCURVE",
"272 -3 CURVE SMOOTH",
"300 0 LINE SMOOTH",
"303 0 OFFCURVE",
"306 3 OFFCURVE",
"305 6 CURVE SMOOTH",
"279 130 OFFCURVE",
"179 242 OFFCURVE",
"55 290 CURVE",
"41 254 LINE"
);
}
);
width = 331;
}
);
rightMetricsKey = "=|";
unicode = 004B;
},
{
color = 6;
glyphname = L;
layers = (
{
layerId = "BA82AF6A-5289-49F9-B535-AE40A2A15B95";
paths = (
{
closed = 1;
nodes = (
"78 199 OFFCURVE",
"79 471 OFFCURVE",
"71 680 CURVE SMOOTH",
"71 683 OFFCURVE",
"69 685 OFFCURVE",
"66 685 CURVE SMOOTH",
"38 683 LINE SMOOTH",
"35 683 OFFCURVE",
"33 681 OFFCURVE",
"33 678 CURVE SMOOTH",
"41 472 OFFCURVE",
"40 201 OFFCURVE",
"30 0 CURVE",
"68 0 LINE"
);
},
{
closed = 1;
nodes = (
"118 -2 OFFCURVE",
"138 -2 OFFCURVE",
"223 0 CURVE SMOOTH",
"226 0 OFFCURVE",
"228 3 OFFCURVE",
"228 5 CURVE SMOOTH",
"228 33 LINE SMOOTH",
"228 36 OFFCURVE",
"226 38 OFFCURVE",
"223 38 CURVE SMOOTH",
"139 36 OFFCURVE",
"120 36 OFFCURVE",
"32 38 CURVE",
"30 0 LINE"
);
}
);
width = 258;
}
);
rightMetricsKey = "=|";
unicode = 004C;
},
{
color = 6;
glyphname = M;
layers = (
{
layerId = "BA82AF6A-5289-49F9-B535-AE40A2A15B95";
paths = (
{
closed = 1;
nodes = (
"610 455 OFFCURVE",
"612 228 OFFCURVE",
"602 4 CURVE SMOOTH",
"602 1 OFFCURVE",
"604 -1 OFFCURVE",
"607 -1 CURVE SMOOTH",
"635 -3 LINE SMOOTH",
"638 -3 OFFCURVE",
"640 -1 OFFCURVE",
"640 2 CURVE SMOOTH",
"650 226 OFFCURVE",
"648 452 OFFCURVE",
"640 676 CURVE SMOOTH",
"640 679 OFFCURVE",
"638 681 OFFCURVE",
"635 681 CURVE SMOOTH",
"602 679 LINE"
);
},
{
closed = 1;
nodes = (
"474 487 OFFCURVE",
"552 560 OFFCURVE",
"632 655 CURVE",
"602 679 LINE",
"525 587 OFFCURVE",
"449 516 OFFCURVE",
"375 466 CURVE",
"397 434 LINE"
);
},
{
closed = 1;
nodes = (
"66 224 OFFCURVE",
"65 449 OFFCURVE",
"73 683 CURVE",
"40 685 LINE SMOOTH",
"37 685 OFFCURVE",
"35 683 OFFCURVE",
"35 680 CURVE SMOOTH",
"27 447 OFFCURVE",
"28 222 OFFCURVE",
"40 4 CURVE SMOOTH",
"40 1 OFFCURVE",
"42 -1 OFFCURVE",
"45 -1 CURVE SMOOTH",
"73 1 LINE SMOOTH",
"76 1 OFFCURVE",
"78 3 OFFCURVE",
"78 6 CURVE SMOOTH"
);
},
{
closed = 1;
nodes = (
"168 558 OFFCURVE",
"283 485 OFFCURVE",
"397 434 CURVE",
"413 468 LINE",
"303 518 OFFCURVE",
"190 589 OFFCURVE",
"73 683 CURVE",
"49 653 LINE"
);
}
);
width = 677;
}
);
leftMetricsKey = "=|";
unicode = 004D;
},
{
color = 6;
glyphname = N;
layers = (
{
layerId = "BA82AF6A-5289-49F9-B535-AE40A2A15B95";
paths = (
{
closed = 1;
nodes = (
"39 489 OFFCURVE",
"41 221 OFFCURVE",
"38 6 CURVE SMOOTH",
"38 3 OFFCURVE",
"41 1 OFFCURVE",
"43 1 CURVE",
"71 -1 LINE",
"74 -1 OFFCURVE",
"76 1 OFFCURVE",
"76 4 CURVE SMOOTH",
"79 221 OFFCURVE",
"77 490 OFFCURVE",
"71 680 CURVE SMOOTH",
"71 683 OFFCURVE",
"69 685 OFFCURVE",
"66 685 CURVE SMOOTH",
"38 683 LINE",
"36 683 OFFCURVE",
"33 681 OFFCURVE",
"33 678 CURVE SMOOTH"
);
},
{
closed = 1;
nodes = (
"463 186 OFFCURVE",
"244 445 OFFCURVE",
"74 680 CURVE SMOOTH",
"72 683 OFFCURVE",
"70 685 OFFCURVE",
"67 683 CURVE SMOOTH",
"39 665 LINE",
"202 440 OFFCURVE",
"424 174 OFFCURVE",
"594 0 CURVE",
"622 30 LINE"
);
},
{
closed = 1;
nodes = (
"606 470 OFFCURVE",
"602 199 OFFCURVE",
"594 0 CURVE",
"627 2 LINE",
"629 2 OFFCURVE",
"632 4 OFFCURVE",
"632 6 CURVE",
"640 199 OFFCURVE",
"645 467 OFFCURVE",
"643 679 CURVE",
"643 682 OFFCURVE",
"641 684 OFFCURVE",
"638 684 CURVE SMOOTH",
"610 684 LINE SMOOTH",
"607 684 OFFCURVE",
"605 682 OFFCURVE",
"605 679 CURVE SMOOTH"
);
}
);
width = 676;
}
);
leftMetricsKey = "=|";
unicode = 004E;
},
{
color = 6;
glyphname = O;
layers = (
{
layerId = "BA82AF6A-5289-49F9-B535-AE40A2A15B95";
paths = (
{
closed = 1;
nodes = (
"418 645 OFFCURVE",
"503 506 OFFCURVE",
"503 305 CURVE SMOOTH",
"503 144 OFFCURVE",
"413 38 OFFCURVE",
"278 38 CURVE SMOOTH",
"152 38 OFFCURVE",
"68 148 OFFCURVE",
"68 316 CURVE SMOOTH",
"68 511 OFFCURVE",
"156 645 OFFCURVE",
"289 645 CURVE SMOOTH"
);
},
{
closed = 1;
nodes = (
"133 683 OFFCURVE",
"30 531 OFFCURVE",
"30 316 CURVE SMOOTH",
"30 127 OFFCURVE",
"129 0 OFFCURVE",
"278 0 CURVE SMOOTH",
"435 0 OFFCURVE",
"541 123 OFFCURVE",
"541 305 CURVE SMOOTH",
"541 527 OFFCURVE",
"441 683 OFFCURVE",
"289 683 CURVE SMOOTH"
);
}
);
width = 571;
}
);
leftMetricsKey = "=|";
unicode = 004F;
},
{
color = 6;
glyphname = P;
layers = (
{
layerId = "BA82AF6A-5289-49F9-B535-AE40A2A15B95";
paths = (
{
closed = 1;
nodes = (
"95 211 OFFCURVE",
"86 491 OFFCURVE",
"68 681 CURVE",
"30 683 LINE",
"48 487 OFFCURVE",
"57 212 OFFCURVE",
"53 8 CURVE SMOOTH",
"53 5 OFFCURVE",
"56 3 OFFCURVE",
"58 3 CURVE SMOOTH",
"85 0 LINE SMOOTH",
"88 0 OFFCURVE",
"91 1 OFFCURVE",
"91 5 CURVE SMOOTH"
);
},
{
closed = 1;
nodes = (
"316 212 OFFCURVE",
"443 336 OFFCURVE",
"380 508 CURVE SMOOTH",
"341 615 OFFCURVE",
"190 695 OFFCURVE",
"31 683 CURVE",
"38 645 LINE",
"167 656 OFFCURVE",
"312 584 OFFCURVE",
"344 496 CURVE SMOOTH",
"397 349 OFFCURVE",
"289 250 OFFCURVE",
"70 242 CURVE",
"72 204 LINE"
);
}
);
width = 426;
}
);
rightMetricsKey = "=|";
unicode = 0050;
},
{
glyphname = Thorn;
layers = (
{
layerId = "BA82AF6A-5289-49F9-B535-AE40A2A15B95";
paths = (
{
closed = 1;
nodes = (
"95 211 OFFCURVE",
"71 651 OFFCURVE",
"53 841 CURVE",
"15 843 LINE",
"33 647 OFFCURVE",
"57 212 OFFCURVE",
"53 8 CURVE SMOOTH",
"53 5 OFFCURVE",
"56 3 OFFCURVE",
"58 3 CURVE SMOOTH",
"85 0 LINE SMOOTH",
"88 0 OFFCURVE",
"91 1 OFFCURVE",
"91 5 CURVE SMOOTH"
);
},
{
closed = 1;
nodes = (
"316 212 OFFCURVE",
"443 336 OFFCURVE",
"380 508 CURVE SMOOTH",
"341 615 OFFCURVE",
"190 695 OFFCURVE",
"31 683 CURVE",
"38 645 LINE",
"167 656 OFFCURVE",
"312 584 OFFCURVE",
"344 496 CURVE SMOOTH",
"397 349 OFFCURVE",
"289 250 OFFCURVE",
"70 242 CURVE",
"72 204 LINE"
);
}
);
width = 530;
}
);
unicode = 00DE;
},
{
color = 6;
glyphname = R;
layers = (
{
components = (
{
name = P;
transform = "{1, 0, 0, 1, 3, 0}";
}
);
layerId = "BA82AF6A-5289-49F9-B535-AE40A2A15B95";
paths = (
{
closed = 1;
nodes = (
"153 240 LINE",
"127 212 LINE",
"377 3 LINE SMOOTH",
"379 1 OFFCURVE",
"382 2 OFFCURVE",
"384 4 CURVE SMOOTH",
"403 24 LINE SMOOTH",
"405 27 OFFCURVE",
"405 30 OFFCURVE",
"403 32 CURVE SMOOTH"
);
}
);
width = 437;
}
);
leftMetricsKey = "=|";
unicode = 0052;
},
{
color = 6;
glyphname = S;
layers = (
{
layerId = "BA82AF6A-5289-49F9-B535-AE40A2A15B95";
paths = (
{
closed = 1;
nodes = (
"303 668 OFFCURVE",
"265 685 OFFCURVE",
"223 685 CURVE SMOOTH",
"153 685 OFFCURVE",
"100 637 OFFCURVE",
"100 573 CURVE SMOOTH",
"100 483 OFFCURVE",
"159 438 OFFCURVE",
"227 381 CURVE SMOOTH",
"297 322 OFFCURVE",
"371 264 OFFCURVE",
"371 165 CURVE SMOOTH",
"371 90 OFFCURVE",
"313 38 OFFCURVE",
"228 38 CURVE SMOOTH",
"136 38 OFFCURVE",
"70 101 OFFCURVE",
"68 193 CURVE SMOOTH",
"68 196 OFFCURVE",
"66 198 OFFCURVE",
"63 198 CURVE SMOOTH",
"35 198 LINE SMOOTH",
"32 198 OFFCURVE",
"30 196 OFFCURVE",
"30 193 CURVE SMOOTH",
"33 80 OFFCURVE",
"115 0 OFFCURVE",
"228 0 CURVE SMOOTH",
"333 0 OFFCURVE",
"409 68 OFFCURVE",
"409 165 CURVE SMOOTH",
"409 282 OFFCURVE",
"322 353 OFFCURVE",
"251 411 CURVE SMOOTH",
"182 467 OFFCURVE",
"138 502 OFFCURVE",
"138 573 CURVE SMOOTH",
"138 616 OFFCURVE",
"174 647 OFFCURVE",
"223 647 CURVE SMOOTH",
"253 647 OFFCURVE",
"278 636 OFFCURVE",
"293 615 CURVE SMOOTH",
"295 613 OFFCURVE",
"298 612 OFFCURVE",
"300 614 CURVE SMOOTH",
"324 630 LINE SMOOTH",
"326 632 OFFCURVE",
"327 635 OFFCURVE",
"325 637 CURVE SMOOTH"
);
}
);
width = 439;
}
);
leftMetricsKey = "=|";
unicode = 0053;
},
{
color = 6;
glyphname = T;
layers = (
{
layerId = "BA82AF6A-5289-49F9-B535-AE40A2A15B95";
paths = (
{
closed = 1;
nodes = (
"237 205 OFFCURVE",
"238 474 OFFCURVE",
"230 681 CURVE",
"192 681 LINE",
"200 476 OFFCURVE",
"199 208 OFFCURVE",
"189 5 CURVE SMOOTH",
"189 2 OFFCURVE",
"191 0 OFFCURVE",
"194 0 CURVE SMOOTH",
"222 0 LINE SMOOTH",
"224 0 OFFCURVE",
"227 2 OFFCURVE",
"227 5 CURVE SMOOTH"
);
},
{
closed = 1;
nodes = (
"116 643 OFFCURVE",
"314 643 OFFCURVE",
"412 647 CURVE SMOOTH",
"416 647 OFFCURVE",
"418 650 OFFCURVE",
"418 652 CURVE SMOOTH",
"418 680 LINE SMOOTH",
"418 683 OFFCURVE",
"416 685 OFFCURVE",
"413 685 CURVE SMOOTH",
"315 681 OFFCURVE",
"119 681 OFFCURVE",
"37 685 CURVE SMOOTH",
"34 685 OFFCURVE",
"32 683 OFFCURVE",
"32 680 CURVE SMOOTH",
"30 652 LINE SMOOTH",
"30 649 OFFCURVE",
"32 647 OFFCURVE",
"35 647 CURVE SMOOTH"
);
}
);
width = 448;
}
);
rightMetricsKey = "=|";
unicode = 0054;
},
{
color = 6;
glyphname = U;
layers = (
{
layerId = "BA82AF6A-5289-49F9-B535-AE40A2A15B95";
paths = (
{
closed = 1;
nodes = (
"473 244 OFFCURVE",
"388 20 OFFCURVE",
"224 38 CURVE SMOOTH",
"107 51 OFFCURVE",
"15 199 OFFCURVE",
"68 676 CURVE SMOOTH",
"69 680 OFFCURVE",
"67 682 OFFCURVE",
"64 682 CURVE SMOOTH",
"36 684 LINE SMOOTH",
"34 684 OFFCURVE",
"31 682 OFFCURVE",
"30 679 CURVE SMOOTH",
"-25 177 OFFCURVE",
"75 17 OFFCURVE",
"220 0 CURVE SMOOTH",
"415 -23 OFFCURVE",
"515 222 OFFCURVE",
"450 644 CURVE SMOOTH",
"449 647 OFFCURVE",
"447 649 OFFCURVE",
"444 648 CURVE SMOOTH",
"416 644 LINE SMOOTH",
"413 643 OFFCURVE",
"411 641 OFFCURVE",
"412 638 CURVE SMOOTH"
);
}
);
width = 485;
}
);
rightMetricsKey = "=|";
unicode = 0055;
},
{
color = 6;
glyphname = V;
layers = (
{
layerId = "BA82AF6A-5289-49F9-B535-AE40A2A15B95";
paths = (
{
closed = 1;
nodes = (
"66 568 OFFCURVE",
"137 308 OFFCURVE",
"195 14 CURVE SMOOTH",
"196 9 OFFCURVE",
"198 5 OFFCURVE",
"200 5 CURVE SMOOTH",
"230 0 LINE SMOOTH",
"232 0 OFFCURVE",
"234 1 OFFCURVE",
"234 3 CURVE SMOOTH",
"333 194 OFFCURVE",
"399 464 OFFCURVE",
"400 679 CURVE SMOOTH",
"400 682 OFFCURVE",
"398 684 OFFCURVE",
"395 684 CURVE SMOOTH",
"367 684 LINE SMOOTH",
"364 684 OFFCURVE",
"362 682 OFFCURVE",
"362 679 CURVE SMOOTH",
"361 487 OFFCURVE",
"306 248 OFFCURVE",
"223 67 CURVE",
"165 346 OFFCURVE",
"99 586 OFFCURVE",
"54 673 CURVE SMOOTH",
"53 675 OFFCURVE",
"50 676 OFFCURVE",
"47 674 CURVE SMOOTH",
"23 661 LINE SMOOTH",
"20 659 OFFCURVE",
"19 657 OFFCURVE",
"20 655 CURVE SMOOTH"
);
}
);
width = 420;
}
);
rightMetricsKey = "=|";
unicode = 0056;
},
{
color = 6;
glyphname = X;
layers = (
{
layerId = "BA82AF6A-5289-49F9-B535-AE40A2A15B95";
paths = (
{
closed = 1;
nodes = (
"288 198 OFFCURVE",
"430 390 OFFCURVE",
"583 658 CURVE SMOOTH",
"585 662 OFFCURVE",
"584 664 OFFCURVE",
"581 666 CURVE SMOOTH",
"556 680 LINE SMOOTH",
"553 682 OFFCURVE",
"551 680 OFFCURVE",
"550 678 CURVE SMOOTH",
"398 411 OFFCURVE",
"258 219 OFFCURVE",
"118 26 CURVE SMOOTH",
"116 24 OFFCURVE",
"117 21 OFFCURVE",
"119 19 CURVE SMOOTH",
"141 3 LINE SMOOTH",
"143 1 OFFCURVE",
"146 2 OFFCURVE",
"148 4 CURVE SMOOTH"
);
},
{
closed = 1;
nodes = (
"543 21 LINE SMOOTH",
"545 23 OFFCURVE",
"546 26 OFFCURVE",
"544 28 CURVE SMOOTH",
"390 210 OFFCURVE",
"236 391 OFFCURVE",
"66 646 CURVE SMOOTH",
"64 648 OFFCURVE",
"62 649 OFFCURVE",
"59 647 CURVE SMOOTH",
"35 633 LINE SMOOTH",
"33 632 OFFCURVE",
"31 628 OFFCURVE",
"33 625 CURVE SMOOTH",
"206 369 OFFCURVE",
"362 187 OFFCURVE",
"516 4 CURVE SMOOTH",
"518 2 OFFCURVE",
"521 1 OFFCURVE",
"523 3 CURVE SMOOTH"
);
}
);
width = 616;
}
);
rightMetricsKey = "=|";
unicode = 0058;
},
{
color = 6;
glyphname = Y;
layers = (
{
layerId = "BA82AF6A-5289-49F9-B535-AE40A2A15B95";
paths = (
{
closed = 1;
nodes = (
"348 384 OFFCURVE",
"403 467 OFFCURVE",
"491 660 CURVE SMOOTH",
"492 663 OFFCURVE",
"491 666 OFFCURVE",
"489 667 CURVE SMOOTH",
"464 679 LINE SMOOTH",
"462 680 OFFCURVE",
"458 679 OFFCURVE",
"457 676 CURVE SMOOTH",
"371 490 OFFCURVE",
"317 408 OFFCURVE",
"192 275 CURVE",
"220 249 LINE"
);
},
{
closed = 1;
nodes = (
"240 137 OFFCURVE",
"240 195 OFFCURVE",
"230 286 CURVE",
"188 438 OFFCURVE",
"153 517 OFFCURVE",
"51 673 CURVE SMOOTH",
"49 676 OFFCURVE",
"45 676 OFFCURVE",
"43 674 CURVE SMOOTH",
"22 657 LINE SMOOTH",
"20 656 OFFCURVE",
"19 652 OFFCURVE",
"20 650 CURVE SMOOTH",
"117 503 OFFCURVE",
"151 427 OFFCURVE",
"193 276 CURVE",
"202 197 OFFCURVE",
"202 142 OFFCURVE",
"193 4 CURVE SMOOTH",
"193 1 OFFCURVE",
"195 -1 OFFCURVE",
"198 -1 CURVE SMOOTH",
"226 -3 LINE SMOOTH",
"229 -3 OFFCURVE",
"231 -1 OFFCURVE",
"231 2 CURVE SMOOTH"
);
}
);
width = 511;
}
);
rightMetricsKey = "=|";
unicode = 0059;
},
{
color = 6;
glyphname = Z;
layers = (
{
layerId = "BA82AF6A-5289-49F9-B535-AE40A2A15B95";
paths = (
{
closed = 1;
nodes = (
"311 29 OFFCURVE",
"207 29 OFFCURVE",
"103 36 CURVE SMOOTH",
"99 37 OFFCURVE",
"96 41 OFFCURVE",
"99 45 CURVE SMOOTH",
"217 256 OFFCURVE",
"334 467 OFFCURVE",
"447 677 CURVE SMOOTH",
"450 682 OFFCURVE",
"447 686 OFFCURVE",
"442 686 CURVE SMOOTH",
"343 689 OFFCURVE",
"243 689 OFFCURVE",
"144 684 CURVE SMOOTH",
"141 684 OFFCURVE",
"139 681 OFFCURVE",
"139 679 CURVE SMOOTH",
"139 652 LINE SMOOTH",
"139 649 OFFCURVE",
"141 646 OFFCURVE",
"145 646 CURVE SMOOTH",
"223 651 OFFCURVE",
"301 651 OFFCURVE",
"378 648 CURVE SMOOTH",
"383 648 OFFCURVE",
"386 644 OFFCURVE",
"383 639 CURVE SMOOTH",
"271 429 OFFCURVE",
"153 218 OFFCURVE",
"35 7 CURVE SMOOTH",
"32 3 OFFCURVE",
"35 -1 OFFCURVE",
"40 -2 CURVE SMOOTH",
"165 -9 OFFCURVE",
"291 -9 OFFCURVE",
"416 1 CURVE SMOOTH",
"419 1 OFFCURVE",
"421 4 OFFCURVE",
"421 6 CURVE SMOOTH",
"421 33 LINE SMOOTH",
"421 36 OFFCURVE",
"419 39 OFFCURVE",
"415 38 CURVE SMOOTH"
);
}
);
width = 482;
}
);
rightMetricsKey = "=|";
unicode = 005A;
},
{
color = 6;
glyphname = c;
layers = (
{
layerId = "BA82AF6A-5289-49F9-B535-AE40A2A15B95";
paths = (
{
closed = 1;
nodes = (
"155 501 OFFCURVE",
"20 413 OFFCURVE",
"20 268 CURVE SMOOTH",
"20 109 OFFCURVE",
"159 3 OFFCURVE",
"367 1 CURVE SMOOTH",
"370 1 OFFCURVE",
"372 3 OFFCURVE",
"372 6 CURVE SMOOTH",
"372 34 LINE SMOOTH",
"372 37 OFFCURVE",
"370 39 OFFCURVE",
"367 39 CURVE SMOOTH",
"182 41 OFFCURVE",
"58 132 OFFCURVE",
"58 268 CURVE SMOOTH",
"58 388 OFFCURVE",
"177 461 OFFCURVE",
"356 451 CURVE SMOOTH",
"359 451 OFFCURVE",
"361 453 OFFCURVE",
"361 456 CURVE SMOOTH",
"363 484 LINE SMOOTH",
"363 487 OFFCURVE",
"361 489 OFFCURVE",
"358 489 CURVE SMOOTH"
);
}
);
width = 392;
}
);
rightMetricsKey = "=|";
unicode = 0063;
},
{
glyphname = eth;
layers = (
{
layerId = "BA82AF6A-5289-49F9-B535-AE40A2A15B95";
paths = (
{
closed = 1;
nodes = (
"403 390 OFFCURVE",
"329 420 OFFCURVE",
"258 420 CURVE SMOOTH",
"116 420 OFFCURVE",
"20 348 OFFCURVE",
"20 240 CURVE SMOOTH",
"20 97 OFFCURVE",
"130 0 OFFCURVE",
"292 0 CURVE SMOOTH",
"394 0 OFFCURVE",
"464 77 OFFCURVE",
"464 187 CURVE SMOOTH",
"464 417 OFFCURVE",
"334 600 OFFCURVE",
"139 644 CURVE",
"132 611 LINE",
"311 569 OFFCURVE",
"430 401 OFFCURVE",
"430 187 CURVE SMOOTH",
"430 96 OFFCURVE",
"374 35 OFFCURVE",
"292 35 CURVE SMOOTH",
"148 35 OFFCURVE",
"54 117 OFFCURVE",
"54 240 CURVE SMOOTH",
"54 328 OFFCURVE",
"135 386 OFFCURVE",
"258 386 CURVE SMOOTH",
"320 386 OFFCURVE",
"383 360 OFFCURVE",
"413 322 CURVE",
"440 344 LINE"
);
},
{
closed = 1;
nodes = (
"265 538 OFFCURVE",
"335 587 OFFCURVE",
"374 633 CURVE",
"349 656 LINE",
"312 615 OFFCURVE",
"247 568 OFFCURVE",
"183 542 CURVE",
"196 510 LINE"
);
}
);
width = 484;
}
);
rightMetricsKey = "=|";
unicode = 00F0;
},
{
color = 6;
glyphname = f;
layers = (
{
components = (
{
name = _horizontal_small_pipe;
transform = "{1, 0, 0, 1, 20, 2}";
}
);
layerId = "BA82AF6A-5289-49F9-B535-AE40A2A15B95";
paths = (
{
closed = 1;
nodes = (
"17 637 OFFCURVE",
"10 301 OFFCURVE",
"69 -148 CURVE SMOOTH",
"70 -153 OFFCURVE",
"72 -157 OFFCURVE",
"75 -156 CURVE SMOOTH",
"103 -152 LINE SMOOTH",
"106 -151 OFFCURVE",
"108 -149 OFFCURVE",
"107 -146 CURVE SMOOTH",
"37 387 OFFCURVE",
"87 610 OFFCURVE",
"287 645 CURVE SMOOTH",
"290 646 OFFCURVE",
"291 649 OFFCURVE",
"291 651 CURVE SMOOTH",
"287 679 LINE SMOOTH",
"287 682 OFFCURVE",
"284 684 OFFCURVE",
"281 683 CURVE SMOOTH"
);
}
);
width = 311;
}
);
rightMetricsKey = "=|";
unicode = 0066;
},
{
color = 6;
glyphname = g;
layers = (
{
components = (
{
name = a;
}
);
layerId = "BA82AF6A-5289-49F9-B535-AE40A2A15B95";
paths = (
{
closed = 1;
nodes = (
"357 -319 OFFCURVE",
"509 -214 OFFCURVE",
"515 0 CURVE",
"477 0 LINE",
"467 -188 OFFCURVE",
"332 -278 OFFCURVE",
"135 -278 CURVE SMOOTH",
"132 -278 OFFCURVE",
"129 -280 OFFCURVE",
"129 -283 CURVE SMOOTH",
"129 -315 LINE SMOOTH",
"129 -317 OFFCURVE",
"131 -319 OFFCURVE",
"133 -319 CURVE SMOOTH"
);
}
);
width = 536;
}
);
rightMetricsKey = "=|";
unicode = 0067;
},
{
color = 6;
glyphname = h;
layers = (
{
components = (
{
name = _horizontal_large_pipe;
transform = "{0, 1.8895, -1, 0, 58, 0}";
}
);
layerId = "BA82AF6A-5289-49F9-B535-AE40A2A15B95";
paths = (
{
closed = 1;
nodes = (
"631 289 OFFCURVE",
"539 489 OFFCURVE",
"348 489 CURVE SMOOTH",
"166 489 OFFCURVE",
"27 330 OFFCURVE",
"22 105 CURVE",
"59 105 LINE",
"64 309 OFFCURVE",
"188 451 OFFCURVE",
"348 451 CURVE SMOOTH",
"511 451 OFFCURVE",
"590 273 OFFCURVE",
"549 9 CURVE SMOOTH",
"548 6 OFFCURVE",
"550 4 OFFCURVE",
"553 3 CURVE SMOOTH",
"581 -1 LINE SMOOTH",
"584 -2 OFFCURVE",
"586 0 OFFCURVE",
"587 3 CURVE SMOOTH"
);
}
);
width = 618;
}
);
rightMetricsKey = "=|";
unicode = 0068;
},
{
color = 6;
glyphname = j;
layers = (
{
components = (
{
name = "dotabove-ar";
transform = "{1, 0, 0, 1, 108, -260}";
}
);
layerId = "BA82AF6A-5289-49F9-B535-AE40A2A15B95";
paths = (
{
closed = 1;
nodes = (
"125 -234 OFFCURVE",
"83 -339 OFFCURVE",
"20 -458 CURVE SMOOTH",
"20 -459 OFFCURVE",
"20 -460 OFFCURVE",
"23 -462 CURVE SMOOTH",
"48 -476 LINE SMOOTH",
"51 -478 OFFCURVE",
"54 -476 OFFCURVE",
"55 -473 CURVE SMOOTH",
"117 -353 OFFCURVE",
"163 -241 OFFCURVE",
"170 30 CURVE SMOOTH",
"170 33 OFFCURVE",
"168 35 OFFCURVE",
"165 35 CURVE SMOOTH",
"137 35 LINE SMOOTH",
"135 35 OFFCURVE",
"132 33 OFFCURVE",
"132 30 CURVE SMOOTH"
);
}
);
width = 195;
}
);
rightMetricsKey = "=|";
unicode = 006A;
},
{
color = 6;
glyphname = m;
layers = (
{
components = (
{
name = n;
}
);
layerId = "BA82AF6A-5289-49F9-B535-AE40A2A15B95";
paths = (
{
closed = 1;
nodes = (
"417 304 LINE",
"436 304 LINE",
"469 400 OFFCURVE",
"534 464 OFFCURVE",
"599 464 CURVE SMOOTH",
"746 464 OFFCURVE",
"825 279 OFFCURVE",
"798 1 CURVE SMOOTH",
"797 -2 OFFCURVE",
"799 -4 OFFCURVE",
"802 -4 CURVE SMOOTH",
"830 -7 LINE SMOOTH",
"833 -7 OFFCURVE",
"835 -6 OFFCURVE",
"836 -3 CURVE SMOOTH",
"865 300 OFFCURVE",
"771 502 OFFCURVE",
"599 502 CURVE SMOOTH",
"526 502 OFFCURVE",
"454 445 OFFCURVE",
"417 360 CURVE",
"417 360 OFFCURVE",
"417 361 OFFCURVE",
"416 361 CURVE"
);
}
);
width = 861;
}
);
rightMetricsKey = "=|";
unicode = 006D;
},
{
color = 6;
glyphname = n;
layers = (
{
components = (
{
name = _horizontal_large_pipe;
transform = "{0, 1.35083, -1, 0, 58, 0}";
}
);
layerId = "BA82AF6A-5289-49F9-B535-AE40A2A15B95";
paths = (
{
closed = 1;
nodes = (
"59 373 OFFCURVE",
"126 463 OFFCURVE",
"228 463 CURVE SMOOTH",
"422 463 OFFCURVE",
"446 290 OFFCURVE",
"421 11 CURVE SMOOTH",
"421 8 OFFCURVE",
"423 5 OFFCURVE",
"425 5 CURVE SMOOTH",
"452 0 LINE SMOOTH",
"455 -1 OFFCURVE",
"458 2 OFFCURVE",
"459 5 CURVE SMOOTH",
"484 293 OFFCURVE",
"455 501 OFFCURVE",
"228 501 CURVE SMOOTH",
"104 501 OFFCURVE",
"22 394 OFFCURVE",
"22 235 CURVE",
"59 235 LINE"
);
}
);
width = 486;
}
);
rightMetricsKey = "=|";
unicode = 006E;
},
{
color = 6;
glyphname = o;
layers = (
{
layerId = "BA82AF6A-5289-49F9-B535-AE40A2A15B95";
paths = (
{
closed = 1;
nodes = (
"316 450 OFFCURVE",
"384 363 OFFCURVE",
"384 233 CURVE SMOOTH",
"384 117 OFFCURVE",
"316 40 OFFCURVE",
"215 40 CURVE SMOOTH",
"121 40 OFFCURVE",
"58 117 OFFCURVE",
"58 233 CURVE SMOOTH",
"58 363 OFFCURVE",
"121 450 OFFCURVE",
"215 450 CURVE SMOOTH"
);
},
{
closed = 1;
nodes = (
"98 488 OFFCURVE",
"20 386 OFFCURVE",
"20 233 CURVE SMOOTH",
"20 94 OFFCURVE",
"98 2 OFFCURVE",
"215 2 CURVE SMOOTH",
"339 2 OFFCURVE",
"422 94 OFFCURVE",
"422 233 CURVE SMOOTH",
"422 386 OFFCURVE",
"339 488 OFFCURVE",
"215 488 CURVE SMOOTH"
);
}
);
width = 442;
}
);
rightMetricsKey = "=|";
unicode = 006F;
},
{
color = 6;
glyphname = r;
layers = (
{
components = (
{
name = _horizontal_large_pipe;
transform = "{0, 1.35083, -1, 0, 58, 0}";
}
);
layerId = "BA82AF6A-5289-49F9-B535-AE40A2A15B95";
paths = (
{
closed = 1;
nodes = (
"81 474 OFFCURVE",
"22 381 OFFCURVE",
"22 211 CURVE",
"59 211 LINE",
"59 364 OFFCURVE",
"109 443 OFFCURVE",
"217 469 CURVE SMOOTH",
"220 470 OFFCURVE",
"222 473 OFFCURVE",
"221 475 CURVE SMOOTH",
"215 503 LINE SMOOTH",
"214 506 OFFCURVE",
"212 507 OFFCURVE",
"209 507 CURVE SMOOTH"
);
}
);
width = 241;
}
);
rightMetricsKey = "=|";
unicode = 0072;
},
{
color = 6;
glyphname = s;
layers = (
{
layerId = "BA82AF6A-5289-49F9-B535-AE40A2A15B95";
paths = (
{
closed = 1;
nodes = (
"178 536 OFFCURVE",
"77 488 OFFCURVE",
"77 395 CURVE SMOOTH",
"77 324 OFFCURVE",
"139 275 OFFCURVE",
"191 233 CURVE SMOOTH",
"235 198 OFFCURVE",
"271 170 OFFCURVE",
"275 136 CURVE SMOOTH",
"282 76 OFFCURVE",
"251 38 OFFCURVE",
"190 38 CURVE SMOOTH",
"110 38 OFFCURVE",
"58 92 OFFCURVE",
"58 176 CURVE",
"20 176 LINE",
"20 71 OFFCURVE",
"89 0 OFFCURVE",
"190 0 CURVE SMOOTH",
"274 0 OFFCURVE",
"324 58 OFFCURVE",
"313 142 CURVE SMOOTH",
"307 190 OFFCURVE",
"259 228 OFFCURVE",
"215 263 CURVE SMOOTH",
"163 304 OFFCURVE",
"115 343 OFFCURVE",
"115 395 CURVE SMOOTH",
"115 456 OFFCURVE",
"180 486 OFFCURVE",
"227 449 CURVE",
"251 479 LINE"
);
}
);
width = 335;
}
);
rightMetricsKey = "=|";
unicode = 0073;
},
{
glyphname = germandbls;
layers = (
{
layerId = "BA82AF6A-5289-49F9-B535-AE40A2A15B95";
paths = (
{
closed = 1;
nodes = (
"57 473 OFFCURVE",
"66 209 OFFCURVE",
"42 -133 CURVE SMOOTH",
"42 -137 OFFCURVE",
"45 -139 OFFCURVE",
"48 -139 CURVE SMOOTH",
"80 -140 LINE",
"105 204 OFFCURVE",
"96 475 OFFCURVE",
"57 678 CURVE",
"25 677 LINE SMOOTH",
"22 677 OFFCURVE",
"20 674 OFFCURVE",
"20 671 CURVE SMOOTH"
);
},
{
closed = 1;
nodes = (
"254 376 OFFCURVE",
"315 709 OFFCURVE",
"29 678 CURVE SMOOTH",
"23 678 OFFCURVE",
"20 675 OFFCURVE",
"20 672 CURVE SMOOTH",
"26 639 LINE",
"259 668 OFFCURVE",
"214 408 OFFCURVE",
"84 390 CURVE",
"90 352 LINE"
);
},
{
closed = 1;
nodes = (
"137 0 LINE",
"255 5 OFFCURVE",
"356 72 OFFCURVE",
"390 166 CURVE SMOOTH",
"443 314 OFFCURVE",
"322 404 OFFCURVE",
"88 390 CURVE",
"90 352 LINE",
"290 364 OFFCURVE",
"395 294 OFFCURVE",
"354 178 CURVE SMOOTH",
"326 98 OFFCURVE",
"238 42 OFFCURVE",
"135 38 CURVE"
);
}
);
width = 600;
}
);
unicode = 00DF;
},
{
glyphname = t;
layers = (
{
components = (
{
name = f;
transform = "{1, 0, 0, -1, 0, 487}";
}
);
layerId = "BA82AF6A-5289-49F9-B535-AE40A2A15B95";
paths = (
{
closed = 0;
nodes = (
"132 175 LINE"
);
}
);
width = 311;
}
);
rightMetricsKey = "=|";
unicode = 0074;
},
{
glyphname = v;
layers = (
{
layerId = "BA82AF6A-5289-49F9-B535-AE40A2A15B95";
paths = (
{
closed = 1;
nodes = (
"381 344 OFFCURVE",
"342 171 OFFCURVE",
"245 35 CURVE",
"224 76 OFFCURVE",
"137 247 OFFCURVE",
"58 477 CURVE SMOOTH",
"57 480 OFFCURVE",
"53 481 OFFCURVE",
"51 480 CURVE SMOOTH",
"25 470 LINE SMOOTH",
"23 469 OFFCURVE",
"21 466 OFFCURVE",
"22 463 CURVE SMOOTH",
"100 237 OFFCURVE",
"187 48 OFFCURVE",
"235 -14 CURVE",
"271 0 LINE",
"365 135 OFFCURVE",
"419 340 OFFCURVE",
"417 491 CURVE SMOOTH",
"417 494 OFFCURVE",
"414 496 OFFCURVE",
"411 496 CURVE SMOOTH",
"384 493 LINE SMOOTH",
"382 493 OFFCURVE",
"379 491 OFFCURVE",
"379 488 CURVE SMOOTH"
);
}
);
width = 439;
}
);
rightMetricsKey = "=|";
unicode = 0076;
},
{
color = 6;
glyphname = y;
layers = (
{
components = (
{
name = v;
}
);
layerId = "BA82AF6A-5289-49F9-B535-AE40A2A15B95";
paths = (
{
closed = 1;
nodes = (
"187 -100 OFFCURVE",
"258 -35 OFFCURVE",
"285 27 CURVE",
"251 42 LINE",
"226 -12 OFFCURVE",
"163 -69 OFFCURVE",
"94 -100 CURVE",
"108 -134 LINE"
);
}
);
width = 439;
}
);
rightMetricsKey = "=|";
unicode = 0079;
},
{
color = 6;
glyphname = z;
layers = (
{
layerId = "BA82AF6A-5289-49F9-B535-AE40A2A15B95";
paths = (
{
closed = 1;
nodes = (
"254 491 OFFCURVE",
"188 489 OFFCURVE",
"122 486 CURVE SMOOTH",
"119 486 OFFCURVE",
"117 483 OFFCURVE",
"117 481 CURVE SMOOTH",
"117 453 LINE SMOOTH",
"117 450 OFFCURVE",
"119 448 OFFCURVE",
"122 448 CURVE SMOOTH",
"189 451 OFFCURVE",
"254 453 OFFCURVE",
"320 452 CURVE",
"320 490 LINE"
);
},
{
closed = 1;
nodes = (
"156 155 OFFCURVE",
"258 309 OFFCURVE",
"350 464 CURVE SMOOTH",
"351 466 OFFCURVE",
"350 469 OFFCURVE",
"348 471 CURVE SMOOTH",
"320 490 LINE",
"229 335 OFFCURVE",
"127 181 OFFCURVE",
"16 26 CURVE SMOOTH",
"14 24 OFFCURVE",
"15 21 OFFCURVE",
"17 19 CURVE SMOOTH",
"45 0 LINE"
);
},
{
closed = 1;
nodes = (
"255 39 OFFCURVE",
"149 35 OFFCURVE",
"43 38 CURVE",
"45 0 LINE",
"151 -3 OFFCURVE",
"257 1 OFFCURVE",
"363 10 CURVE SMOOTH",
"366 10 OFFCURVE",
"368 13 OFFCURVE",
"368 15 CURVE SMOOTH",
"366 43 LINE SMOOTH",
"366 46 OFFCURVE",
"364 48 OFFCURVE",
"361 48 CURVE SMOOTH"
);
}
);
width = 383;
}
);
rightMetricsKey = "=|";
unicode = 007A;
},
{
glyphname = "hamza-ar";
layers = (
{
anchors = (
{
name = bottom;
position = "{139, 73}";
},
{
name = top;
position = "{132, 310}";
}
);
layerId = "BA82AF6A-5289-49F9-B535-AE40A2A15B95";
paths = (
{
closed = 1;
nodes = (
"149 201 LINE",
"120 206 OFFCURVE",
"103 218 OFFCURVE",
"103 233 CURVE SMOOTH",
"103 256 OFFCURVE",
"136 284 OFFCURVE",
"172 265 CURVE",
"186 295 LINE",
"174 301 OFFCURVE",
"162 304 OFFCURVE",
"150 304 CURVE SMOOTH",
"106 304 OFFCURVE",
"66 270 OFFCURVE",
"66 232 CURVE SMOOTH",
"66 201 OFFCURVE",
"89 180 OFFCURVE",
"136 169 CURVE"
);
},
{
closed = 1;
nodes = (
"176 225 OFFCURVE",
"141 217 OFFCURVE",
"78 171 CURVE",
"86 133 LINE",
"150 180 OFFCURVE",
"171 188 OFFCURVE",
"221 195 CURVE",
"221 229 LINE"
);
}
);
width = 290;
}
);
unicode = 0621;
},
{
color = 6;
glyphname = "alef-ar";
layers = (
{
anchors = (
{
name = "#entry";
position = "{54, 0}";
},
{
name = "#exit";
position = "{26, 0}";
},
{
name = bottom;
position = "{31, -55}";
},
{
name = top;
position = "{35, 715}";
}
);
layerId = "BA82AF6A-5289-49F9-B535-AE40A2A15B95";
paths = (
{
closed = 1;
nodes = (
"68 123 OFFCURVE",
"75 390 OFFCURVE",
"71 669 CURVE SMOOTH",
"71 675 OFFCURVE",
"67 679 OFFCURVE",
"64 678 CURVE SMOOTH",
"37 671 LINE SMOOTH",
"35 670 OFFCURVE",
"33 668 OFFCURVE",
"33 666 CURVE SMOOTH",
"37 392 OFFCURVE",
"30 125 OFFCURVE",
"16 0 CURVE",
"54 0 LINE"
);
}
);
width = 75;
}
);
unicode = 0627;
},
{
color = 6;
glyphname = "alef-ar.001";
layers = (
{
anchors = (
{
name = "#entry";
position = "{54, 0}";
},
{
name = "#exit";
position = "{26, 0}";
},
{
name = bottom;
position = "{31, -55}";
},
{
name = top;
position = "{35, 715}";
}
);
layerId = "BA82AF6A-5289-49F9-B535-AE40A2A15B95";
paths = (
{
closed = 1;
nodes = (
"68 123 OFFCURVE",
"75 390 OFFCURVE",
"71 669 CURVE SMOOTH",
"71 675 OFFCURVE",
"67 679 OFFCURVE",
"64 678 CURVE SMOOTH",
"37 671 LINE SMOOTH",
"35 670 OFFCURVE",
"33 668 OFFCURVE",
"33 666 CURVE SMOOTH",
"37 392 OFFCURVE",
"30 125 OFFCURVE",
"16 0 CURVE",
"54 0 LINE"
);
}
);
width = 75;
}
);
},
{
glyphname = "alefHamzabelow-ar";
layers = (
{
components = (
{
name = "alef-ar";
transform = "{1, 0, 0, 1, 42, 0}";
},
{
name = "hamza-ar";
transform = "{1, 0, 0, 1, -66, -333}";
}
);
layerId = "BA82AF6A-5289-49F9-B535-AE40A2A15B95";
paths = (
{
closed = 0;
nodes = (
"71 -75 LINE"
);
}
);
width = 155;
}
);
unicode = 0625;
},
{
glyphname = "alefWasla-ar";
layers = (
{
components = (
{
name = "alef-ar";
transform = "{1, 0, 0, 1, 38, 0}";
},
{
name = "wasla-ar";
transform = "{1, 0, 0, 1, 0, 259}";
}
);
layerId = "BA82AF6A-5289-49F9-B535-AE40A2A15B95";
paths = (
{
closed = 0;
nodes = (
"72 -35 LINE"
);
}
);
width = 165;
}
);
unicode = 0671;
},
{
color = 6;
glyphname = "behDotless-ar";
layers = (
{
anchors = (
{
name = "#entry";
position = "{371, 0}";
},
{
name = "#exit";
position = "{309, 0}";
},
{
name = bottom;
position = "{346, -79}";
},
{
name = top;
position = "{340, 141}";
}
);
guideLines = (
{
alignment = center;
angle = 90;
position = "{399, -57}";
showMeasurement = 1;
}
);
hints = (
{
horizontal = 1;
place = "{1.25, 36.25}";
type = Stem;
},
{
origin = "{0, 0}";
target = "{0, 0}";
type = Stem;
}
);
layerId = "BA82AF6A-5289-49F9-B535-AE40A2A15B95";
paths = (
{
closed = 1;
nodes = (
"517 81 OFFCURVE",
"489 38 OFFCURVE",
"371 38 CURVE SMOOTH",
"251 38 OFFCURVE",
"109 55 OFFCURVE",
"15 89 CURVE",
"1 53 LINE",
"100 17 OFFCURVE",
"248 -4 OFFCURVE",
"371 0 CURVE SMOOTH",
"515 5 OFFCURVE",
"555 63 OFFCURVE",
"555 280 CURVE",
"517 280 LINE"
);
}
);
width = 555;
}
);
unicode = 066E;
},
{
glyphname = "behDotless-ar.init";
layers = (
{
anchors = (
{
name = "#entry";
position = "{0, 0}";
},
{
name = "#exit";
position = "{0, 0}";
},
{
name = bottom;
position = "{38, -64}";
},
{
name = top;
position = "{50, 288}";
}
);
layerId = "BA82AF6A-5289-49F9-B535-AE40A2A15B95";
paths = (
{
closed = 1;
nodes = (
"125 83 OFFCURVE",
"99 38 OFFCURVE",
"0 38 CURVE",
"0 0 LINE",
"130 0 OFFCURVE",
"164 52 OFFCURVE",
"165 261 CURVE SMOOTH",
"165 264 OFFCURVE",
"162 266 OFFCURVE",
"160 266 CURVE SMOOTH",
"133 269 LINE SMOOTH",
"130 269 OFFCURVE",
"127 267 OFFCURVE",
"127 264 CURVE SMOOTH"
);
}
);
width = 165;
}
);
},
{
color = 6;
glyphname = "hah-ar";
layers = (
{
anchors = (
{
name = "#entry";
position = "{295, 0}";
},
{
name = bottom;
position = "{243, -90}";
},
{
name = top;
position = "{284, 459}";
}
);
layerId = "BA82AF6A-5289-49F9-B535-AE40A2A15B95";
paths = (
{
closed = 1;
nodes = (
"204 -219 OFFCURVE",
"161 -194 OFFCURVE",
"148 -154 CURVE SMOOTH",
"124 -80 OFFCURVE",
"211 1 OFFCURVE",
"295 0 CURVE",
"297 38 LINE",
"185 44 OFFCURVE",
"86 -66 OFFCURVE",
"112 -163 CURVE SMOOTH",
"128 -222 OFFCURVE",
"187 -256 OFFCURVE",
"270 -256 CURVE SMOOTH",
"273 -256 OFFCURVE",
"276 -253 OFFCURVE",
"276 -251 CURVE SMOOTH",
"274 -223 LINE SMOOTH",
"274 -221 OFFCURVE",
"273 -219 OFFCURVE",
"269 -219 CURVE SMOOTH"
);
},
{
closed = 1;
nodes = (
"322 414 OFFCURVE",
"278 233 OFFCURVE",
"242 21 CURVE",
"280 15 LINE",
"316 225 OFFCURVE",
"368 444 OFFCURVE",
"14 518 CURVE SMOOTH",
"11 519 OFFCURVE",
"9 516 OFFCURVE",
"8 514 CURVE SMOOTH",
"1 486 LINE SMOOTH",
"0 483 OFFCURVE",
"2 481 OFFCURVE",
"5 480 CURVE SMOOTH"
);
}
);
width = 306;
}
);
unicode = 062D;
},
{
color = 6;
glyphname = "hah-ar.init";
layers = (
{
anchors = (
{
name = "#entry";
position = "{350, 0}";
},
{
name = "#exit";
position = "{0, 0}";
},
{
name = bottom;
position = "{163, -99}";
},
{
name = top;
position = "{274, 528}";
}
);
layerId = "BA82AF6A-5289-49F9-B535-AE40A2A15B95";
paths = (
{
closed = 1;
nodes = (
"360 33 LINE SMOOTH",
"360 36 OFFCURVE",
"358 38 OFFCURVE",
"355 38 CURVE SMOOTH",
"243 34 OFFCURVE",
"102 34 OFFCURVE",
"0 38 CURVE",
"0 0 LINE",
"96 -3 OFFCURVE",
"237 -3 OFFCURVE",
"355 0 CURVE SMOOTH",
"358 0 OFFCURVE",
"360 3 OFFCURVE",
"360 5 CURVE SMOOTH"
);
},
{
closed = 1;
nodes = (
"362 414 OFFCURVE",
"318 233 OFFCURVE",
"282 21 CURVE",
"320 15 LINE",
"356 225 OFFCURVE",
"408 444 OFFCURVE",
"54 518 CURVE",
"51 519 OFFCURVE",
"49 516 OFFCURVE",
"48 514 CURVE",
"41 486 LINE",
"40 483 OFFCURVE",
"42 481 OFFCURVE",
"45 480 CURVE"
);
}
);
width = 420;
}
);
unicode = FEA3;
},
{
color = 6;
glyphname = "dal-ar";
layers = (
{
anchors = (
{
name = "#entry";
position = "{360, 0}";
},
{
name = top;
position = "{36, 512}";
}
);
background = {
paths = (
{
closed = 1;
nodes = (
"402 400 OFFCURVE",
"358 219 OFFCURVE",
"322 6 CURVE",
"360 0 LINE",
"396 211 OFFCURVE",
"448 430 OFFCURVE",
"89 503 CURVE",
"80 465 LINE"
);
}
);
};
layerId = "BA82AF6A-5289-49F9-B535-AE40A2A15B95";
paths = (
{
closed = 1;
nodes = (
"366 38 LINE",
"236 22 OFFCURVE",
"145 21 OFFCURVE",
"25 37 CURVE",
"25 0 LINE",
"123 -13 OFFCURVE",
"273 -13 OFFCURVE",
"360 0 CURVE"
);
},
{
closed = 1;
nodes = (
"402 400 OFFCURVE",
"358 219 OFFCURVE",
"322 6 CURVE",
"360 0 LINE",
"396 211 OFFCURVE",
"448 430 OFFCURVE",
"89 503 CURVE",
"80 465 LINE"
);
}
);
width = 401;
}
);
unicode = 062F;
},
{
color = 6;
glyphname = "reh-ar";
layers = (
{
anchors = (
{
name = "#entry";
position = "{96, 0}";
},
{
name = top;
position = "{91, 267}";
}
);
guideLines = (
{
position = "{38, -118}";
showMeasurement = 1;
}
);
layerId = "BA82AF6A-5289-49F9-B535-AE40A2A15B95";
paths = (
{
closed = 1;
nodes = (
"69 -134 OFFCURVE",
"133 31 OFFCURVE",
"121 184 CURVE",
"121 187 OFFCURVE",
"119 189 OFFCURVE",
"116 189 CURVE",
"88 186 LINE",
"86 186 OFFCURVE",
"83 183 OFFCURVE",
"83 180 CURVE",
"96 38 OFFCURVE",
"36 -113 OFFCURVE",
"-65 -205 CURVE SMOOTH",
"-67 -207 OFFCURVE",
"-68 -209 OFFCURVE",
"-66 -212 CURVE SMOOTH",
"-48 -232 LINE SMOOTH",
"-46 -235 OFFCURVE",
"-43 -235 OFFCURVE",
"-41 -233 CURVE SMOOTH"
);
}
);
width = 168;
}
);
unicode = 0631;
},
{
color = 6;
glyphname = "seen-ar";
layers = (
{
anchors = (
{
name = "#entry";
position = "{693, 0}";
},
{
name = top;
position = "{320, 231}";
}
);
background = {
paths = (
{
closed = 1;
nodes = (
"383 -7 OFFCURVE",
"505 -97 OFFCURVE",
"633 -48 CURVE SMOOTH",
"740 -7 OFFCURVE",
"782 151 OFFCURVE",
"742 364 CURVE SMOOTH",
"742 368 OFFCURVE",
"739 370 OFFCURVE",
"735 368 CURVE SMOOTH",
"708 357 LINE SMOOTH",
"706 356 OFFCURVE",
"704 354 OFFCURVE",
"705 352 CURVE SMOOTH",
"742 164 OFFCURVE",
"706 20 OFFCURVE",
"621 -13 CURVE SMOOTH",
"516 -53 OFFCURVE",
"422 20 OFFCURVE",
"422 149 CURVE SMOOTH",
"422 151 OFFCURVE",
"420 153 OFFCURVE",
"418 153 CURVE",
"389 157 LINE",
"385 158 OFFCURVE",
"383 155 OFFCURVE",
"383 151 CURVE SMOOTH"
);
},
{
closed = 1;
nodes = (
"383 -12 OFFCURVE",
"269 -33 OFFCURVE",
"269 102 CURVE SMOOTH",
"269 105 OFFCURVE",
"266 106 OFFCURVE",
"263 106 CURVE",
"236 103 LINE",
"234 103 OFFCURVE",
"231 101 OFFCURVE",
"231 98 CURVE SMOOTH",
"231 -90 OFFCURVE",
"422 -58 OFFCURVE",
"422 149 CURVE SMOOTH",
"422 151 OFFCURVE",
"420 153 OFFCURVE",
"418 153 CURVE",
"390 157 LINE",
"386 158 OFFCURVE",
"383 155 OFFCURVE",
"383 151 CURVE SMOOTH"
);
}
);
};
components = (
{
name = _tajweef.001;
transform = "{1, 0, 0, 1, 0, 68}";
}
);
guideLines = (
{
angle = 90;
position = "{456, -260}";
showMeasurement = 1;
}
);
layerId = "BA82AF6A-5289-49F9-B535-AE40A2A15B95";
paths = (
{
closed = 1;
nodes = (
"383 -7 OFFCURVE",
"505 -97 OFFCURVE",
"633 -48 CURVE SMOOTH",
"740 -7 OFFCURVE",
"782 151 OFFCURVE",
"742 364 CURVE SMOOTH",
"741 368 OFFCURVE",
"739 370 OFFCURVE",
"735 368 CURVE SMOOTH",
"708 357 LINE SMOOTH",
"706 356 OFFCURVE",
"705 354 OFFCURVE",
"705 352 CURVE SMOOTH",
"742 164 OFFCURVE",
"706 20 OFFCURVE",
"621 -13 CURVE SMOOTH",
"516 -54 OFFCURVE",
"422 20 OFFCURVE",
"422 149 CURVE SMOOTH",
"422 151 OFFCURVE",
"420 153 OFFCURVE",
"418 153 CURVE",
"389 157 LINE",
"385 158 OFFCURVE",
"383 155 OFFCURVE",
"383 151 CURVE SMOOTH"
);
},
{
closed = 1;
nodes = (
"383 -12 OFFCURVE",
"269 -33 OFFCURVE",
"269 102 CURVE SMOOTH",
"269 105 OFFCURVE",
"266 106 OFFCURVE",
"263 106 CURVE",
"236 103 LINE",
"234 103 OFFCURVE",
"231 101 OFFCURVE",
"231 98 CURVE SMOOTH",
"231 -90 OFFCURVE",
"422 -58 OFFCURVE",
"422 149 CURVE SMOOTH",
"422 151 OFFCURVE",
"420 153 OFFCURVE",
"418 153 CURVE",
"390 157 LINE",
"386 158 OFFCURVE",
"383 155 OFFCURVE",
"383 151 CURVE SMOOTH"
);
}
);
width = 757;
}
);
unicode = 0633;
},
{
color = 6;
glyphname = "seen-ar.init";
layers = (
{
anchors = (
{
name = "#entry";
position = "{652, 0}";
},
{
name = top;
position = "{298, 222}";
}
);
layerId = "BA82AF6A-5289-49F9-B535-AE40A2A15B95";
paths = (
{
closed = 1;
nodes = (
"367 13 OFFCURVE",
"479 -76 OFFCURVE",
"607 -28 CURVE SMOOTH",
"714 13 OFFCURVE",
"756 171 OFFCURVE",
"716 384 CURVE",
"716 388 OFFCURVE",
"713 390 OFFCURVE",
"709 388 CURVE",
"682 377 LINE",
"680 376 OFFCURVE",
"678 374 OFFCURVE",
"679 372 CURVE",
"716 184 OFFCURVE",
"680 40 OFFCURVE",
"595 7 CURVE SMOOTH",
"490 -34 OFFCURVE",
"403 40 OFFCURVE",
"396 169 CURVE",
"396 171 OFFCURVE",
"394 173 OFFCURVE",
"392 173 CURVE",
"363 177 LINE",
"359 178 OFFCURVE",
"357 175 OFFCURVE",
"357 171 CURVE"
);
},
{
closed = 1;
nodes = (
"367 6 OFFCURVE",
"246 -14 OFFCURVE",
"243 127 CURVE",
"205 123 LINE",
"210 -71 OFFCURVE",
"409 -40 OFFCURVE",
"396 169 CURVE",
"396 171 OFFCURVE",
"394 173 OFFCURVE",
"392 173 CURVE",
"364 177 LINE",
"360 178 OFFCURVE",
"357 175 OFFCURVE",
"357 171 CURVE"
);
},
{
closed = 1;
nodes = (
"192 28 OFFCURVE",
"86 39 OFFCURVE",
"-1 38 CURVE",
"-1 0 LINE",
"86 1 OFFCURVE",
"230 -13 OFFCURVE",
"243 119 CURVE",
"205 123 LINE"
);
}
);
width = 800;
}
);
unicode = FEB3;
},
{
color = 6;
glyphname = "sad-ar.init";
layers = (
{
anchors = (
{
name = "#entry";
position = "{189, 0}";
},
{
name = "#exit";
position = "{-1, 0}";
},
{
name = top;
position = "{86, 434}";
}
);
components = (
{
name = _connection5;
}
);
guideLines = (
{
position = "{256, 314}";
showMeasurement = 1;
},
{
angle = 90;
position = "{302, 299}";
showMeasurement = 1;
}
);
layerId = "BA82AF6A-5289-49F9-B535-AE40A2A15B95";
paths = (
{
closed = 1;
nodes = (
"163 -53 OFFCURVE",
"165 -52 OFFCURVE",
"164 -48 CURVE SMOOTH",
"155 -11 OFFCURVE",
"137 81 OFFCURVE",
"137 155 CURVE SMOOTH",
"137 333 OFFCURVE",
"216 451 OFFCURVE",
"335 451 CURVE SMOOTH",
"515 451 OFFCURVE",
"543 166 OFFCURVE",
"387 77 CURVE SMOOTH",
"310 33 OFFCURVE",
"187 38 OFFCURVE",
"116 38 CURVE",
"116 0 LINE",
"190 0 OFFCURVE",
"317 -4 OFFCURVE",
"401 42 CURVE SMOOTH",
"594 151 OFFCURVE",
"562 489 OFFCURVE",
"335 489 CURVE SMOOTH",
"193 489 OFFCURVE",
"99 355 OFFCURVE",
"99 155 CURVE SMOOTH",
"99 84 OFFCURVE",
"116 -14 OFFCURVE",
"127 -46 CURVE SMOOTH",
"128 -49 OFFCURVE",
"130 -50 OFFCURVE",
"132 -50 CURVE",
"160 -53 LINE"
);
},
{
closed = 1;
nodes = (
"127 38 LINE",
"127 0 LINE"
);
}
);
width = 528;
}
);
unicode = FEBB;
},
{
color = 6;
glyphname = "sad-ar.init.001";
layers = (
{
anchors = (
{
name = "#entry";
position = "{75, 0}";
},
{
name = "#exit";
position = "{0, 0}";
},
{
name = top;
position = "{-20, 506}";
}
);
guideLines = (
{
position = "{137, 314}";
showMeasurement = 1;
},
{
angle = 90;
position = "{183, 299}";
showMeasurement = 1;
}
);
layerId = "BA82AF6A-5289-49F9-B535-AE40A2A15B95";
paths = (
{
closed = 1;
nodes = (
"44 -53 OFFCURVE",
"46 -52 OFFCURVE",
"45 -48 CURVE SMOOTH",
"36 -11 OFFCURVE",
"18 81 OFFCURVE",
"18 155 CURVE SMOOTH",
"18 333 OFFCURVE",
"97 451 OFFCURVE",
"216 451 CURVE SMOOTH",
"396 451 OFFCURVE",
"424 166 OFFCURVE",
"268 77 CURVE SMOOTH",
"191 33 OFFCURVE",
"68 38 OFFCURVE",
"-3 38 CURVE",
"-3 0 LINE",
"71 0 OFFCURVE",
"198 -4 OFFCURVE",
"282 42 CURVE SMOOTH",
"475 151 OFFCURVE",
"443 489 OFFCURVE",
"216 489 CURVE SMOOTH",
"74 489 OFFCURVE",
"-20 355 OFFCURVE",
"-20 155 CURVE SMOOTH",
"-20 84 OFFCURVE",
"-3 -14 OFFCURVE",
"8 -46 CURVE SMOOTH",
"9 -49 OFFCURVE",
"11 -50 OFFCURVE",
"13 -50 CURVE",
"41 -53 LINE"
);
},
{
closed = 1;
nodes = (
"8 38 LINE",
"8 0 LINE"
);
}
);
width = 409;
}
);
},
{
glyphname = "sad-ar.init.alt";
layers = (
{
anchors = (
{
name = "#entry";
position = "{422, 0}";
},
{
name = "#exit";
position = "{137, 0}";
},
{
name = top;
position = "{174, 434}";
}
);
guideLines = (
{
position = "{344, 314}";
showMeasurement = 1;
},
{
angle = 90;
position = "{390, 299}";
showMeasurement = 1;
}
);
layerId = "BA82AF6A-5289-49F9-B535-AE40A2A15B95";
paths = (
{
closed = 1;
nodes = (
"251 -53 OFFCURVE",
"253 -52 OFFCURVE",
"252 -48 CURVE SMOOTH",
"243 -11 OFFCURVE",
"225 81 OFFCURVE",
"225 155 CURVE SMOOTH",
"225 333 OFFCURVE",
"304 451 OFFCURVE",
"423 451 CURVE SMOOTH",
"603 451 OFFCURVE",
"631 166 OFFCURVE",
"475 77 CURVE SMOOTH",
"398 33 OFFCURVE",
"275 38 OFFCURVE",
"204 38 CURVE",
"204 0 LINE",
"278 0 OFFCURVE",
"405 -4 OFFCURVE",
"489 42 CURVE SMOOTH",
"682 151 OFFCURVE",
"650 489 OFFCURVE",
"423 489 CURVE SMOOTH",
"281 489 OFFCURVE",
"187 355 OFFCURVE",
"187 155 CURVE SMOOTH",
"187 84 OFFCURVE",
"204 -14 OFFCURVE",
"215 -46 CURVE SMOOTH",
"216 -49 OFFCURVE",
"218 -50 OFFCURVE",
"220 -50 CURVE",
"248 -53 LINE"
);
},
{
closed = 1;
nodes = (
"215 38 LINE",
"163 38 OFFCURVE",
"131 50 OFFCURVE",
"104 90 CURVE",
"98 77 OFFCURVE",
"91 67 OFFCURVE",
"80 58 CURVE",
"105 14 OFFCURVE",
"147 0 OFFCURVE",
"215 0 CURVE"
);
},
{
closed = 1;
nodes = (
"130 0 OFFCURVE",
"165 52 OFFCURVE",
"165 261 CURVE SMOOTH",
"165 264 OFFCURVE",
"162 266 OFFCURVE",
"160 266 CURVE SMOOTH",
"133 269 LINE SMOOTH",
"130 269 OFFCURVE",
"127 267 OFFCURVE",
"127 264 CURVE SMOOTH",
"127 83 OFFCURVE",
"99 38 OFFCURVE",
"0 38 CURVE",
"0 0 LINE"
);
}
);
width = 616;
}
);
},
{
color = 6;
glyphname = "tah-ar";
layers = (
{
anchors = (
{
name = "#entry";
position = "{140, 0}";
},
{
name = "#exit";
position = "{0, 0}";
},
{
name = top;
position = "{168, 554}";
}
);
layerId = "BA82AF6A-5289-49F9-B535-AE40A2A15B95";
paths = (
{
closed = 1;
nodes = (
"82 196 LINE",
"94 215 OFFCURVE",
"92 400 OFFCURVE",
"105 607 CURVE SMOOTH",
"105 610 OFFCURVE",
"102 612 OFFCURVE",
"99 612 CURVE SMOOTH",
"71 610 LINE SMOOTH",
"69 610 OFFCURVE",
"67 608 OFFCURVE",
"67 605 CURVE SMOOTH",
"54 412 OFFCURVE",
"55 267 OFFCURVE",
"51 176 CURVE"
);
},
{
closed = 1;
nodes = (
"0 38 CURVE",
"0 0 LINE",
"211 -3 OFFCURVE",
"277 1 OFFCURVE",
"349 40 CURVE SMOOTH",
"543 146 OFFCURVE",
"510 487 OFFCURVE",
"283 487 CURVE SMOOTH",
"141 487 OFFCURVE",
"47 353 OFFCURVE",
"47 153 CURVE SMOOTH",
"47 82 OFFCURVE",
"64 -16 OFFCURVE",
"75 -48 CURVE SMOOTH",
"76 -51 OFFCURVE",
"78 -52 OFFCURVE",
"80 -52 CURVE",
"108 -55 LINE",
"111 -55 OFFCURVE",
"113 -54 OFFCURVE",
"112 -50 CURVE SMOOTH",
"103 -13 OFFCURVE",
"85 79 OFFCURVE",
"85 153 CURVE SMOOTH",
"85 331 OFFCURVE",
"164 449 OFFCURVE",
"283 449 CURVE SMOOTH",
"463 449 OFFCURVE",
"491 164 OFFCURVE",
"335 75 CURVE SMOOTH",
"271 38 OFFCURVE",
"213 35 OFFCURVE"
);
}
);
width = 476;
}
);
rightMetricsKey = "=|";
unicode = 0637;
},
{
color = 6;
glyphname = "tah-ar.001";
layers = (
{
anchors = (
{
name = "#entry";
position = "{322, 0}";
},
{
name = "#exit";
position = "{0, 0}";
},
{
name = bottom;
position = "{171, -133}";
},
{
name = top;
position = "{261, 554}";
}
);
layerId = "BA82AF6A-5289-49F9-B535-AE40A2A15B95";
paths = (
{
closed = 1;
nodes = (
"214 -10 OFFCURVE",
"216 -9 OFFCURVE",
"215 -5 CURVE SMOOTH",
"206 32 OFFCURVE",
"188 84 OFFCURVE",
"188 158 CURVE SMOOTH",
"188 337 OFFCURVE",
"267 451 OFFCURVE",
"386 451 CURVE SMOOTH",
"488 451 OFFCURVE",
"565 354 OFFCURVE",
"565 254 CURVE SMOOTH",
"565 122 OFFCURVE",
"443 39 OFFCURVE",
"326 39 CURVE SMOOTH",
"154 39 OFFCURVE",
"146 236 OFFCURVE",
"156 626 CURVE SMOOTH",
"156 629 OFFCURVE",
"153 631 OFFCURVE",
"150 631 CURVE SMOOTH",
"122 629 LINE SMOOTH",
"120 629 OFFCURVE",
"118 627 OFFCURVE",
"118 624 CURVE SMOOTH",
"111 282 OFFCURVE",
"119 -1 OFFCURVE",
"322 -1 CURVE SMOOTH",
"460 -1 OFFCURVE",
"601 89 OFFCURVE",
"601 260 CURVE SMOOTH",
"601 377 OFFCURVE",
"513 489 OFFCURVE",
"386 489 CURVE SMOOTH",
"244 489 OFFCURVE",
"150 358 OFFCURVE",
"150 158 CURVE SMOOTH",
"150 87 OFFCURVE",
"167 29 OFFCURVE",
"178 -3 CURVE SMOOTH",
"179 -6 OFFCURVE",
"181 -7 OFFCURVE",
"183 -7 CURVE",
"211 -10 LINE"
);
},
{
closed = 1;
nodes = (
"115 1 OFFCURVE",
"189 99 OFFCURVE",
"189 244 CURVE SMOOTH",
"189 247 OFFCURVE",
"186 248 OFFCURVE",
"184 248 CURVE",
"158 247 LINE",
"155 247 OFFCURVE",
"152 244 OFFCURVE",
"152 241 CURVE SMOOTH",
"152 120 OFFCURVE",
"93 39 OFFCURVE",
"0 38 CURVE",
"0 0 LINE"
);
}
);
width = 621;
}
);
},
{
color = 6;
glyphname = "ain-ar";
layers = (
{
anchors = (
{
name = top;
position = "{24, 423}";
}
);
layerId = "BA82AF6A-5289-49F9-B535-AE40A2A15B95";
paths = (
{
closed = 1;
nodes = (
"281 131 OFFCURVE",
"150 -81 OFFCURVE",
"357 -132 CURVE",
"367 -96 LINE",
"220 -59 OFFCURVE",
"309 81 OFFCURVE",
"430 36 CURVE",
"444 72 LINE"
);
},
{
closed = 1;
nodes = (
"432 460 OFFCURVE",
"373 485 OFFCURVE",
"319 486 CURVE",
"174 496 OFFCURVE",
"68 415 OFFCURVE",
"68 292 CURVE SMOOTH",
"68 177 OFFCURVE",
"169 73 OFFCURVE",
"323 28 CURVE",
"333 64 LINE",
"195 105 OFFCURVE",
"106 195 OFFCURVE",
"106 292 CURVE SMOOTH",
"106 392 OFFCURVE",
"192 456 OFFCURVE",
"317 448 CURVE",
"363 447 OFFCURVE",
"412 427 OFFCURVE",
"442 398 CURVE",
"468 424 LINE"
);
}
);
width = 476;
}
);
unicode = 0639;
},
{
glyphname = "ain-ar.fina";
layers = (
{
anchors = (
{
name = top;
position = "{20, 524}";
}
);
layerId = "BA82AF6A-5289-49F9-B535-AE40A2A15B95";
paths = (
{
closed = 1;
nodes = (
"546 0 LINE",
"546 38 LINE",
"528 38 LINE SMOOTH",
"399 38 OFFCURVE",
"58 138 OFFCURVE",
"58 428 CURVE",
"59 434 OFFCURVE",
"120 452 OFFCURVE",
"211 452 CURVE SMOOTH",
"342 452 OFFCURVE",
"459 418 OFFCURVE",
"483 388 CURVE",
"491 379 OFFCURVE",
"494 364 OFFCURVE",
"494 341 CURVE SMOOTH",
"494 213 OFFCURVE",
"431 127 OFFCURVE",
"330 56 CURVE",
"368 37 LINE",
"470 116 OFFCURVE",
"532 204 OFFCURVE",
"532 341 CURVE SMOOTH",
"532 372 OFFCURVE",
"526 395 OFFCURVE",
"513 412 CURVE SMOOTH",
"481 454 OFFCURVE",
"358 490 OFFCURVE",
"211 490 CURVE SMOOTH",
"114 490 OFFCURVE",
"21 476 OFFCURVE",
"20 436 CURVE SMOOTH",
"12 113 OFFCURVE",
"393 0 OFFCURVE",
"528 0 CURVE SMOOTH"
);
},
{
closed = 1;
nodes = (
"353 -143 OFFCURVE",
"306 -120 OFFCURVE",
"296 -85 CURVE SMOOTH",
"284 -43 OFFCURVE",
"324 8 OFFCURVE",
"369 35 CURVE",
"352 70 LINE",
"290 33 OFFCURVE",
"245 -38 OFFCURVE",
"262 -100 CURVE SMOOTH",
"276 -149 OFFCURVE",
"337 -182 OFFCURVE",
"418 -184 CURVE SMOOTH",
"421 -184 OFFCURVE",
"422 -183 OFFCURVE",
"423 -181 CURVE SMOOTH",
"431 -154 LINE SMOOTH",
"432 -151 OFFCURVE",
"430 -147 OFFCURVE",
"426 -147 CURVE SMOOTH"
);
}
);
width = 546;
}
);
unicode = FECA;
},
{
glyphname = "ain-ar.fina.001";
layers = (
{
layerId = "BA82AF6A-5289-49F9-B535-AE40A2A15B95";
paths = (
{
closed = 1;
nodes = (
"452 422 OFFCURVE",
"548 326 OFFCURVE",
"545 216 CURVE SMOOTH",
"542 105 OFFCURVE",
"445 37 OFFCURVE",
"311 48 CURVE SMOOTH",
"262 52 OFFCURVE",
"208 74 OFFCURVE",
"176 108 CURVE",
"152 78 LINE",
"194 40 OFFCURVE",
"260 15 OFFCURVE",
"315 12 CURVE SMOOTH",
"469 4 OFFCURVE",
"575 84 OFFCURVE",
"581 213 CURVE SMOOTH",
"587 349 OFFCURVE",
"481 461 OFFCURVE",
"316 494 CURVE SMOOTH",
"160 525 OFFCURVE",
"54 440 OFFCURVE",
"52 281 CURVE SMOOTH",
"50 146 OFFCURVE",
"157 34 OFFCURVE",
"319 0 CURVE",
"327 31 LINE",
"187 70 OFFCURVE",
"88 168 OFFCURVE",
"88 279 CURVE SMOOTH",
"88 413 OFFCURVE",
"181 486 OFFCURVE",
"312 455 CURVE SMOOTH"
);
},
{
closed = 1;
nodes = (
"487 2 OFFCURVE",
"547 -1 OFFCURVE",
"600 0 CURVE",
"600 38 LINE",
"538 36 OFFCURVE",
"479 41 OFFCURVE",
"453 45 CURVE SMOOTH",
"285 72 OFFCURVE",
"150 -119 OFFCURVE",
"376 -184 CURVE",
"384 -151 LINE",
"213 -109 OFFCURVE",
"316 33 OFFCURVE",
"450 9 CURVE SMOOTH"
);
}
);
width = 600;
}
);
},
{
glyphname = "ain-ar.medi";
layers = (
{
anchors = (
{
name = bottom;
position = "{275, -145}";
},
{
name = top;
position = "{27, 554}";
}
);
layerId = "BA82AF6A-5289-49F9-B535-AE40A2A15B95";
paths = (
{
closed = 1;
nodes = (
"25 0 OFFCURVE",
"102 1 OFFCURVE",
"117 1 CURVE SMOOTH",
"375 1 OFFCURVE",
"527 131 OFFCURVE",
"527 341 CURVE SMOOTH",
"527 372 OFFCURVE",
"521 395 OFFCURVE",
"508 412 CURVE SMOOTH",
"476 454 OFFCURVE",
"353 490 OFFCURVE",
"206 490 CURVE SMOOTH",
"109 490 OFFCURVE",
"16 476 OFFCURVE",
"15 436 CURVE SMOOTH",
"7 113 OFFCURVE",
"388 0 OFFCURVE",
"523 0 CURVE SMOOTH",
"551 0 LINE",
"551 38 LINE",
"523 38 LINE SMOOTH",
"394 38 OFFCURVE",
"53 138 OFFCURVE",
"53 428 CURVE",
"54 434 OFFCURVE",
"115 452 OFFCURVE",
"206 452 CURVE SMOOTH",
"337 452 OFFCURVE",
"454 418 OFFCURVE",
"478 388 CURVE",
"486 379 OFFCURVE",
"489 364 OFFCURVE",
"489 341 CURVE SMOOTH",
"489 153 OFFCURVE",
"355 39 OFFCURVE",
"117 39 CURVE SMOOTH",
"105 39 OFFCURVE",
"27 38 OFFCURVE",
"-1 38 CURVE",
"-1 0 LINE"
);
}
);
width = 550;
}
);
unicode = FECC;
},
{
glyphname = "ain-ar.medi.001";
layers = (
{
layerId = "BA82AF6A-5289-49F9-B535-AE40A2A15B95";
paths = (
{
closed = 1;
nodes = (
"452 419 OFFCURVE",
"546 323 OFFCURVE",
"543 213 CURVE SMOOTH",
"540 102 OFFCURVE",
"443 44 OFFCURVE",
"309 55 CURVE",
"315 18 LINE",
"469 10 OFFCURVE",
"575 84 OFFCURVE",
"581 213 CURVE SMOOTH",
"587 349 OFFCURVE",
"481 461 OFFCURVE",
"316 494 CURVE SMOOTH",
"160 525 OFFCURVE",
"54 440 OFFCURVE",
"52 281 CURVE SMOOTH",
"50 146 OFFCURVE",
"157 54 OFFCURVE",
"319 20 CURVE",
"327 51 LINE",
"187 90 OFFCURVE",
"93 170 OFFCURVE",
"93 281 CURVE SMOOTH",
"93 415 OFFCURVE",
"181 483 OFFCURVE",
"312 452 CURVE SMOOTH"
);
},
{
closed = 1;
nodes = (
"500 -2 OFFCURVE",
"558 -1 OFFCURVE",
"600 0 CURVE",
"600 38 LINE",
"556 37 OFFCURVE",
"487 34 OFFCURVE",
"453 42 CURVE SMOOTH",
"289 81 OFFCURVE",
"80 34 OFFCURVE",
"0 38 CURVE",
"0 0 LINE",
"134 -1 OFFCURVE",
"191 28 OFFCURVE",
"450 3 CURVE SMOOTH"
);
}
);
width = 600;
}
);
},
{
color = 6;
glyphname = "ain-ar.init";
layers = (
{
anchors = (
{
name = top;
position = "{58, 554}";
}
);
layerId = "BA82AF6A-5289-49F9-B535-AE40A2A15B95";
paths = (
{
closed = 1;
nodes = (
"258 -2 OFFCURVE",
"360 11 OFFCURVE",
"497 64 CURVE SMOOTH",
"498 65 OFFCURVE",
"499 67 OFFCURVE",
"498 69 CURVE SMOOTH",
"490 96 LINE SMOOTH",
"489 99 OFFCURVE",
"486 100 OFFCURVE",
"483 99 CURVE SMOOTH",
"341 47 OFFCURVE",
"241 35 OFFCURVE",
"-1 38 CURVE",
"-1 0 LINE"
);
},
{
closed = 1;
nodes = (
"123 72 OFFCURVE",
"36 181 OFFCURVE",
"38 320 CURVE SMOOTH",
"40 440 OFFCURVE",
"135 516 OFFCURVE",
"278 510 CURVE SMOOTH",
"327 508 OFFCURVE",
"388 485 OFFCURVE",
"429 453 CURVE SMOOTH",
"431 451 OFFCURVE",
"434 451 OFFCURVE",
"436 454 CURVE SMOOTH",
"454 476 LINE SMOOTH",
"456 479 OFFCURVE",
"455 481 OFFCURVE",
"453 483 CURVE SMOOTH",
"406 520 OFFCURVE",
"336 546 OFFCURVE",
"280 548 CURVE SMOOTH",
"116 554 OFFCURVE",
"2 462 OFFCURVE",
"0 320 CURVE SMOOTH",
"-2 163 OFFCURVE",
"97 38 OFFCURVE",
"249 6 CURVE",
"257 44 LINE"
);
}
);
width = 498;
}
);
unicode = FECB;
},
{
glyphname = "kaf-ar.init";
layers = (
{
anchors = (
{
name = "#entry";
position = "{154, 0}";
},
{
name = "#exit";
position = "{154, 0}";
},
{
name = bottom;
position = "{201, -83}";
},
{
name = top;
position = "{332, 500}";
}
);
components = (
{
name = _connection;
transform = "{2.89158, 0, 0, 1, 3, 0}";
}
);
layerId = "BA82AF6A-5289-49F9-B535-AE40A2A15B95";
paths = (
{
closed = 1;
nodes = (
"349 344 OFFCURVE",
"525 540 OFFCURVE",
"495 776 CURVE SMOOTH",
"493 796 OFFCURVE",
"487 824 OFFCURVE",
"481 847 CURVE",
"442 848 LINE",
"446 836 OFFCURVE",
"450 812 OFFCURVE",
"454 788 CURVE SMOOTH",
"482 567 OFFCURVE",
"318 382 OFFCURVE",
"44 324 CURVE",
"54 286 LINE"
);
},
{
closed = 1;
nodes = (
"153 0 LINE",
"387 0 OFFCURVE",
"306 379 OFFCURVE",
"44 324 CURVE",
"54 286 LINE",
"248 312 OFFCURVE",
"329 38 OFFCURVE",
"153 38 CURVE"
);
}
);
width = 498;
}
);
unicode = FEDB;
},
{
glyphname = "lam-ar";
layers = (
{
anchors = (
{
name = "#entry";
position = "{276, 0}";
},
{
name = top;
position = "{155, 85}";
}
);
layerId = "BA82AF6A-5289-49F9-B535-AE40A2A15B95";
paths = (
{
closed = 1;
nodes = (
"303 710 OFFCURVE",
"302 442 OFFCURVE",
"301 356 CURVE SMOOTH",
"300 318 OFFCURVE",
"300 281 OFFCURVE",
"300 250 CURVE SMOOTH",
"300 -8 OFFCURVE",
"164 -122 OFFCURVE",
"-46 -44 CURVE SMOOTH",
"-49 -43 OFFCURVE",
"-52 -45 OFFCURVE",
"-53 -47 CURVE SMOOTH",
"-63 -73 LINE SMOOTH",
"-64 -75 OFFCURVE",
"-63 -79 OFFCURVE",
"-60 -80 CURVE SMOOTH",
"176 -168 OFFCURVE",
"338 -34 OFFCURVE",
"338 250 CURVE SMOOTH",
"338 281 OFFCURVE",
"338 317 OFFCURVE",
"339 356 CURVE SMOOTH",
"340 442 OFFCURVE",
"341 711 OFFCURVE",
"338 797 CURVE",
"300 795 LINE"
);
}
);
width = 340;
}
);
unicode = 0644;
},
{
glyphname = "heh-ar.fina";
layers = (
{
anchors = (
{
name = "#entry";
position = "{532, 0}";
},
{
name = top;
position = "{95, 508}";
}
);
layerId = "BA82AF6A-5289-49F9-B535-AE40A2A15B95";
paths = (
{
closed = 1;
nodes = (
"419 77 OFFCURVE",
"364 56 OFFCURVE",
"283 56 CURVE SMOOTH",
"147 56 OFFCURVE",
"58 142 OFFCURVE",
"58 272 CURVE SMOOTH",
"58 377 OFFCURVE",
"140 466 OFFCURVE",
"238 466 CURVE SMOOTH",
"359 466 OFFCURVE",
"467 349 OFFCURVE",
"467 220 CURVE SMOOTH",
"467 132 OFFCURVE",
"438 32 OFFCURVE",
"399 0 CURVE",
"533 0 LINE",
"533 38 LINE",
"470 38 LINE",
"491 89 OFFCURVE",
"505 157 OFFCURVE",
"505 220 CURVE SMOOTH",
"505 369 OFFCURVE",
"380 504 OFFCURVE",
"238 504 CURVE SMOOTH",
"119 504 OFFCURVE",
"20 398 OFFCURVE",
"20 272 CURVE SMOOTH",
"20 121 OFFCURVE",
"126 18 OFFCURVE",
"283 18 CURVE SMOOTH",
"376 18 OFFCURVE",
"440 43 OFFCURVE",
"487 96 CURVE",
"459 122 LINE"
);
}
);
width = 533;
}
);
unicode = FEEA;
},
{
glyphname = "heh-ar.fina.001";
layers = (
{
anchors = (
{
name = top;
position = "{2, 500}";
}
);
components = (
{
name = _connection;
transform = "{4.54604, 0, 0, 1, 269, 0}";
},
{
name = _counter;
transform = "{1, 0, 0, 1, -10, -3}";
}
);
layerId = "BA82AF6A-5289-49F9-B535-AE40A2A15B95";
paths = (
{
closed = 0;
nodes = (
"137 583 LINE"
);
}
);
width = 505;
}
);
},
{
glyphname = "alefMaksura-ar";
layers = (
{
anchors = (
{
name = "#entry";
position = "{413, 453}";
},
{
name = bottom;
position = "{140, -243}";
},
{
name = top;
position = "{-33, -133}";
}
);
components = (
{
name = _tajweef.001;
transform = "{1, 0, 0, 1, 97, 0}";
}
);
layerId = "BA82AF6A-5289-49F9-B535-AE40A2A15B95";
paths = (
{
closed = 1;
nodes = (
"204 34 OFFCURVE",
"84 114 OFFCURVE",
"57 237 CURVE SMOOTH",
"32 353 OFFCURVE",
"106 445 OFFCURVE",
"249 475 CURVE SMOOTH",
"297 485 OFFCURVE",
"363 476 OFFCURVE",
"413 453 CURVE",
"429 487 LINE",
"373 514 OFFCURVE",
"297 524 OFFCURVE",
"241 513 CURVE SMOOTH",
"78 481 OFFCURVE",
"-10 367 OFFCURVE",
"19 229 CURVE SMOOTH",
"49 87 OFFCURVE",
"187 -4 OFFCURVE",
"361 0 CURVE",
"361 38 LINE"
);
}
);
width = 429;
}
);
unicode = 0649;
},
{
glyphname = "alefMaksura-ar.fina";
layers = (
{
anchors = (
{
name = "#entry";
position = "{517, 0}";
},
{
name = bottom;
position = "{43, -243}";
},
{
name = top;
position = "{122, 97}";
}
);
layerId = "BA82AF6A-5289-49F9-B535-AE40A2A15B95";
paths = (
{
closed = 1;
nodes = (
"44 -194 OFFCURVE",
"156 -292 OFFCURVE",
"282 -292 CURVE SMOOTH",
"439 -292 OFFCURVE",
"513 -163 OFFCURVE",
"467 31 CURVE",
"435 21 LINE",
"472 -144 OFFCURVE",
"411 -254 OFFCURVE",
"282 -254 CURVE SMOOTH",
"173 -254 OFFCURVE",
"76 -168 OFFCURVE",
"39 -38 CURVE",
"3 -48 LINE"
);
},
{
closed = 1;
nodes = (
"483 38 OFFCURVE",
"442 49 OFFCURVE",
"415 66 CURVE",
"395 34 LINE",
"428 14 OFFCURVE",
"477 0 OFFCURVE",
"517 0 CURVE",
"517 38 LINE"
);
}
);
width = 517;
}
);
unicode = FEF0;
},
{
glyphname = "alefMaksura-ar.fina.001";
layers = (
{
anchors = (
{
name = "#entry";
position = "{263, 0}";
},
{
name = bottom;
position = "{63, -223}";
},
{
name = top;
position = "{68, 54}";
}
);
components = (
{
name = _tajweef;
}
);
layerId = "BA82AF6A-5289-49F9-B535-AE40A2A15B95";
paths = (
{
closed = 0;
nodes = (
"86 -37 LINE"
);
}
);
width = 269;
}
);
},
{
glyphname = "yehHamzaabove-ar";
layers = (
{
components = (
{
name = "alefMaksura-ar";
transform = "{1, 0, 0, 1, 105, 0}";
},
{
name = "hamza-ar";
transform = "{1, 0, 0, 1, -66, -173}";
}
);
layerId = "BA82AF6A-5289-49F9-B535-AE40A2A15B95";
paths = (
{
closed = 0;
nodes = (
"247 256 LINE"
);
}
);
width = 432;
}
);
unicode = 0626;
},
{
glyphname = "yehHamzaabove-ar.medi";
layers = (
{
components = (
{
name = "behDotless-ar.medi";
},
{
name = "hamza-ar";
transform = "{1, 0, 0, 1, -78, 135}";
}
);
layerId = "BA82AF6A-5289-49F9-B535-AE40A2A15B95";
paths = (
{
closed = 0;
nodes = (
"79 146 LINE"
);
}
);
width = 137;
}
);
unicode = FE8C;
},
{
glyphname = "yehHamzaabove-ar.init";
layers = (
{
components = (
{
name = "behDotless-ar.init";
transform = "{1, 0, 0, 1, 1, 0}";
},
{
name = "hamza-ar";
transform = "{1, 0, 0, 1, -62, 132}";
}
);
layerId = "BA82AF6A-5289-49F9-B535-AE40A2A15B95";
paths = (
{
closed = 0;
nodes = (
"64 146 LINE"
);
}
);
width = 164;
}
);
unicode = FE8B;
},
{
glyphname = "lam_alefHamzaabove-ar";
layers = (
{
components = (
{
name = "lam_alef-ar";
transform = "{1, 0, 0, 1, 36, 0}";
},
{
name = "hamza-ar";
transform = "{1, 0, 0, 1, -129, 460}";
}
);
layerId = "BA82AF6A-5289-49F9-B535-AE40A2A15B95";
paths = (
{
closed = 0;
nodes = (
"304 282 LINE"
);
}
);
width = 425;
}
);
leftMetricsKey = "lam_alef-ar";
rightMetricsKey = "lam_alef-ar";
unicode = FEF7;
},
{
glyphname = "lam_alefHamzabelow-ar";
layers = (
{
components = (
{
name = "lam_alef-ar";
},
{
name = "hamza-ar";
transform = "{1, 0, 0, 1, -41, -375}";
}
);
layerId = "BA82AF6A-5289-49F9-B535-AE40A2A15B95";
paths = (
{
closed = 0;
nodes = (
"181 611 LINE"
);
}
);
width = 389;
}
);
leftMetricsKey = "lam_alef-ar";
rightMetricsKey = "lam_alef-ar";
unicode = FEF9;
},
{
glyphname = zero;
layers = (
{
layerId = "BA82AF6A-5289-49F9-B535-AE40A2A15B95";
paths = (
{
closed = 1;
nodes = (
"103 675 OFFCURVE",
"20 525 OFFCURVE",
"20 315 CURVE SMOOTH",
"20 118 OFFCURVE",
"100 -16 OFFCURVE",
"222 -16 CURVE SMOOTH",
"349 -16 OFFCURVE",
"425 110 OFFCURVE",
"426 318 CURVE SMOOTH",
"427 527 OFFCURVE",
"343 675 OFFCURVE",
"222 675 CURVE SMOOTH"
);
},
{
closed = 1;
nodes = (
"318 637 OFFCURVE",
"389 505 OFFCURVE",
"388 318 CURVE SMOOTH",
"387 131 OFFCURVE",
"325 22 OFFCURVE",
"222 22 CURVE SMOOTH",
"125 22 OFFCURVE",
"58 139 OFFCURVE",
"58 315 CURVE SMOOTH",
"58 503 OFFCURVE",
"128 637 OFFCURVE",
"222 637 CURVE SMOOTH"
);
}
);
width = 446;
}
);
rightMetricsKey = "=|";
unicode = 0030;
},
{
glyphname = one;
layers = (
{
layerId = "BA82AF6A-5289-49F9-B535-AE40A2A15B95";
paths = (
{
closed = 1;
nodes = (
"170 423 OFFCURVE",
"229 516 OFFCURVE",
"229 686 CURVE",
"191 684 LINE",
"191 531 OFFCURVE",
"142 454 OFFCURVE",
"34 428 CURVE",
"31 427 OFFCURVE",
"29 424 OFFCURVE",
"30 422 CURVE",
"36 394 LINE",
"37 391 OFFCURVE",
"39 390 OFFCURVE",
"42 390 CURVE"
);
},
{
closed = 1;
nodes = (
"237 222 OFFCURVE",
"237 449 OFFCURVE",
"229 686 CURVE",
"191 684 LINE",
"200 448 OFFCURVE",
"200 223 OFFCURVE",
"189 3 CURVE",
"227 1 LINE"
);
}
);
width = 265;
}
);
rightMetricsKey = "=|";
unicode = 0031;
},
{
glyphname = two;
layers = (
{
layerId = "BA82AF6A-5289-49F9-B535-AE40A2A15B95";
paths = (
{
closed = 1;
nodes = (
"355 41 OFFCURVE",
"550 194 OFFCURVE",
"550 385 CURVE SMOOTH",
"550 783 OFFCURVE",
"-14 792 OFFCURVE",
"33 394 CURVE",
"71 400 LINE",
"32 744 OFFCURVE",
"512 732 OFFCURVE",
"512 385 CURVE SMOOTH",
"512 214 OFFCURVE",
"331 76 OFFCURVE",
"59 41 CURVE",
"63 3 LINE"
);
},
{
closed = 1;
nodes = (
"365 30 OFFCURVE",
"196 31 OFFCURVE",
"59 41 CURVE",
"57 3 LINE",
"194 -7 OFFCURVE",
"365 -8 OFFCURVE",
"513 0 CURVE",
"511 38 LINE"
);
}
);
width = 580;
}
);
rightMetricsKey = "=|";
unicode = 0032;
},
{
glyphname = three;
layers = (
{
layerId = "BA82AF6A-5289-49F9-B535-AE40A2A15B95";
paths = (
{
closed = 1;
nodes = (
"188 634 LINE",
"461 706 OFFCURVE",
"468 438 OFFCURVE",
"245 399 CURVE",
"251 361 LINE",
"370 384 OFFCURVE",
"499 237 OFFCURVE",
"486 93 CURVE SMOOTH",
"473 -47 OFFCURVE",
"371 -140 OFFCURVE",
"241 -133 CURVE SMOOTH",
"143 -128 OFFCURVE",
"83 -40 OFFCURVE",
"52 7 CURVE",
"20 -13 LINE",
"51 -62 OFFCURVE",
"123 -165 OFFCURVE",
"239 -171 CURVE SMOOTH",
"390 -179 OFFCURVE",
"510 -71 OFFCURVE",
"524 89 CURVE SMOOTH",
"539 258 OFFCURVE",
"389 426 OFFCURVE",
"245 399 CURVE",
"251 361 LINE",
"520 408 OFFCURVE",
"509 758 OFFCURVE",
"178 670 CURVE"
);
}
);
width = 545;
}
);
rightMetricsKey = "=|";
unicode = 0033;
},
{
glyphname = four;
layers = (
{
layerId = "BA82AF6A-5289-49F9-B535-AE40A2A15B95";
paths = (
{
closed = 1;
nodes = (
"455 42 OFFCURVE",
"209 41 OFFCURVE",
"74 33 CURVE",
"179 162 OFFCURVE",
"415 476 OFFCURVE",
"513 675 CURVE",
"477 684 LINE",
"462 398 OFFCURVE",
"460 60 OFFCURVE",
"471 -171 CURVE",
"509 -169 LINE",
"498 60 OFFCURVE",
"500 396 OFFCURVE",
"515 682 CURVE",
"479 691 LINE",
"372 474 OFFCURVE",
"96 114 OFFCURVE",
"16 24 CURVE",
"32 -8 LINE",
"147 3 OFFCURVE",
"438 5 OFFCURVE",
"588 -4 CURVE",
"590 34 LINE"
);
}
);
width = 600;
}
);
unicode = 0034;
},
{
glyphname = five;
layers = (
{
layerId = "BA82AF6A-5289-49F9-B535-AE40A2A15B95";
paths = (
{
closed = 1;
nodes = (
"-20 -135 OFFCURVE",
"521 -125 OFFCURVE",
"521 247 CURVE SMOOTH",
"521 423 OFFCURVE",
"364 540 OFFCURVE",
"128 544 CURVE",
"123 646 LINE",
"239 642 OFFCURVE",
"355 641 OFFCURVE",
"471 644 CURVE",
"471 682 LINE",
"341 679 OFFCURVE",
"213 680 OFFCURVE",
"83 686 CURVE",
"92 506 LINE",
"327 513 OFFCURVE",
"483 409 OFFCURVE",
"483 247 CURVE SMOOTH",
"483 -73 OFFCURVE",
"24 -85 OFFCURVE",
"60 230 CURVE",
"22 234 LINE"
);
}
);
width = 541;
}
);
rightMetricsKey = "=|";
unicode = 0035;
},
{
glyphname = six;
layers = (
{
layerId = "BA82AF6A-5289-49F9-B535-AE40A2A15B95";
paths = (
{
closed = 1;
nodes = (
"78 356 OFFCURVE",
"209 447 OFFCURVE",
"364 415 CURVE SMOOTH",
"647 357 OFFCURVE",
"593 -14 OFFCURVE",
"303 -14 CURVE SMOOTH",
"119 -14 OFFCURVE",
"24 129 OFFCURVE",
"62 349 CURVE SMOOTH",
"100 567 OFFCURVE",
"270 681 OFFCURVE",
"489 635 CURVE",
"497 673 LINE",
"257 723 OFFCURVE",
"66 595 OFFCURVE",
"24 355 CURVE SMOOTH",
"-18 113 OFFCURVE",
"95 -52 OFFCURVE",
"303 -52 CURVE SMOOTH",
"639 -52 OFFCURVE",
"699 385 OFFCURVE",
"372 453 CURVE SMOOTH",
"196 489 OFFCURVE",
"43 383 OFFCURVE",
"19 207 CURVE",
"57 201 LINE"
);
}
);
width = 603;
}
);
rightMetricsKey = "=|";
unicode = 0036;
},
{
glyphname = seven;
layers = (
{
layerId = "BA82AF6A-5289-49F9-B535-AE40A2A15B95";
paths = (
{
closed = 1;
nodes = (
"288 189 OFFCURVE",
"321 272 OFFCURVE",
"536 671 CURVE",
"364 666 OFFCURVE",
"192 666 OFFCURVE",
"20 671 CURVE",
"20 633 LINE",
"171 628 OFFCURVE",
"321 628 OFFCURVE",
"472 633 CURVE",
"283 279 OFFCURVE",
"246 187 OFFCURVE",
"126 -118 CURVE",
"162 -132 LINE"
);
}
);
width = 556;
}
);
rightMetricsKey = "=|";
unicode = 0037;
},
{
glyphname = eight;
layers = (
{
layerId = "BA82AF6A-5289-49F9-B535-AE40A2A15B95";
paths = (
{
closed = 1;
nodes = (
"504 378 OFFCURVE",
"433 702 OFFCURVE",
"248 702 CURVE SMOOTH",
"185 702 OFFCURVE",
"132 639 OFFCURVE",
"129 562 CURVE",
"124 496 OFFCURVE",
"173 433 OFFCURVE",
"239 422 CURVE SMOOTH"
);
},
{
closed = 1;
nodes = (
"199 468 OFFCURVE",
"164 512 OFFCURVE",
"167 560 CURVE SMOOTH",
"171 617 OFFCURVE",
"207 664 OFFCURVE",
"248 664 CURVE SMOOTH",
"390 664 OFFCURVE",
"444 425 OFFCURVE",
"245 460 CURVE SMOOTH"
);
},
{
closed = 1;
nodes = (
"694 -131 OFFCURVE",
"643 486 OFFCURVE",
"237 455 CURVE SMOOTH",
"119 446 OFFCURVE",
"27 339 OFFCURVE",
"20 205 CURVE SMOOTH",
"14 83 OFFCURVE",
"102 -31 OFFCURVE",
"220 -51 CURVE SMOOTH"
);
},
{
closed = 1;
nodes = (
"128 3 OFFCURVE",
"52 100 OFFCURVE",
"58 203 CURVE SMOOTH",
"65 319 OFFCURVE",
"142 410 OFFCURVE",
"239 417 CURVE SMOOTH",
"593 443 OFFCURVE",
"640 -81 OFFCURVE",
"226 -13 CURVE SMOOTH"
);
}
);
width = 579;
}
);
rightMetricsKey = "=|";
unicode = 0038;
},
{
glyphname = nine;
layers = (
{
layerId = "BA82AF6A-5289-49F9-B535-AE40A2A15B95";
paths = (
{
closed = 1;
nodes = (
"389 -97 OFFCURVE",
"589 86 OFFCURVE",
"589 373 CURVE SMOOTH",
"589 793 OFFCURVE",
"-3 785 OFFCURVE",
"-3 379 CURVE SMOOTH",
"-3 90 OFFCURVE",
"399 -23 OFFCURVE",
"566 221 CURVE",
"534 242 LINE",
"387 34 OFFCURVE",
"37 131 OFFCURVE",
"37 385 CURVE SMOOTH",
"37 733 OFFCURVE",
"550 742 OFFCURVE",
"550 374 CURVE SMOOTH",
"550 108 OFFCURVE",
"368 -58 OFFCURVE",
"115 -3 CURVE",
"107 -41 LINE"
);
}
);
width = 603;
}
);
unicode = 0039;
},
{
glyphname = "decimalseparator-ar";
layers = (
{
layerId = "BA82AF6A-5289-49F9-B535-AE40A2A15B95";
paths = (
{
closed = 1;
nodes = (
"71 -32 OFFCURVE",
"93 79 OFFCURVE",
"0 79 CURVE SMOOTH",
"-51 79 OFFCURVE",
"-53 -5 OFFCURVE",
"5 -5 CURVE SMOOTH",
"17 -5 OFFCURVE",
"26 4 OFFCURVE",
"22 19 CURVE",
"50 0 OFFCURVE",
"13 -59 OFFCURVE",
"-25 -102 CURVE",
"11 -102 LINE"
);
}
);
width = 42;
}
);
unicode = 066B;
},
{
glyphname = "thousandseparator-ar";
layers = (
{
layerId = "BA82AF6A-5289-49F9-B535-AE40A2A15B95";
paths = (
{
closed = 1;
nodes = (
"24 67 OFFCURVE",
"14 34 OFFCURVE",
"10 21 CURVE SMOOTH",
"8 14 OFFCURVE",
"17 -23 OFFCURVE",
"20 -19 CURVE SMOOTH",
"37 3 OFFCURVE",
"56 49 OFFCURVE",
"66 71 CURVE SMOOTH",
"68 76 OFFCURVE",
"64 80 OFFCURVE",
"60 80 CURVE SMOOTH",
"32 80 LINE SMOOTH",
"31 80 OFFCURVE",
"28 79 OFFCURVE",
"28 77 CURVE SMOOTH"
);
}
);
width = 70;
}
);
unicode = 066C;
},
{
glyphname = "zero-ar";
layers = (
{
layerId = "BA82AF6A-5289-49F9-B535-AE40A2A15B95";
paths = (
{
closed = 1;
nodes = (
"84 2 OFFCURVE",
"100 17 OFFCURVE",
"100 36 CURVE SMOOTH",
"100 54 OFFCURVE",
"84 69 OFFCURVE",
"66 69 CURVE SMOOTH",
"48 69 OFFCURVE",
"32 54 OFFCURVE",
"32 36 CURVE SMOOTH",
"32 17 OFFCURVE",
"48 2 OFFCURVE",
"66 2 CURVE SMOOTH"
);
}
);
width = 137;
}
);
unicode = 0660;
},
{
color = 6;
glyphname = "one-ar";
layers = (
{
layerId = "BA82AF6A-5289-49F9-B535-AE40A2A15B95";
paths = (
{
closed = 1;
nodes = (
"59 419 OFFCURVE",
"73 149 OFFCURVE",
"68 -151 CURVE",
"106 -151 LINE",
"111 149 OFFCURVE",
"97 421 OFFCURVE",
"88 523 CURVE",
"50 519 LINE"
);
}
);
width = 98;
}
);
unicode = 0661;
},
{
color = 6;
glyphname = "two-ar";
layers = (
{
layerId = "BA82AF6A-5289-49F9-B535-AE40A2A15B95";
paths = (
{
closed = 1;
nodes = (
"111 575 OFFCURVE",
"-65 408 OFFCURVE",
"65 279 CURVE SMOOTH",
"211 135 OFFCURVE",
"263 21 OFFCURVE",
"250 -130 CURVE",
"288 -134 LINE",
"301 29 OFFCURVE",
"246 156 OFFCURVE",
"91 307 CURVE SMOOTH",
"-6 402 OFFCURVE",
"129 519 OFFCURVE",
"249 444 CURVE",
"269 476 LINE"
);
}
);
width = 310;
}
);
rightMetricsKey = "=|";
unicode = 0662;
},
{
color = 6;
glyphname = "three-ar";
layers = (
{
layerId = "BA82AF6A-5289-49F9-B535-AE40A2A15B95";
paths = (
{
closed = 1;
nodes = (
"220 -103 OFFCURVE",
"191 -2 OFFCURVE",
"141 88 CURVE SMOOTH",
"97 170 OFFCURVE",
"48 259 OFFCURVE",
"38 401 CURVE",
"0 399 LINE",
"12 156 OFFCURVE",
"207 228 OFFCURVE",
"194 437 CURVE",
"157 432 LINE",
"200 252 OFFCURVE",
"317 162 OFFCURVE",
"446 210 CURVE SMOOTH",
"577 260 OFFCURVE",
"637 441 OFFCURVE",
"599 663 CURVE",
"561 657 LINE",
"597 452 OFFCURVE",
"544 288 OFFCURVE",
"432 246 CURVE SMOOTH",
"327 206 OFFCURVE",
"232 283 OFFCURVE",
"193 440 CURVE",
"156 435 LINE",
"167 268 OFFCURVE",
"46 221 OFFCURVE",
"38 401 CURVE",
"0 399 LINE",
"11 248 OFFCURVE",
"63 152 OFFCURVE",
"108 70 CURVE SMOOTH",
"154 -14 OFFCURVE",
"181 -106 OFFCURVE",
"176 -159 CURVE",
"214 -163 LINE"
);
}
);
width = 610;
}
);
rightMetricsKey = "=|";
unicode = 0663;
},
{
color = 6;
glyphname = "four-ar";
layers = (
{
layerId = "BA82AF6A-5289-49F9-B535-AE40A2A15B95";
paths = (
{
closed = 1;
nodes = (
"140 584 OFFCURVE",
"-21 429 OFFCURVE",
"38 265 CURVE SMOOTH",
"78 156 OFFCURVE",
"210 92 OFFCURVE",
"369 105 CURVE",
"365 143 LINE",
"196 129 OFFCURVE",
"143 -102 OFFCURVE",
"355 -79 CURVE",
"351 -41 LINE",
"202 -58 OFFCURVE",
"239 95 OFFCURVE",
"369 105 CURVE",
"365 143 LINE",
"224 132 OFFCURVE",
"108 186 OFFCURVE",
"74 279 CURVE SMOOTH",
"27 408 OFFCURVE",
"152 536 OFFCURVE",
"353 513 CURVE",
"359 547 LINE"
);
}
);
width = 395;
}
);
rightMetricsKey = "=|";
unicode = 0664;
},
{
color = 6;
glyphname = "five-ar";
layers = (
{
layerId = "BA82AF6A-5289-49F9-B535-AE40A2A15B95";
paths = (
{
closed = 1;
nodes = (
"110 56 OFFCURVE",
"54 128 OFFCURVE",
"58 226 CURVE SMOOTH",
"65 387 OFFCURVE",
"125 494 OFFCURVE",
"204 494 CURVE SMOOTH",
"445 494 OFFCURVE",
"565 -10 OFFCURVE",
"200 43 CURVE SMOOTH"
);
},
{
closed = 1;
nodes = (
"625 -59 OFFCURVE",
"487 532 OFFCURVE",
"204 532 CURVE SMOOTH",
"101 532 OFFCURVE",
"28 410 OFFCURVE",
"20 228 CURVE SMOOTH",
"15 110 OFFCURVE",
"86 21 OFFCURVE",
"194 5 CURVE SMOOTH"
);
}
);
width = 489;
}
);
rightMetricsKey = "=|";
unicode = 0665;
},
{
color = 6;
glyphname = "six-ar";
layers = (
{
layerId = "BA82AF6A-5289-49F9-B535-AE40A2A15B95";
paths = (
{
closed = 1;
nodes = (
"274 380 OFFCURVE",
"280 156 OFFCURVE",
"311 -87 CURVE",
"353 -79 LINE",
"318 138 OFFCURVE",
"312 373 OFFCURVE",
"336 503 CURVE",
"298 509 LINE"
);
},
{
closed = 1;
nodes = (
"129 522 OFFCURVE",
"254 477 OFFCURVE",
"329 465 CURVE",
"335 503 LINE",
"264 514 OFFCURVE",
"143 557 OFFCURVE",
"36 610 CURVE",
"20 576 LINE"
);
}
);
width = 373;
}
);
rightMetricsKey = "=|";
unicode = 0666;
},
{
color = 6;
glyphname = "seven-ar";
layers = (
{
layerId = "BA82AF6A-5289-49F9-B535-AE40A2A15B95";
paths = (
{
closed = 1;
nodes = (
"220 63 OFFCURVE",
"147 321 OFFCURVE",
"54 521 CURVE",
"20 505 LINE",
"111 309 OFFCURVE",
"182 55 OFFCURVE",
"198 -129 CURVE",
"236 -125 LINE"
);
},
{
closed = 1;
nodes = (
"439 287 OFFCURVE",
"321 47 OFFCURVE",
"206 -101 CURVE",
"236 -125 LINE",
"354 28 OFFCURVE",
"474 272 OFFCURVE",
"537 489 CURVE",
"501 499 LINE"
);
}
);
width = 557;
}
);
rightMetricsKey = "=|";
unicode = 0667;
},
{
glyphname = "two-persian";
layers = (
{
layerId = "BA82AF6A-5289-49F9-B535-AE40A2A15B95";
paths = (
{
closed = 1;
nodes = (
"203 -93 OFFCURVE",
"178 -6 OFFCURVE",
"135 67 CURVE SMOOTH",
"89 143 OFFCURVE",
"38 229 OFFCURVE",
"38 408 CURVE SMOOTH",
"38 409 LINE",
"0 410 LINE",
"-5 222 OFFCURVE",
"91 130 OFFCURVE",
"236 186 CURVE SMOOTH",
"342 228 OFFCURVE",
"396 393 OFFCURVE",
"373 596 CURVE",
"335 592 LINE",
"356 407 OFFCURVE",
"309 256 OFFCURVE",
"222 222 CURVE SMOOTH",
"105 176 OFFCURVE",
"33 247 OFFCURVE",
"38 408 CURVE",
"0 409 LINE",
"0 408 LINE SMOOTH",
"0 219 OFFCURVE",
"57 124 OFFCURVE",
"102 47 CURVE SMOOTH",
"142 -18 OFFCURVE",
"165 -93 OFFCURVE",
"160 -144 CURVE",
"198 -145 LINE"
);
}
);
width = 378;
}
);
unicode = 06F2;
},
{
glyphname = "four-persian";
layers = (
{
layerId = "BA82AF6A-5289-49F9-B535-AE40A2A15B95";
paths = (
{
closed = 1;
nodes = (
"285 -119 OFFCURVE",
"285 -105 OFFCURVE",
"285 -92 CURVE SMOOTH",
"285 5 OFFCURVE",
"229 93 OFFCURVE",
"179 174 CURVE SMOOTH",
"130 253 OFFCURVE",
"85 325 OFFCURVE",
"88 398 CURVE",
"50 399 LINE",
"48 314 OFFCURVE",
"98 233 OFFCURVE",
"146 154 CURVE SMOOTH",
"195 73 OFFCURVE",
"245 -6 OFFCURVE",
"247 -93 CURVE",
"247 -92 OFFCURVE",
"247 -112 OFFCURVE",
"247 -112 CURVE",
"284 -123 LINE"
);
},
{
closed = 1;
nodes = (
"137 554 OFFCURVE",
"50 491 OFFCURVE",
"50 398 CURVE SMOOTH",
"50 263 OFFCURVE",
"190 173 OFFCURVE",
"398 173 CURVE",
"398 211 LINE",
"211 211 OFFCURVE",
"88 286 OFFCURVE",
"88 398 CURVE SMOOTH",
"88 469 OFFCURVE",
"157 516 OFFCURVE",
"264 516 CURVE",
"264 554 LINE"
);
}
);
width = 448;
}
);
unicode = 06F4;
},
{
glyphname = "five-persian";
layers = (
{
layerId = "BA82AF6A-5289-49F9-B535-AE40A2A15B95";
paths = (
{
closed = 1;
nodes = (
"560 27 OFFCURVE",
"471 -40 OFFCURVE",
"255 46 CURVE",
"165 -31 OFFCURVE",
"115 -13 OFFCURVE",
"97 92 CURVE SMOOTH",
"78 201 OFFCURVE",
"176 400 OFFCURVE",
"288 419 CURVE SMOOTH",
"358 431 OFFCURVE",
"439 354 OFFCURVE",
"487 224 CURVE SMOOTH"
);
},
{
closed = 1;
nodes = (
"469 386 OFFCURVE",
"372 473 OFFCURVE",
"282 457 CURVE SMOOTH",
"148 433 OFFCURVE",
"38 223 OFFCURVE",
"59 86 CURVE SMOOTH",
"79 -46 OFFCURVE",
"164 -78 OFFCURVE",
"253 6 CURVE",
"492 -85 OFFCURVE",
"605 12 OFFCURVE",
"523 238 CURVE SMOOTH"
);
}
);
width = 566;
}
);
unicode = 06F5;
},
{
glyphname = "six-persian";
layers = (
{
components = (
{
name = _ending;
transform = "{0.92809, 0.37235, 0.37235, -0.92809, 181, 46}";
}
);
layerId = "BA82AF6A-5289-49F9-B535-AE40A2A15B95";
paths = (
{
closed = 1;
nodes = (
"154 503 OFFCURVE",
"27 381 OFFCURVE",
"27 250 CURVE SMOOTH",
"27 77 OFFCURVE",
"219 10 OFFCURVE",
"432 106 CURVE",
"416 140 LINE",
"229 56 OFFCURVE",
"65 107 OFFCURVE",
"65 250 CURVE SMOOTH",
"65 359 OFFCURVE",
"174 464 OFFCURVE",
"283 458 CURVE",
"285 496 LINE"
);
}
);
width = 440;
}
);
unicode = 06F6;
},
{
glyphname = comma;
layers = (
{
layerId = "BA82AF6A-5289-49F9-B535-AE40A2A15B95";
paths = (
{
closed = 1;
nodes = (
"73 -30 OFFCURVE",
"102 42 OFFCURVE",
"102 95 CURVE",
"64 95 LINE",
"64 49 OFFCURVE",
"38 -13 OFFCURVE",
"0 -61 CURVE",
"30 -84 LINE"
);
}
);
width = 102;
}
);
unicode = 002C;
},
{
glyphname = exclam;
layers = (
{
components = (
{
name = i;
transform = "{1, 0, 0, -1, 0, 360}";
}
);
layerId = "BA82AF6A-5289-49F9-B535-AE40A2A15B95";
paths = (
{
closed = 0;
nodes = (
"28 157 LINE"
);
}
);
width = 56;
}
);
unicode = 0021;
},
{
glyphname = exclamdown;
layers = (
{
components = (
{
name = exclam;
transform = "{1, 0, 0, -1, 0, 46}";
}
);
layerId = "BA82AF6A-5289-49F9-B535-AE40A2A15B95";
paths = (
{
closed = 0;
nodes = (
"47 443 LINE"
);
}
);
width = 56;
}
);
unicode = 00A1;
},
{
glyphname = bullet;
layers = (
{
components = (
{
name = _counter_small;
transform = "{1, 0, 0, 1, 166, 301}";
}
);
layerId = "BA82AF6A-5289-49F9-B535-AE40A2A15B95";
paths = (
{
closed = 0;
nodes = (
"282 227 LINE"
);
},
{
closed = 1;
nodes = (
"322 148 OFFCURVE",
"353 179 OFFCURVE",
"353 217 CURVE SMOOTH",
"353 255 OFFCURVE",
"322 286 OFFCURVE",
"284 286 CURVE SMOOTH",
"246 286 OFFCURVE",
"215 255 OFFCURVE",
"215 217 CURVE SMOOTH",
"215 179 OFFCURVE",
"246 148 OFFCURVE",
"284 148 CURVE SMOOTH"
);
}
);
width = 600;
}
);
unicode = 2022;
},
{
glyphname = asterisk;
layers = (
{
layerId = "BA82AF6A-5289-49F9-B535-AE40A2A15B95";
paths = (
{
closed = 1;
nodes = (
"378 429 LINE",
"307 355 OFFCURVE",
"172 249 OFFCURVE",
"39 167 CURVE",
"43 159 OFFCURVE",
"48 151 OFFCURVE",
"53 144 CURVE",
"213 252 OFFCURVE",
"352 358 OFFCURVE",
"401 408 CURVE"
);
},
{
closed = 1;
nodes = (
"48 404 LINE",
"130 342 OFFCURVE",
"249 219 OFFCURVE",
"345 95 CURVE",
"352 99 OFFCURVE",
"359 105 OFFCURVE",
"365 111 CURVE",
"241 259 OFFCURVE",
"121 387 OFFCURVE",
"66 429 CURVE"
);
},
{
closed = 1;
nodes = (
"5 248 LINE",
"106 261 OFFCURVE",
"278 260 OFFCURVE",
"433 241 CURVE",
"435 250 OFFCURVE",
"436 259 OFFCURVE",
"436 268 CURVE",
"244 283 OFFCURVE",
"69 287 OFFCURVE",
"0 278 CURVE"
);
},
{
closed = 1;
nodes = (
"185 498 LINE",
"201 397 OFFCURVE",
"205 224 OFFCURVE",
"191 68 CURVE",
"200 66 OFFCURVE",
"209 66 OFFCURVE",
"218 65 CURVE",
"227 258 OFFCURVE",
"226 428 OFFCURVE",
"215 497 CURVE"
);
}
);
width = 436;
}
);
unicode = 002A;
},
{
glyphname = numbersign;
layers = (
{
layerId = "BA82AF6A-5289-49F9-B535-AE40A2A15B95";
paths = (
{
closed = 1;
nodes = (
"183 9 OFFCURVE",
"291 450 OFFCURVE",
"310 593 CURVE",
"272 598 LINE",
"253 458 OFFCURVE",
"147 19 OFFCURVE",
"118 -62 CURVE",
"154 -74 LINE"
);
},
{
closed = 1;
nodes = (
"461 9 OFFCURVE",
"569 450 OFFCURVE",
"588 593 CURVE",
"550 598 LINE",
"531 458 OFFCURVE",
"425 19 OFFCURVE",
"396 -62 CURVE",
"432 -74 LINE"
);
},
{
closed = 1;
nodes = (
"742 341 LINE",
"656 331 OFFCURVE",
"205 323 OFFCURVE",
"64 335 CURVE",
"61 297 LINE",
"204 284 OFFCURVE",
"658 293 OFFCURVE",
"745 303 CURVE"
);
},
{
closed = 1;
nodes = (
"681 130 LINE",
"595 119 OFFCURVE",
"144 112 OFFCURVE",
"3 124 CURVE",
"0 86 LINE",
"143 73 OFFCURVE",
"597 82 OFFCURVE",
"685 92 CURVE"
);
}
);
width = 745;
}
);
unicode = 0023;
},
{
glyphname = slash;
layers = (
{
layerId = "BA82AF6A-5289-49F9-B535-AE40A2A15B95";
paths = (
{
closed = 1;
nodes = (
"65 9 OFFCURVE",
"173 450 OFFCURVE",
"192 593 CURVE",
"154 598 LINE",
"135 458 OFFCURVE",
"29 19 OFFCURVE",
"0 -62 CURVE",
"36 -74 LINE"
);
}
);
width = 192;
}
);
unicode = 002F;
},
{
glyphname = parenleft;
layers = (
{
layerId = "BA82AF6A-5289-49F9-B535-AE40A2A15B95";
paths = (
{
closed = 1;
nodes = (
"109 -58 LINE",
"57 -14 OFFCURVE",
"27 126 OFFCURVE",
"34 294 CURVE SMOOTH",
"39 438 OFFCURVE",
"75 563 OFFCURVE",
"122 606 CURVE",
"97 629 LINE",
"46 582 OFFCURVE",
"8 451 OFFCURVE",
"1 302 CURVE SMOOTH",
"-7 107 OFFCURVE",
"33 -50 OFFCURVE",
"101 -91 CURVE"
);
}
);
width = 122;
}
);
unicode = 0028;
},
{
glyphname = braceleft;
layers = (
{
layerId = "BA82AF6A-5289-49F9-B535-AE40A2A15B95";
paths = (
{
closed = 1;
nodes = (
"45 -58 OFFCURVE",
"57 22 OFFCURVE",
"74 158 CURVE SMOOTH",
"91 290 OFFCURVE",
"71 461 OFFCURVE",
"32 524 CURVE",
"39 531 OFFCURVE",
"44 540 OFFCURVE",
"46 551 CURVE SMOOTH",
"69 661 OFFCURVE",
"63 703 OFFCURVE",
"96 703 CURVE SMOOTH",
"98 703 OFFCURVE",
"99 703 OFFCURVE",
"102 702 CURVE",
"112 739 LINE",
"107 740 OFFCURVE",
"101 741 OFFCURVE",
"96 741 CURVE SMOOTH",
"38 741 OFFCURVE",
"29 685 OFFCURVE",
"20 624 CURVE SMOOTH",
"16 595 OFFCURVE",
"13 549 OFFCURVE",
"0 549 CURVE",
"0 511 LINE",
"20 511 OFFCURVE",
"50 274 OFFCURVE",
"37 163 CURVE SMOOTH",
"20 27 OFFCURVE",
"3 -78 OFFCURVE",
"102 -134 CURVE",
"120 -101 LINE"
);
}
);
width = 120;
}
);
unicode = 007B;
},
{
glyphname = bracketleft;
layers = (
{
layerId = "BA82AF6A-5289-49F9-B535-AE40A2A15B95";
paths = (
{
closed = 1;
nodes = (
"39 -179 LINE",
"39 650 LINE",
"95 650 LINE",
"95 689 LINE",
"1 688 LINE",
"0 -217 LINE",
"150 -217 LINE",
"149 -179 LINE"
);
}
);
width = 150;
}
);
unicode = 005B;
},
{
glyphname = hyphen;
layers = (
{
components = (
{
name = _connection;
transform = "{3.7213, 0, 0, 1, 10, 250}";
}
);
layerId = "BA82AF6A-5289-49F9-B535-AE40A2A15B95";
paths = (
{
closed = 0;
nodes = (
"105 265 LINE"
);
}
);
width = 214;
}
);
unicode = 002D;
},
{
glyphname = endash;
layers = (
{
components = (
{
name = _connection;
transform = "{6.64415, 0, 0, 1, -2, 160}";
}
);
layerId = "BA82AF6A-5289-49F9-B535-AE40A2A15B95";
paths = (
{
closed = 0;
nodes = (
"196 138 LINE"
);
}
);
width = 345;
}
);
unicode = 2013;
},
{
glyphname = emdash;
layers = (
{
components = (
{
name = _connection;
transform = "{9.00969, 0, 0, 1, 0, 200}";
}
);
layerId = "BA82AF6A-5289-49F9-B535-AE40A2A15B95";
paths = (
{
closed = 0;
nodes = (
"209 228 LINE"
);
}
);
width = 469;
}
);
unicode = 2014;
},
{
glyphname = quotedbl;
layers = (
{
layerId = "BA82AF6A-5289-49F9-B535-AE40A2A15B95";
paths = (
{
closed = 1;
nodes = (
"44 605 OFFCURVE",
"43 655 OFFCURVE",
"38 700 CURVE",
"0 696 LINE",
"4 652 OFFCURVE",
"6 605 OFFCURVE",
"3 579 CURVE",
"41 575 LINE"
);
},
{
closed = 1;
nodes = (
"97 604 OFFCURVE",
"96 654 OFFCURVE",
"91 699 CURVE",
"53 699 LINE",
"57 655 OFFCURVE",
"59 598 OFFCURVE",
"56 572 CURVE",
"94 574 LINE"
);
}
);
width = 96;
}
);
unicode = 0022;
},
{
glyphname = quotesingle;
layers = (
{
layerId = "BA82AF6A-5289-49F9-B535-AE40A2A15B95";
paths = (
{
closed = 1;
nodes = (
"44 594 OFFCURVE",
"43 644 OFFCURVE",
"38 689 CURVE",
"0 689 LINE",
"4 645 OFFCURVE",
"6 588 OFFCURVE",
"3 562 CURVE",
"41 564 LINE"
);
}
);
width = 43;
}
);
unicode = 0027;
},
{
glyphname = "comma-ar";
layers = (
{
layerId = "BA82AF6A-5289-49F9-B535-AE40A2A15B95";
paths = (
{
closed = 1;
nodes = (
"-7 88 OFFCURVE",
"-29 -23 OFFCURVE",
"64 -23 CURVE SMOOTH",
"115 -23 OFFCURVE",
"117 61 OFFCURVE",
"59 61 CURVE SMOOTH",
"47 61 OFFCURVE",
"38 52 OFFCURVE",
"42 37 CURVE",
"14 56 OFFCURVE",
"51 115 OFFCURVE",
"89 158 CURVE",
"53 158 LINE"
);
}
);
width = 98;
}
);
unicode = 060C;
},
{
color = 6;
glyphname = "question-ar";
layers = (
{
components = (
{
name = "dotbelow-ar";
transform = "{1, 0, 0, 1, 199, 97}";
}
);
layerId = "BA82AF6A-5289-49F9-B535-AE40A2A15B95";
paths = (
{
closed = 1;
nodes = (
"266 221 OFFCURVE",
"222 323 OFFCURVE",
"132 378 CURVE SMOOTH",
"-40 483 OFFCURVE",
"118 682 OFFCURVE",
"285 564 CURVE",
"307 596 LINE",
"100 742 OFFCURVE",
"-104 481 OFFCURVE",
"112 346 CURVE SMOOTH",
"189 298 OFFCURVE",
"227 211 OFFCURVE",
"219 99 CURVE",
"257 97 LINE"
);
}
);
width = 327;
}
);
unicode = 061F;
},
{
color = 6;
glyphname = "asterisk-ar";
layers = (
{
layerId = "BA82AF6A-5289-49F9-B535-AE40A2A15B95";
paths = (
{
closed = 1;
nodes = (
"362 -17 OFFCURVE",
"241 108 OFFCURVE",
"156 172 CURVE",
"134 142 LINE",
"215 80 OFFCURVE",
"333 -43 OFFCURVE",
"427 -164 CURVE",
"457 -140 LINE"
);
},
{
closed = 1;
nodes = (
"276 -18 OFFCURVE",
"415 90 OFFCURVE",
"489 169 CURVE",
"461 195 LINE",
"390 118 OFFCURVE",
"254 14 OFFCURVE",
"126 -64 CURVE",
"146 -96 LINE"
);
},
{
closed = 1;
nodes = (
"268 186 OFFCURVE",
"276 8 OFFCURVE",
"273 -177 CURVE",
"311 -177 LINE",
"314 10 OFFCURVE",
"306 190 OFFCURVE",
"291 263 CURVE",
"253 255 LINE"
);
}
);
width = 600;
}
);
unicode = 066D;
},
{
color = 6;
glyphname = "parenleft-ar";
layers = (
{
components = (
{
name = "asterisk-ar";
transform = "{-0.05044, 0.99873, -0.99873, -0.05044, 269, -18}";
}
);
layerId = "BA82AF6A-5289-49F9-B535-AE40A2A15B95";
paths = (
{
closed = 1;
nodes = (
"231 104 OFFCURVE",
"222 415 OFFCURVE",
"242 647 CURVE",
"204 651 LINE",
"185 415 OFFCURVE",
"193 101 OFFCURVE",
"224 -136 CURVE",
"262 -132 LINE"
);
}
);
width = 436;
}
);
unicode = FD3E;
},
{
glyphname = currency;
layers = (
{
components = (
{
name = o;
transform = "{1, 0, 0, 1, 92, 0}";
}
);
layerId = "BA82AF6A-5289-49F9-B535-AE40A2A15B95";
paths = (
{
closed = 1;
nodes = (
"429 412 LINE",
"455 384 LINE",
"586 506 LINE",
"560 534 LINE"
);
},
{
closed = 1;
nodes = (
"161 393 LINE",
"189 419 LINE",
"51 566 LINE",
"23 540 LINE"
);
},
{
closed = 1;
nodes = (
"187 74 LINE",
"163 104 LINE",
"20 -10 LINE",
"44 -40 LINE"
);
},
{
closed = 1;
nodes = (
"459 90 LINE",
"433 62 LINE",
"541 -39 LINE",
"567 -11 LINE"
);
}
);
width = 606;
}
);
rightMetricsKey = "=|";
unicode = 00A4;
},
{
glyphname = dollar;
layers = (
{
components = (
{
name = S;
}
);
layerId = "BA82AF6A-5289-49F9-B535-AE40A2A15B95";
paths = (
{
closed = 1;
nodes = (
"235 31 OFFCURVE",
"240 184 OFFCURVE",
"241 278 CURVE SMOOTH",
"242 416 OFFCURVE",
"238 606 OFFCURVE",
"238 747 CURVE SMOOTH",
"238 750 OFFCURVE",
"235 752 OFFCURVE",
"233 752 CURVE SMOOTH",
"205 752 LINE SMOOTH",
"202 752 OFFCURVE",
"200 750 OFFCURVE",
"200 747 CURVE SMOOTH",
"200 604 OFFCURVE",
"204 414 OFFCURVE",
"203 278 CURVE SMOOTH",
"202 186 OFFCURVE",
"197 31 OFFCURVE",
"197 -66 CURVE SMOOTH",
"197 -69 OFFCURVE",
"199 -71 OFFCURVE",
"202 -71 CURVE SMOOTH",
"230 -71 LINE SMOOTH",
"232 -71 OFFCURVE",
"235 -69 OFFCURVE",
"235 -66 CURVE SMOOTH"
);
}
);
width = 439;
}
);
unicode = 0024;
},
{
glyphname = sterling;
layers = (
{
components = (
{
name = bar;
transform = "{0, 1, -0.79841, 0, 521, 310}";
}
);
layerId = "BA82AF6A-5289-49F9-B535-AE40A2A15B95";
paths = (
{
closed = 1;
nodes = (
"398 28 OFFCURVE",
"235 29 OFFCURVE",
"73 39 CURVE",
"73 1 LINE",
"335 -9 OFFCURVE",
"229 264 OFFCURVE",
"178 387 CURVE SMOOTH",
"168 411 OFFCURVE",
"161 429 OFFCURVE",
"158 441 CURVE SMOOTH",
"122 584 OFFCURVE",
"195 698 OFFCURVE",
"327 698 CURVE SMOOTH",
"446 698 OFFCURVE",
"494 652 OFFCURVE",
"506 648 CURVE",
"518 684 LINE",
"506 688 OFFCURVE",
"449 736 OFFCURVE",
"327 736 CURVE SMOOTH",
"169 736 OFFCURVE",
"74 595 OFFCURVE",
"121 431 CURVE SMOOTH",
"125 417 OFFCURVE",
"133 396 OFFCURVE",
"143 373 CURVE SMOOTH",
"245 138 OFFCURVE",
"225 39 OFFCURVE",
"73 39 CURVE",
"73 1 LINE",
"236 -10 OFFCURVE",
"398 -10 OFFCURVE",
"561 -1 CURVE",
"560 38 LINE"
);
}
);
width = 581;
}
);
rightMetricsKey = "=|";
unicode = 00A3;
},
{
glyphname = plus;
layers = (
{
layerId = "BA82AF6A-5289-49F9-B535-AE40A2A15B95";
paths = (
{
closed = 1;
nodes = (
"326 246 OFFCURVE",
"173 245 OFFCURVE",
"20 247 CURVE",
"20 209 LINE",
"187 207 OFFCURVE",
"338 208 OFFCURVE",
"480 214 CURVE",
"478 252 LINE"
);
},
{
closed = 1;
nodes = (
"239 316 OFFCURVE",
"244 163 OFFCURVE",
"246 10 CURVE",
"284 11 LINE",
"281 178 OFFCURVE",
"277 329 OFFCURVE",
"267 470 CURVE",
"229 467 LINE"
);
}
);
width = 500;
}
);
rightMetricsKey = "=|";
unicode = 002B;
},
{
glyphname = minus;
layers = (
{
layerId = "BA82AF6A-5289-49F9-B535-AE40A2A15B95";
paths = (
{
closed = 1;
nodes = (
"326 246 OFFCURVE",
"173 245 OFFCURVE",
"20 247 CURVE",
"20 209 LINE",
"187 207 OFFCURVE",
"338 208 OFFCURVE",
"480 214 CURVE",
"478 252 LINE"
);
}
);
width = 500;
}
);
rightMetricsKey = "=|";
unicode = 2212;
},
{
glyphname = divide;
layers = (
{
components = (
{
name = "dotabove-ar";
transform = "{1, 0, 0, 1, 228, -284}";
},
{
name = "dotabove-ar";
transform = "{1, 0, 0, 1, 224, -25}";
}
);
layerId = "BA82AF6A-5289-49F9-B535-AE40A2A15B95";
paths = (
{
closed = 1;
nodes = (
"326 246 OFFCURVE",
"173 245 OFFCURVE",
"20 247 CURVE",
"20 209 LINE",
"187 207 OFFCURVE",
"338 208 OFFCURVE",
"480 214 CURVE",
"478 252 LINE"
);
}
);
width = 500;
}
);
rightMetricsKey = "=|";
unicode = 00F7;
},
{
glyphname = equal;
layers = (
{
layerId = "BA82AF6A-5289-49F9-B535-AE40A2A15B95";
paths = (
{
closed = 1;
nodes = (
"326 246 OFFCURVE",
"173 245 OFFCURVE",
"20 247 CURVE",
"20 209 LINE",
"187 207 OFFCURVE",
"338 208 OFFCURVE",
"480 214 CURVE",
"478 252 LINE"
);
},
{
closed = 1;
nodes = (
"326 127 OFFCURVE",
"173 126 OFFCURVE",
"20 128 CURVE",
"20 90 LINE",
"187 88 OFFCURVE",
"338 89 OFFCURVE",
"480 95 CURVE",
"478 133 LINE"
);
}
);
width = 500;
}
);
rightMetricsKey = "=|";
unicode = 003D;
},
{
glyphname = notequal;
layers = (
{
components = (
{
name = equal;
}
);
layerId = "BA82AF6A-5289-49F9-B535-AE40A2A15B95";
paths = (
{
closed = 1;
nodes = (
"292 282 OFFCURVE",
"175 42 OFFCURVE",
"74 -114 CURVE",
"106 -134 LINE",
"208 24 OFFCURVE",
"327 267 OFFCURVE",
"404 474 CURVE",
"368 488 LINE"
);
}
);
width = 500;
}
);
unicode = 2260;
},
{
glyphname = greater;
layers = (
{
layerId = "BA82AF6A-5289-49F9-B535-AE40A2A15B95";
paths = (
{
closed = 1;
nodes = (
"206 15 OFFCURVE",
"429 152 OFFCURVE",
"595 273 CURVE",
"591 306 LINE",
"457 361 OFFCURVE",
"254 472 OFFCURVE",
"82 584 CURVE",
"62 552 LINE",
"223 447 OFFCURVE",
"410 344 OFFCURVE",
"546 284 CURVE",
"385 170 OFFCURVE",
"179 43 OFFCURVE",
"20 -38 CURVE",
"38 -72 LINE"
);
}
);
width = 615;
}
);
rightMetricsKey = "=|";
unicode = 003E;
},
{
glyphname = greaterequal;
layers = (
{
components = (
{
name = greater;
}
);
layerId = "BA82AF6A-5289-49F9-B535-AE40A2A15B95";
paths = (
{
closed = 1;
nodes = (
"451 94 OFFCURVE",
"243 -40 OFFCURVE",
"85 -127 CURVE",
"106 -159 LINE",
"277 -63 OFFCURVE",
"486 72 OFFCURVE",
"628 178 CURVE",
"605 208 LINE"
);
}
);
width = 648;
}
);
rightMetricsKey = "=|";
unicode = 2265;
},
{
glyphname = plusminus;
layers = (
{
layerId = "BA82AF6A-5289-49F9-B535-AE40A2A15B95";
paths = (
{
closed = 1;
nodes = (
"326 271 OFFCURVE",
"173 270 OFFCURVE",
"20 272 CURVE",
"20 234 LINE",
"187 232 OFFCURVE",
"338 233 OFFCURVE",
"480 239 CURVE",
"478 277 LINE"
);
},
{
closed = 1;
nodes = (
"239 257 OFFCURVE",
"246 145 OFFCURVE",
"246 130 CURVE",
"284 131 LINE",
"283 163 OFFCURVE",
"277 274 OFFCURVE",
"267 410 CURVE",
"229 407 LINE"
);
},
{
closed = 1;
nodes = (
"174 39 OFFCURVE",
"327 40 OFFCURVE",
"480 38 CURVE",
"480 76 LINE",
"313 78 OFFCURVE",
"162 77 OFFCURVE",
"20 71 CURVE",
"22 33 LINE"
);
}
);
width = 500;
}
);
rightMetricsKey = "=|";
unicode = 00B1;
},
{
glyphname = approxequal;
layers = (
{
layerId = "BA82AF6A-5289-49F9-B535-AE40A2A15B95";
paths = (
{
closed = 1;
nodes = (
"469 349 OFFCURVE",
"439 312 OFFCURVE",
"399 312 CURVE SMOOTH",
"348 312 OFFCURVE",
"320 344 OFFCURVE",
"287 380 CURVE SMOOTH",
"257 415 OFFCURVE",
"222 455 OFFCURVE",
"164 455 CURVE SMOOTH",
"77 455 OFFCURVE",
"20 392 OFFCURVE",
"20 297 CURVE",
"58 297 LINE",
"58 371 OFFCURVE",
"99 417 OFFCURVE",
"164 417 CURVE SMOOTH",
"205 417 OFFCURVE",
"229 390 OFFCURVE",
"259 355 CURVE SMOOTH",
"291 319 OFFCURVE",
"331 274 OFFCURVE",
"399 274 CURVE SMOOTH",
"460 274 OFFCURVE",
"504 326 OFFCURVE",
"515 408 CURVE",
"477 412 LINE"
);
},
{
closed = 1;
nodes = (
"469 189 OFFCURVE",
"439 152 OFFCURVE",
"399 152 CURVE SMOOTH",
"348 152 OFFCURVE",
"320 184 OFFCURVE",
"287 220 CURVE SMOOTH",
"256 254 OFFCURVE",
"222 295 OFFCURVE",
"164 295 CURVE SMOOTH",
"77 295 OFFCURVE",
"20 232 OFFCURVE",
"20 137 CURVE",
"58 137 LINE",
"58 211 OFFCURVE",
"99 257 OFFCURVE",
"164 257 CURVE SMOOTH",
"205 257 OFFCURVE",
"229 230 OFFCURVE",
"259 195 CURVE SMOOTH",
"290 158 OFFCURVE",
"331 114 OFFCURVE",
"399 114 CURVE SMOOTH",
"460 114 OFFCURVE",
"504 166 OFFCURVE",
"515 248 CURVE",
"477 252 LINE"
);
}
);
width = 535;
}
);
rightMetricsKey = "=|";
unicode = 2248;
},
{
glyphname = asciitilde;
layers = (
{
layerId = "BA82AF6A-5289-49F9-B535-AE40A2A15B95";
paths = (
{
closed = 1;
nodes = (
"469 221 OFFCURVE",
"439 184 OFFCURVE",
"399 184 CURVE SMOOTH",
"348 184 OFFCURVE",
"320 216 OFFCURVE",
"287 252 CURVE SMOOTH",
"256 286 OFFCURVE",
"222 327 OFFCURVE",
"164 327 CURVE SMOOTH",
"77 327 OFFCURVE",
"20 264 OFFCURVE",
"20 169 CURVE",
"58 169 LINE",
"58 243 OFFCURVE",
"99 289 OFFCURVE",
"164 289 CURVE SMOOTH",
"205 289 OFFCURVE",
"229 262 OFFCURVE",
"259 227 CURVE SMOOTH",
"290 190 OFFCURVE",
"331 146 OFFCURVE",
"399 146 CURVE SMOOTH",
"460 146 OFFCURVE",
"504 198 OFFCURVE",
"515 280 CURVE",
"477 284 LINE"
);
}
);
width = 535;
}
);
rightMetricsKey = "=|";
unicode = 007E;
},
{
glyphname = logicalnot;
layers = (
{
layerId = "BA82AF6A-5289-49F9-B535-AE40A2A15B95";
paths = (
{
closed = 1;
nodes = (
"454 128 OFFCURVE",
"448 216 OFFCURVE",
"448 305 CURVE",
"428 324 LINE",
"293 318 OFFCURVE",
"157 317 OFFCURVE",
"22 321 CURVE",
"20 283 LINE",
"151 279 OFFCURVE",
"281 280 OFFCURVE",
"410 285 CURVE",
"411 202 OFFCURVE",
"417 118 OFFCURVE",
"428 33 CURVE",
"466 39 LINE"
);
}
);
width = 486;
}
);
rightMetricsKey = "=|";
unicode = 00AC;
},
{
glyphname = asciicircum;
layers = (
{
layerId = "BA82AF6A-5289-49F9-B535-AE40A2A15B95";
paths = (
{
closed = 1;
nodes = (
"324 716 LINE",
"163 511 LINE",
"193 487 LINE",
"328 660 LINE",
"506 492 LINE",
"532 520 LINE"
);
}
);
width = 600;
}
);
unicode = 005E;
},
{
glyphname = emptyset;
layers = (
{
layerId = "BA82AF6A-5289-49F9-B535-AE40A2A15B95";
paths = (
{
closed = 1;
nodes = (
"131 662 OFFCURVE",
"20 524 OFFCURVE",
"20 316 CURVE SMOOTH",
"20 115 OFFCURVE",
"127 -19 OFFCURVE",
"287 -19 CURVE SMOOTH",
"456 -19 OFFCURVE",
"569 111 OFFCURVE",
"569 305 CURVE SMOOTH",
"569 519 OFFCURVE",
"461 662 OFFCURVE",
"298 662 CURVE SMOOTH"
);
},
{
closed = 1;
nodes = (
"438 624 OFFCURVE",
"531 496 OFFCURVE",
"531 305 CURVE SMOOTH",
"531 133 OFFCURVE",
"433 19 OFFCURVE",
"287 19 CURVE SMOOTH",
"150 19 OFFCURVE",
"58 138 OFFCURVE",
"58 316 CURVE SMOOTH",
"58 501 OFFCURVE",
"154 624 OFFCURVE",
"298 624 CURVE SMOOTH"
);
},
{
closed = 1;
nodes = (
"431 565 OFFCURVE",
"156 84 OFFCURVE",
"81 -49 CURVE",
"114 -67 LINE",
"196 78 OFFCURVE",
"471 558 OFFCURVE",
"533 685 CURVE",
"499 701 LINE"
);
}
);
width = 589;
}
);
rightMetricsKey = "=|";
unicode = 2205;
},
{
glyphname = infinity;
layers = (
{
layerId = "BA82AF6A-5289-49F9-B535-AE40A2A15B95";
paths = (
{
closed = 1;
nodes = (
"294 67 OFFCURVE",
"366 165 OFFCURVE",
"462 228 CURVE SMOOTH",
"555 289 OFFCURVE",
"641 346 OFFCURVE",
"701 346 CURVE SMOOTH",
"857 346 OFFCURVE",
"862 105 OFFCURVE",
"713 105 CURVE SMOOTH",
"614 105 OFFCURVE",
"550 195 OFFCURVE",
"452 258 CURVE SMOOTH",
"354 321 OFFCURVE",
"251 386 OFFCURVE",
"172 386 CURVE SMOOTH",
"-24 386 OFFCURVE",
"-41 67 OFFCURVE",
"185 67 CURVE SMOOTH"
);
},
{
closed = 1;
nodes = (
"10 105 OFFCURVE",
"24 348 OFFCURVE",
"172 348 CURVE SMOOTH",
"240 348 OFFCURVE",
"333 288 OFFCURVE",
"431 226 CURVE SMOOTH",
"530 163 OFFCURVE",
"603 67 OFFCURVE",
"713 67 CURVE SMOOTH",
"912 67 OFFCURVE",
"907 387 OFFCURVE",
"701 384 CURVE SMOOTH",
"630 383 OFFCURVE",
"534 320 OFFCURVE",
"441 260 CURVE SMOOTH",
"344 197 OFFCURVE",
"282 105 OFFCURVE",
"185 105 CURVE SMOOTH"
);
}
);
width = 879;
}
);
rightMetricsKey = "=|";
unicode = 221E;
},
{
glyphname = integral;
layers = (
{
layerId = "BA82AF6A-5289-49F9-B535-AE40A2A15B95";
paths = (
{
closed = 1;
nodes = (
"231 759 OFFCURVE",
"213 504 OFFCURVE",
"196 270 CURVE SMOOTH",
"179 36 OFFCURVE",
"164 -178 OFFCURVE",
"30 -144 CURVE",
"20 -180 LINE",
"199 -225 OFFCURVE",
"217 33 OFFCURVE",
"234 267 CURVE SMOOTH",
"250 501 OFFCURVE",
"265 709 OFFCURVE",
"398 666 CURVE",
"410 702 LINE"
);
}
);
width = 430;
}
);
rightMetricsKey = "=|";
unicode = 222B;
},
{
glyphname = product;
layers = (
{
layerId = "BA82AF6A-5289-49F9-B535-AE40A2A15B95";
paths = (
{
closed = 1;
nodes = (
"449 705 OFFCURVE",
"211 704 OFFCURVE",
"22 713 CURVE",
"20 675 LINE",
"211 666 OFFCURVE",
"449 667 OFFCURVE",
"638 678 CURVE",
"636 716 LINE"
);
},
{
closed = 1;
nodes = (
"436 238 OFFCURVE",
"444 460 OFFCURVE",
"463 693 CURVE",
"425 697 LINE",
"406 462 OFFCURVE",
"398 239 OFFCURVE",
"400 21 CURVE",
"438 21 LINE"
);
},
{
closed = 1;
nodes = (
"207 245 OFFCURVE",
"224 468 OFFCURVE",
"242 692 CURVE",
"204 696 LINE",
"186 470 OFFCURVE",
"169 247 OFFCURVE",
"171 21 CURVE",
"209 21 LINE"
);
}
);
width = 658;
}
);
rightMetricsKey = "=|";
unicode = 220F;
},
{
glyphname = summation;
layers = (
{
layerId = "BA82AF6A-5289-49F9-B535-AE40A2A15B95";
paths = (
{
closed = 1;
nodes = (
"381 -9 OFFCURVE",
"216 -10 OFFCURVE",
"75 -1 CURVE",
"110 43 OFFCURVE",
"155 107 OFFCURVE",
"188 159 CURVE SMOOTH",
"196 172 OFFCURVE",
"216 203 OFFCURVE",
"238 235 CURVE",
"239 255 LINE",
"178 375 OFFCURVE",
"108 539 OFFCURVE",
"64 666 CURVE",
"204 672 OFFCURVE",
"367 674 OFFCURVE",
"471 672 CURVE",
"471 710 LINE",
"359 712 OFFCURVE",
"186 710 OFFCURVE",
"37 703 CURVE",
"20 678 LINE",
"70 532 OFFCURVE",
"142 360 OFFCURVE",
"200 247 CURVE",
"183 221 OFFCURVE",
"169 200 OFFCURVE",
"156 180 CURVE SMOOTH",
"119 122 OFFCURVE",
"66 48 OFFCURVE",
"23 -6 CURVE",
"37 -37 LINE",
"201 -47 OFFCURVE",
"383 -47 OFFCURVE",
"493 -37 CURVE",
"489 1 LINE"
);
}
);
width = 513;
}
);
rightMetricsKey = "=|";
unicode = 2211;
},
{
glyphname = radical;
layers = (
{
layerId = "BA82AF6A-5289-49F9-B535-AE40A2A15B95";
paths = (
{
closed = 1;
nodes = (
"567 665 OFFCURVE",
"539 665 OFFCURVE",
"511 664 CURVE",
"478 664 OFFCURVE",
"446 664 OFFCURVE",
"413 664 CURVE",
"349 414 OFFCURVE",
"273 157 OFFCURVE",
"185 -110 CURVE",
"137 11 OFFCURVE",
"94 132 OFFCURVE",
"56 253 CURVE",
"20 241 LINE",
"66 94 OFFCURVE",
"116 -43 OFFCURVE",
"169 -172 CURVE",
"205 -171 LINE",
"294 95 OFFCURVE",
"373 360 OFFCURVE",
"443 626 CURVE",
"465 626 OFFCURVE",
"488 626 OFFCURVE",
"511 627 CURVE",
"539 627 OFFCURVE",
"567 627 OFFCURVE",
"594 627 CURVE",
"594 665 LINE"
);
}
);
width = 614;
}
);
rightMetricsKey = "=|";
unicode = 221A;
},
{
glyphname = partialdiff;
layers = (
{
layerId = "BA82AF6A-5289-49F9-B535-AE40A2A15B95";
paths = (
{
closed = 1;
nodes = (
"195 631 OFFCURVE",
"314 491 OFFCURVE",
"362 331 CURVE SMOOTH",
"372 298 OFFCURVE",
"378 260 OFFCURVE",
"378 234 CURVE SMOOTH",
"378 116 OFFCURVE",
"305 39 OFFCURVE",
"194 39 CURVE SMOOTH",
"112 39 OFFCURVE",
"58 95 OFFCURVE",
"58 181 CURVE SMOOTH",
"58 310 OFFCURVE",
"137 394 OFFCURVE",
"257 394 CURVE SMOOTH",
"300 394 OFFCURVE",
"343 367 OFFCURVE",
"364 327 CURVE",
"398 345 LINE",
"371 397 OFFCURVE",
"314 432 OFFCURVE",
"257 432 CURVE SMOOTH",
"116 432 OFFCURVE",
"20 331 OFFCURVE",
"20 182 CURVE SMOOTH",
"20 74 OFFCURVE",
"91 1 OFFCURVE",
"194 1 CURVE SMOOTH",
"326 1 OFFCURVE",
"416 95 OFFCURVE",
"416 234 CURVE SMOOTH",
"416 264 OFFCURVE",
"409 307 OFFCURVE",
"399 342 CURVE SMOOTH",
"350 512 OFFCURVE",
"219 662 OFFCURVE",
"83 719 CURVE",
"69 684 LINE"
);
}
);
width = 436;
}
);
rightMetricsKey = "=|";
unicode = 2202;
},
{
glyphname = percent;
layers = (
{
layerId = "BA82AF6A-5289-49F9-B535-AE40A2A15B95";
paths = (
{
closed = 0;
nodes = (
"95 13 LINE"
);
},
{
closed = 1;
nodes = (
"250 416 OFFCURVE",
"133 176 OFFCURVE",
"32 20 CURVE",
"64 0 LINE",
"166 158 OFFCURVE",
"285 401 OFFCURVE",
"362 608 CURVE",
"326 622 LINE"
);
},
{
closed = 1;
nodes = (
"149 412 OFFCURVE",
"185 453 OFFCURVE",
"185 505 CURVE SMOOTH",
"185 557 OFFCURVE",
"149 598 OFFCURVE",
"102 598 CURVE SMOOTH",
"55 598 OFFCURVE",
"20 558 OFFCURVE",
"20 505 CURVE SMOOTH",
"20 452 OFFCURVE",
"55 412 OFFCURVE",
"102 412 CURVE SMOOTH"
);
},
{
closed = 1;
nodes = (
"77 450 OFFCURVE",
"58 473 OFFCURVE",
"58 505 CURVE SMOOTH",
"58 537 OFFCURVE",
"77 560 OFFCURVE",
"102 560 CURVE SMOOTH",
"127 560 OFFCURVE",
"147 536 OFFCURVE",
"147 505 CURVE SMOOTH",
"147 474 OFFCURVE",
"127 450 OFFCURVE",
"102 450 CURVE SMOOTH"
);
},
{
closed = 1;
nodes = (
"388 59 OFFCURVE",
"424 100 OFFCURVE",
"424 152 CURVE SMOOTH",
"424 205 OFFCURVE",
"388 245 OFFCURVE",
"341 245 CURVE SMOOTH",
"294 245 OFFCURVE",
"259 205 OFFCURVE",
"259 152 CURVE SMOOTH",
"259 99 OFFCURVE",
"294 59 OFFCURVE",
"341 59 CURVE SMOOTH"
);
},
{
closed = 1;
nodes = (
"316 97 OFFCURVE",
"297 120 OFFCURVE",
"297 152 CURVE SMOOTH",
"297 184 OFFCURVE",
"316 207 OFFCURVE",
"341 207 CURVE SMOOTH",
"366 207 OFFCURVE",
"386 183 OFFCURVE",
"386 152 CURVE SMOOTH",
"386 121 OFFCURVE",
"366 97 OFFCURVE",
"341 97 CURVE SMOOTH"
);
}
);
width = 444;
}
);
rightMetricsKey = "=|";
unicode = 0025;
},
{
glyphname = perthousand;
layers = (
{
components = (
{
name = percent;
}
);
layerId = "BA82AF6A-5289-49F9-B535-AE40A2A15B95";
paths = (
{
closed = 1;
nodes = (
"588 59 OFFCURVE",
"624 100 OFFCURVE",
"624 152 CURVE SMOOTH",
"624 205 OFFCURVE",
"588 245 OFFCURVE",
"541 245 CURVE SMOOTH",
"494 245 OFFCURVE",
"459 205 OFFCURVE",
"459 152 CURVE SMOOTH",
"459 99 OFFCURVE",
"494 59 OFFCURVE",
"541 59 CURVE SMOOTH"
);
},
{
closed = 1;
nodes = (
"516 97 OFFCURVE",
"497 120 OFFCURVE",
"497 152 CURVE SMOOTH",
"497 184 OFFCURVE",
"516 207 OFFCURVE",
"541 207 CURVE SMOOTH",
"566 207 OFFCURVE",
"586 183 OFFCURVE",
"586 152 CURVE SMOOTH",
"586 121 OFFCURVE",
"566 97 OFFCURVE",
"541 97 CURVE SMOOTH"
);
}
);
width = 644;
}
);
rightMetricsKey = "=|";
unicode = 2030;
},
{
glyphname = at;
layers = (
{
anchors = (
{
name = "#entry";
position = "{595, -3}";
}
);
components = (
{
locked = 1;
name = _counter;
transform = "{1, 0, 0, 1, 111, 0}";
}
);
layerId = "BA82AF6A-5289-49F9-B535-AE40A2A15B95";
paths = (
{
closed = 1;
nodes = (
"583 333 OFFCURVE",
"586 265 OFFCURVE",
"586 209 CURVE SMOOTH",
"586 153 OFFCURVE",
"583 110 OFFCURVE",
"581 76 CURVE SMOOTH",
"580 55 OFFCURVE",
"579 37 OFFCURVE",
"579 23 CURVE SMOOTH",
"579 -47 OFFCURVE",
"608 -81 OFFCURVE",
"668 -81 CURVE SMOOTH",
"733 -81 OFFCURVE",
"761 2 OFFCURVE",
"761 171 CURVE SMOOTH",
"761 451 OFFCURVE",
"591 628 OFFCURVE",
"324 628 CURVE SMOOTH",
"129 628 OFFCURVE",
"-20 468 OFFCURVE",
"-20 261 CURVE SMOOTH",
"-20 33 OFFCURVE",
"150 -148 OFFCURVE",
"367 -148 CURVE",
"367 -110 LINE",
"171 -110 OFFCURVE",
"18 54 OFFCURVE",
"18 261 CURVE SMOOTH",
"18 447 OFFCURVE",
"150 590 OFFCURVE",
"324 590 CURVE SMOOTH",
"570 590 OFFCURVE",
"723 430 OFFCURVE",
"723 171 CURVE SMOOTH",
"723 29 OFFCURVE",
"702 -43 OFFCURVE",
"668 -43 CURVE SMOOTH",
"630 -43 OFFCURVE",
"617 -26 OFFCURVE",
"617 23 CURVE SMOOTH",
"617 36 OFFCURVE",
"618 53 OFFCURVE",
"619 74 CURVE SMOOTH",
"621 108 OFFCURVE",
"624 152 OFFCURVE",
"624 209 CURVE SMOOTH",
"624 271 OFFCURVE",
"620 342 OFFCURVE",
"613 421 CURVE",
"575 417 LINE"
);
}
);
width = 741;
}
);
rightMetricsKey = "=|";
unicode = 0040;
},
{
glyphname = ampersand;
layers = (
{
layerId = "BA82AF6A-5289-49F9-B535-AE40A2A15B95";
paths = (
{
closed = 1;
nodes = (
"462 120 OFFCURVE",
"362 20 OFFCURVE",
"250 20 CURVE SMOOTH",
"192 20 OFFCURVE",
"127 58 OFFCURVE",
"90 115 CURVE",
"70 154 OFFCURVE",
"58 198 OFFCURVE",
"58 227 CURVE SMOOTH",
"58 338 OFFCURVE",
"130 427 OFFCURVE",
"194 506 CURVE SMOOTH",
"240 562 OFFCURVE",
"284 616 OFFCURVE",
"284 666 CURVE SMOOTH",
"284 722 OFFCURVE",
"252 762 OFFCURVE",
"206 762 CURVE SMOOTH",
"158 762 OFFCURVE",
"125 721 OFFCURVE",
"125 664 CURVE SMOOTH",
"125 523 OFFCURVE",
"300 268 OFFCURVE",
"563 24 CURVE",
"589 52 LINE",
"335 287 OFFCURVE",
"163 535 OFFCURVE",
"163 664 CURVE SMOOTH",
"163 701 OFFCURVE",
"180 724 OFFCURVE",
"206 724 CURVE SMOOTH",
"230 724 OFFCURVE",
"246 702 OFFCURVE",
"246 666 CURVE SMOOTH",
"246 629 OFFCURVE",
"211 586 OFFCURVE",
"165 530 CURVE SMOOTH",
"101 451 OFFCURVE",
"20 351 OFFCURVE",
"20 227 CURVE SMOOTH",
"20 192 OFFCURVE",
"34 141 OFFCURVE",
"56 97 CURVE SMOOTH",
"57 95 LINE",
"101 28 OFFCURVE",
"179 -18 OFFCURVE",
"250 -18 CURVE SMOOTH",
"380 -18 OFFCURVE",
"495 95 OFFCURVE",
"535 263 CURVE",
"499 271 LINE"
);
}
);
width = 609;
}
);
rightMetricsKey = "=|";
unicode = 0026;
},
{
glyphname = paragraph;
layers = (
{
components = (
{
name = bar;
transform = "{1, 0, 0, 1.54933, 336, -229}";
}
);
layerId = "BA82AF6A-5289-49F9-B535-AE40A2A15B95";
paths = (
{
closed = 1;
nodes = (
"135 732 OFFCURVE",
"19 641 OFFCURVE",
"20 505 CURVE SMOOTH",
"20 357 OFFCURVE",
"126 259 OFFCURVE",
"284 259 CURVE",
"284 180 OFFCURVE",
"284 -87 OFFCURVE",
"284 -228 CURVE",
"323 -226 LINE",
"331 732 LINE"
);
}
);
width = 421;
}
);
rightMetricsKey = "=|";
unicode = 00B6;
},
{
glyphname = section;
layers = (
{
layerId = "BA82AF6A-5289-49F9-B535-AE40A2A15B95";
paths = (
{
closed = 1;
nodes = (
"178 335 OFFCURVE",
"77 287 OFFCURVE",
"77 194 CURVE SMOOTH",
"77 123 OFFCURVE",
"139 74 OFFCURVE",
"191 32 CURVE SMOOTH",
"235 -3 OFFCURVE",
"271 -31 OFFCURVE",
"275 -65 CURVE SMOOTH",
"282 -125 OFFCURVE",
"251 -163 OFFCURVE",
"190 -163 CURVE SMOOTH",
"110 -163 OFFCURVE",
"58 -109 OFFCURVE",
"58 -25 CURVE",
"20 -25 LINE",
"20 -130 OFFCURVE",
"89 -201 OFFCURVE",
"190 -201 CURVE SMOOTH",
"274 -201 OFFCURVE",
"324 -143 OFFCURVE",
"313 -59 CURVE SMOOTH",
"307 -11 OFFCURVE",
"259 27 OFFCURVE",
"215 62 CURVE SMOOTH",
"163 103 OFFCURVE",
"115 142 OFFCURVE",
"115 194 CURVE SMOOTH",
"115 255 OFFCURVE",
"180 285 OFFCURVE",
"227 248 CURVE",
"251 278 LINE"
);
},
{
closed = 1;
nodes = (
"224 22 LINE",
"304 25 OFFCURVE",
"350 82 OFFCURVE",
"340 164 CURVE SMOOTH",
"334 212 OFFCURVE",
"286 250 OFFCURVE",
"242 285 CURVE SMOOTH",
"190 326 OFFCURVE",
"142 365 OFFCURVE",
"142 417 CURVE SMOOTH",
"142 478 OFFCURVE",
"207 508 OFFCURVE",
"254 471 CURVE",
"278 501 LINE",
"205 558 OFFCURVE",
"104 510 OFFCURVE",
"104 417 CURVE SMOOTH",
"104 346 OFFCURVE",
"166 297 OFFCURVE",
"218 255 CURVE SMOOTH",
"262 220 OFFCURVE",
"298 192 OFFCURVE",
"302 158 CURVE SMOOTH",
"309 98 OFFCURVE",
"278 60 OFFCURVE",
"217 60 CURVE SMOOTH",
"210 60 OFFCURVE",
"202 60 OFFCURVE",
"195 61 CURVE"
);
}
);
width = 361;
}
);
rightMetricsKey = "=|";
unicode = 00A7;
},
{
glyphname = copyright;
layers = (
{
components = (
{
name = c;
transform = "{0.74622, 0, 0, 0.74622, 127, 124}";
}
);
layerId = "BA82AF6A-5289-49F9-B535-AE40A2A15B95";
paths = (
{
closed = 1;
nodes = (
"159 43 OFFCURVE",
"42 156 OFFCURVE",
"42 313 CURVE SMOOTH",
"42 468 OFFCURVE",
"168 590 OFFCURVE",
"329 590 CURVE SMOOTH",
"486 590 OFFCURVE",
"607 470 OFFCURVE",
"607 313 CURVE SMOOTH",
"607 159 OFFCURVE",
"484 43 OFFCURVE",
"321 43 CURVE SMOOTH"
);
},
{
closed = 1;
nodes = (
"497 21 OFFCURVE",
"629 146 OFFCURVE",
"629 313 CURVE SMOOTH",
"629 482 OFFCURVE",
"498 612 OFFCURVE",
"329 612 CURVE SMOOTH",
"156 612 OFFCURVE",
"20 480 OFFCURVE",
"20 313 CURVE SMOOTH",
"20 144 OFFCURVE",
"147 21 OFFCURVE",
"321 21 CURVE SMOOTH"
);
}
);
width = 649;
}
);
rightMetricsKey = "=|";
unicode = 00A9;
},
{
glyphname = registered;
layers = (
{
components = (
{
name = R;
transform = "{0.58468, 0, 0, 0.58468, 215, 118}";
}
);
layerId = "BA82AF6A-5289-49F9-B535-AE40A2A15B95";
paths = (
{
closed = 1;
nodes = (
"478 31 OFFCURVE",
"607 153 OFFCURVE",
"607 313 CURVE SMOOTH",
"607 476 OFFCURVE",
"480 602 OFFCURVE",
"317 602 CURVE SMOOTH",
"151 602 OFFCURVE",
"20 475 OFFCURVE",
"20 313 CURVE SMOOTH",
"20 151 OFFCURVE",
"144 31 OFFCURVE",
"310 31 CURVE SMOOTH"
);
},
{
closed = 1;
nodes = (
"156 53 OFFCURVE",
"42 164 OFFCURVE",
"42 313 CURVE SMOOTH",
"42 462 OFFCURVE",
"163 580 OFFCURVE",
"317 580 CURVE SMOOTH",
"468 580 OFFCURVE",
"585 464 OFFCURVE",
"585 313 CURVE SMOOTH",
"585 166 OFFCURVE",
"466 53 OFFCURVE",
"310 53 CURVE SMOOTH"
);
}
);
width = 627;
}
);
rightMetricsKey = "=|";
unicode = 00AE;
},
{
glyphname = degree;
layers = (
{
layerId = "BA82AF6A-5289-49F9-B535-AE40A2A15B95";
paths = (
{
closed = 1;
nodes = (
"76 230 OFFCURVE",
"35 269 OFFCURVE",
"35 324 CURVE SMOOTH",
"35 379 OFFCURVE",
"80 421 OFFCURVE",
"136 421 CURVE SMOOTH",
"191 421 OFFCURVE",
"234 379 OFFCURVE",
"234 324 CURVE SMOOTH",
"234 271 OFFCURVE",
"190 230 OFFCURVE",
"133 229 CURVE SMOOTH"
);
},
{
closed = 1;
nodes = (
"198 215 OFFCURVE",
"249 262 OFFCURVE",
"249 324 CURVE SMOOTH",
"249 387 OFFCURVE",
"199 436 OFFCURVE",
"136 436 CURVE SMOOTH",
"71 436 OFFCURVE",
"20 387 OFFCURVE",
"20 324 CURVE SMOOTH",
"20 261 OFFCURVE",
"68 215 OFFCURVE",
"133 215 CURVE SMOOTH"
);
}
);
width = 269;
}
);
rightMetricsKey = "=|";
unicode = 00B0;
},
{
glyphname = bar;
layers = (
{
layerId = "BA82AF6A-5289-49F9-B535-AE40A2A15B95";
paths = (
{
closed = 1;
nodes = (
"19 636 OFFCURVE",
"22 385 OFFCURVE",
"27 -2 CURVE",
"65 -1 LINE",
"61 223 OFFCURVE",
"58 474 OFFCURVE",
"58 628 CURVE",
"20 625 LINE"
);
}
);
width = 85;
}
);
rightMetricsKey = "=|";
unicode = 007C;
},
{
glyphname = brokenbar;
layers = (
{
layerId = "BA82AF6A-5289-49F9-B535-AE40A2A15B95";
paths = (
{
closed = 1;
nodes = (
"260 617 OFFCURVE",
"263 478 OFFCURVE",
"265 289 CURVE",
"303 290 LINE",
"299 525 OFFCURVE",
"296 665 OFFCURVE",
"296 639 CURVE",
"258 636 LINE"
);
},
{
closed = 1;
nodes = (
"272 150 OFFCURVE",
"275 11 OFFCURVE",
"277 -178 CURVE",
"315 -177 LINE",
"311 58 OFFCURVE",
"308 198 OFFCURVE",
"308 172 CURVE",
"270 169 LINE"
);
}
);
width = 600;
}
);
unicode = 00A6;
},
{
glyphname = dagger;
layers = (
{
layerId = "BA82AF6A-5289-49F9-B535-AE40A2A15B95";
paths = (
{
closed = 1;
nodes = (
"113 544 OFFCURVE",
"115 446 OFFCURVE",
"120 277 CURVE",
"158 278 LINE",
"153 453 OFFCURVE",
"151 553 OFFCURVE",
"151 627 CURVE",
"113 624 LINE"
);
},
{
closed = 1;
nodes = (
"103 494 OFFCURVE",
"71 495 OFFCURVE",
"240 500 CURVE",
"239 538 LINE",
"64 533 OFFCURVE",
"94 532 OFFCURVE",
"20 532 CURVE",
"23 494 LINE"
);
}
);
width = 260;
}
);
rightMetricsKey = "=|";
unicode = 2020;
},
{
glyphname = daggerdbl;
layers = (
{
components = (
{
name = dagger;
}
);
layerId = "BA82AF6A-5289-49F9-B535-AE40A2A15B95";
paths = (
{
closed = 1;
nodes = (
"103 394 OFFCURVE",
"71 395 OFFCURVE",
"240 400 CURVE",
"239 438 LINE",
"64 433 OFFCURVE",
"94 432 OFFCURVE",
"20 432 CURVE",
"23 394 LINE"
);
}
);
width = 260;
}
);
unicode = 2021;
},
{
color = 6;
glyphname = "percent-ar";
layers = (
{
components = (
{
name = "dotabove-ar";
transform = "{1, 0, 0, 1, 92, 71}";
},
{
name = "dotbelow-ar";
transform = "{1, 0, 0, 1, 148, -57}";
}
);
layerId = "BA82AF6A-5289-49F9-B535-AE40A2A15B95";
paths = (
{
closed = 1;
nodes = (
"150 72 OFFCURVE",
"229 330 OFFCURVE",
"252 492 CURVE",
"214 498 LINE",
"192 339 OFFCURVE",
"114 85 OFFCURVE",
"20 -133 CURVE",
"54 -149 LINE"
);
}
);
width = 272;
}
);
rightMetricsKey = "=|";
unicode = 066A;
},
{
glyphname = gravecomb;
layers = (
{
layerId = "BA82AF6A-5289-49F9-B535-AE40A2A15B95";
paths = (
{
closed = 1;
nodes = (
"48 634 LINE SMOOTH",
"45 635 OFFCURVE",
"42 632 OFFCURVE",
"44 628 CURVE SMOOTH",
"87 533 LINE SMOOTH",
"89 529 OFFCURVE",
"100 533 OFFCURVE",
"99 537 CURVE SMOOTH",
"87 626 LINE SMOOTH",
"87 628 OFFCURVE",
"86 628 OFFCURVE",
"85 628 CURVE SMOOTH"
);
}
);
width = 122;
}
);
unicode = 0300;
},
{
glyphname = acutecomb;
layers = (
{
layerId = "BA82AF6A-5289-49F9-B535-AE40A2A15B95";
paths = (
{
closed = 1;
nodes = (
"23 628 OFFCURVE",
"22 628 OFFCURVE",
"22 626 CURVE SMOOTH",
"10 537 LINE SMOOTH",
"9 533 OFFCURVE",
"20 529 OFFCURVE",
"22 533 CURVE SMOOTH",
"65 628 LINE SMOOTH",
"67 632 OFFCURVE",
"64 635 OFFCURVE",
"61 634 CURVE SMOOTH",
"24 628 LINE SMOOTH"
);
}
);
width = 71;
}
);
unicode = 0301;
},
{
glyphname = circumflexcomb;
layers = (
{
layerId = "BA82AF6A-5289-49F9-B535-AE40A2A15B95";
paths = (
{
closed = 1;
nodes = (
"106 745 LINE",
"104 744 LINE",
"104 744 OFFCURVE",
"96 745 OFFCURVE",
"95 745 CURVE",
"169 704 LINE",
"187 718 LINE",
"113 759 LINE",
"105 763 OFFCURVE",
"94 762 OFFCURVE",
"87 758 CURVE SMOOTH",
"0 706 LINE",
"20 694 LINE"
);
}
);
width = 188;
}
);
unicode = 0302;
},
{
glyphname = ringcomb;
layers = (
{
layerId = "BA82AF6A-5289-49F9-B535-AE40A2A15B95";
paths = (
{
closed = 1;
nodes = (
"385 655 OFFCURVE",
"415 687 OFFCURVE",
"415 727 CURVE SMOOTH",
"415 766 OFFCURVE",
"385 798 OFFCURVE",
"346 798 CURVE SMOOTH",
"308 798 OFFCURVE",
"278 766 OFFCURVE",
"278 727 CURVE SMOOTH",
"278 687 OFFCURVE",
"308 655 OFFCURVE",
"346 655 CURVE SMOOTH"
);
},
{
closed = 1;
nodes = (
"319 679 OFFCURVE",
"298 701 OFFCURVE",
"298 730 CURVE SMOOTH",
"298 757 OFFCURVE",
"319 779 OFFCURVE",
"345 779 CURVE SMOOTH",
"373 779 OFFCURVE",
"394 757 OFFCURVE",
"394 730 CURVE SMOOTH",
"394 701 OFFCURVE",
"373 679 OFFCURVE",
"345 679 CURVE SMOOTH"
);
}
);
width = 600;
}
);
unicode = 030A;
},
{
glyphname = tildecomb;
layers = (
{
layerId = "BA82AF6A-5289-49F9-B535-AE40A2A15B95";
paths = (
{
closed = 1;
nodes = (
"21 616 OFFCURVE",
"23 621 OFFCURVE",
"25 625 CURVE",
"37 656 OFFCURVE",
"47 668 OFFCURVE",
"62 668 CURVE SMOOTH",
"76 668 OFFCURVE",
"89 658 OFFCURVE",
"105 645 CURVE SMOOTH",
"122 632 OFFCURVE",
"141 617 OFFCURVE",
"163 617 CURVE SMOOTH",
"185 617 OFFCURVE",
"203 636 OFFCURVE",
"208 664 CURVE",
"186 668 LINE",
"183 650 OFFCURVE",
"174 639 OFFCURVE",
"163 639 CURVE SMOOTH",
"149 639 OFFCURVE",
"135 650 OFFCURVE",
"119 662 CURVE SMOOTH",
"102 675 OFFCURVE",
"83 690 OFFCURVE",
"62 690 CURVE SMOOTH",
"27 690 OFFCURVE",
"12 653 OFFCURVE",
"4 633 CURVE",
"3 629 OFFCURVE",
"1 625 OFFCURVE",
"0 623 CURVE",
"20 613 LINE"
);
}
);
width = 223;
}
);
unicode = 0303;
},
{
glyphname = cedillacomb;
layers = (
{
layerId = "BA82AF6A-5289-49F9-B535-AE40A2A15B95";
paths = (
{
closed = 1;
nodes = (
"306 -100 LINE",
"338 -115 OFFCURVE",
"360 -142 OFFCURVE",
"360 -166 CURVE SMOOTH",
"360 -186 OFFCURVE",
"336 -200 OFFCURVE",
"299 -200 CURVE SMOOTH",
"297 -200 OFFCURVE",
"291 -200 OFFCURVE",
"277 -199 CURVE",
"275 -198 OFFCURVE",
"273 -198 OFFCURVE",
"271 -198 CURVE",
"269 -220 LINE",
"271 -220 OFFCURVE",
"274 -220 OFFCURVE",
"276 -220 CURVE",
"286 -221 OFFCURVE",
"295 -222 OFFCURVE",
"299 -222 CURVE SMOOTH",
"348 -222 OFFCURVE",
"382 -200 OFFCURVE",
"382 -166 CURVE SMOOTH",
"382 -138 OFFCURVE",
"361 -107 OFFCURVE",
"330 -88 CURVE",
"338 -51 LINE",
"316 -47 LINE"
);
}
);
width = 600;
}
);
unicode = 0327;
},
{
glyphname = "dotabove-ar";
layers = (
{
anchors = (
{
name = _top;
position = "{38, 358}";
},
{
name = top;
position = "{44, 435}";
}
);
layerId = "BA82AF6A-5289-49F9-B535-AE40A2A15B95";
paths = (
{
closed = 1;
nodes = (
"30 361 OFFCURVE",
"16 374 OFFCURVE",
"12 390 CURVE SMOOTH",
"8 405 OFFCURVE",
"14 422 OFFCURVE",
"30 426 CURVE SMOOTH",
"45 430 OFFCURVE",
"62 419 OFFCURVE",
"66 403 CURVE SMOOTH",
"70 388 OFFCURVE",
"63 370 OFFCURVE",
"46 365 CURVE SMOOTH"
);
}
);
width = 77;
}
);
},
{
glyphname = "wasla-ar";
layers = (
{
anchors = (
{
name = _top;
position = "{54, 485}";
},
{
name = top;
position = "{49, 558}";
}
);
layerId = "BA82AF6A-5289-49F9-B535-AE40A2A15B95";
paths = (
{
closed = 1;
nodes = (
"19 487 OFFCURVE",
"25 498 OFFCURVE",
"34 498 CURVE SMOOTH",
"36 498 OFFCURVE",
"62 489 OFFCURVE",
"72 489 CURVE SMOOTH",
"104 487 OFFCURVE",
"130 512 OFFCURVE",
"130 540 CURVE SMOOTH",
"130 597 OFFCURVE",
"49 573 OFFCURVE",
"47 516 CURVE",
"44 517 OFFCURVE",
"38 518 OFFCURVE",
"33 518 CURVE SMOOTH",
"20 518 OFFCURVE",
"10 509 OFFCURVE",
"0 492 CURVE",
"13 477 LINE"
);
},
{
closed = 1;
nodes = (
"69 538 OFFCURVE",
"89 549 OFFCURVE",
"100 547 CURVE SMOOTH",
"112 543 OFFCURVE",
"107 512 OFFCURVE",
"69 509 CURVE"
);
}
);
width = 130;
}
);
},
{
glyphname = "doublestroke-ar";
layers = (
{
layerId = "BA82AF6A-5289-49F9-B535-AE40A2A15B95";
paths = (
{
closed = 1;
nodes = (
"194 7 OFFCURVE",
"436 10 OFFCURVE",
"678 6 CURVE",
"664 45 LINE",
"428 47 OFFCURVE",
"191 54 OFFCURVE",
"-48 41 CURVE",
"-47 -5 LINE"
);
},
{
closed = 1;
nodes = (
"195 74 OFFCURVE",
"437 77 OFFCURVE",
"679 73 CURVE",
"665 112 LINE",
"429 114 OFFCURVE",
"192 121 OFFCURVE",
"-47 108 CURVE",
"-46 62 LINE"
);
}
);
width = 600;
}
);
},
{
glyphname = "hamzaabove-ar.001";
layers = (
{
anchors = (
{
name = _top;
position = "{94, 515}";
},
{
name = top;
position = "{94, 690}";
}
);
layerId = "BA82AF6A-5289-49F9-B535-AE40A2A15B95";
paths = (
{
closed = 1;
nodes = (
"92 538 LINE",
"79 552 OFFCURVE",
"74 563 OFFCURVE",
"74 576 CURVE SMOOTH",
"74 600 OFFCURVE",
"91 616 OFFCURVE",
"115 616 CURVE SMOOTH",
"123 616 OFFCURVE",
"130 614 OFFCURVE",
"140 608 CURVE",
"158 637 LINE",
"145 645 OFFCURVE",
"130 650 OFFCURVE",
"114 650 CURVE SMOOTH",
"75 650 OFFCURVE",
"39 621 OFFCURVE",
"39 577 CURVE SMOOTH",
"39 555 OFFCURVE",
"48 535 OFFCURVE",
"66 515 CURVE"
);
},
{
closed = 1;
nodes = (
"167 515 LINE",
"167 549 LINE",
"20 549 LINE",
"20 515 LINE"
);
}
);
width = 187;
},
{
anchors = (
{
name = _top;
position = "{151, 463}";
},
{
name = top;
position = "{151, 773}";
}
);
associatedMasterId = "BA82AF6A-5289-49F9-B535-AE40A2A15B95";
layerId = "D02A7F20-5372-446E-84B7-8F4B885083B2";
name = SemiBold;
paths = (
{
closed = 1;
nodes = (
"148 518 LINE",
"134 535 OFFCURVE",
"128 548 OFFCURVE",
"128 566 CURVE SMOOTH",
"128 599 OFFCURVE",
"151 623 OFFCURVE",
"183 623 CURVE SMOOTH",
"196 623 OFFCURVE",
"206 620 OFFCURVE",
"217 614 CURVE",
"264 682 LINE",
"244 694 OFFCURVE",
"210 703 OFFCURVE",
"183 703 CURVE SMOOTH",
"102 703 OFFCURVE",
"38 643 OFFCURVE",
"38 566 CURVE SMOOTH",
"38 530 OFFCURVE",
"52 499 OFFCURVE",
"80 465 CURVE"
);
},
{
closed = 1;
nodes = (
"282 463 LINE",
"282 543 LINE",
"20 543 LINE",
"20 463 LINE"
);
}
);
width = 302;
},
{
anchors = (
{
name = _top;
position = "{178, 434}";
},
{
name = top;
position = "{178, 790}";
}
);
associatedMasterId = "BA82AF6A-5289-49F9-B535-AE40A2A15B95";
layerId = "2D07D9D6-DD7A-4EF1-82E8-8B18836F0AAC";
name = Bold;
paths = (
{
closed = 1;
nodes = (
"187 522 LINE",
"175 535 OFFCURVE",
"170 547 OFFCURVE",
"170 562 CURVE SMOOTH",
"170 588 OFFCURVE",
"188 607 OFFCURVE",
"215 607 CURVE SMOOTH",
"225 607 OFFCURVE",
"233 605 OFFCURVE",
"241 600 CURVE",
"308 685 LINE",
"285 701 OFFCURVE",
"247 710 OFFCURVE",
"215 710 CURVE SMOOTH",
"123 710 OFFCURVE",
"47 645 OFFCURVE",
"47 562 CURVE SMOOTH",
"47 520 OFFCURVE",
"62 491 OFFCURVE",
"96 454 CURVE"
);
},
{
closed = 1;
nodes = (
"335 434 LINE",
"335 537 LINE",
"20 537 LINE",
"20 434 LINE"
);
}
);
width = 355;
},
{
anchors = (
{
name = _top;
position = "{101, 509}";
},
{
name = top;
position = "{101, 670}";
}
);
associatedMasterId = "BA82AF6A-5289-49F9-B535-AE40A2A15B95";
layerId = "3C090593-CE0A-4E5D-88C4-4EF238FAEB78";
name = "Dec 8 17, 21:58";
paths = (
{
closed = 1;
nodes = (
"20 543 LINE",
"25 509 LINE",
"182 531 LINE",
"177 565 LINE"
);
},
{
closed = 1;
nodes = (
"79 552 OFFCURVE",
"74 563 OFFCURVE",
"74 576 CURVE SMOOTH",
"74 600 OFFCURVE",
"91 616 OFFCURVE",
"115 616 CURVE SMOOTH",
"123 616 OFFCURVE",
"130 614 OFFCURVE",
"140 608 CURVE",
"158 637 LINE",
"145 645 OFFCURVE",
"130 650 OFFCURVE",
"114 650 CURVE SMOOTH",
"75 650 OFFCURVE",
"39 621 OFFCURVE",
"39 577 CURVE SMOOTH",
"39 555 OFFCURVE",
"48 535 OFFCURVE",
"66 515 CURVE",
"92 538 LINE"
);
}
);
width = 202;
},
{
associatedMasterId = "BA82AF6A-5289-49F9-B535-AE40A2A15B95";
layerId = "F57F7004-FD8B-4E31-8980-78D2D6538DC2";
name = SemiBold;
paths = (
{
closed = 1;
nodes = (
"98 539 LINE",
"86 552 OFFCURVE",
"81 564 OFFCURVE",
"81 577 CURVE SMOOTH",
"81 602 OFFCURVE",
"98 620 OFFCURVE",
"123 620 CURVE SMOOTH",
"131 620 OFFCURVE",
"137 618 OFFCURVE",
"145 613 CURVE",
"169 645 LINE",
"156 653 OFFCURVE",
"139 658 OFFCURVE",
"121 658 CURVE SMOOTH",
"75 658 OFFCURVE",
"39 624 OFFCURVE",
"39 577 CURVE SMOOTH",
"39 555 OFFCURVE",
"47 535 OFFCURVE",
"66 513 CURVE"
);
},
{
closed = 1;
nodes = (
"193 525 LINE",
"187 563 LINE",
"21 540 LINE",
"27 502 LINE"
);
}
);
width = 600;
},
{
anchors = (
{
name = _top;
position = "{151, 463}";
},
{
name = top;
position = "{151, 723}";
}
);
associatedMasterId = "BA82AF6A-5289-49F9-B535-AE40A2A15B95";
layerId = "65B744EE-6433-41CF-8CD8-A1FC85DA8CA6";
name = SemiBold;
paths = (
{
closed = 1;
nodes = (
"148 518 LINE",
"134 535 OFFCURVE",
"128 548 OFFCURVE",
"128 566 CURVE SMOOTH",
"128 599 OFFCURVE",
"151 623 OFFCURVE",
"183 623 CURVE SMOOTH",
"196 623 OFFCURVE",
"206 620 OFFCURVE",
"217 614 CURVE",
"264 682 LINE",
"244 694 OFFCURVE",
"210 703 OFFCURVE",
"183 703 CURVE SMOOTH",
"102 703 OFFCURVE",
"38 643 OFFCURVE",
"38 566 CURVE SMOOTH",
"38 530 OFFCURVE",
"52 499 OFFCURVE",
"80 465 CURVE"
);
},
{
closed = 1;
nodes = (
"282 463 LINE",
"282 543 LINE",
"20 543 LINE",
"20 463 LINE"
);
}
);
width = 302;
}
);
},
{
glyphname = "kasratan-ar";
layers = (
{
components = (
{
name = "kasra-ar";
},
{
name = "kasra-ar";
transform = "{1, 0, 0, 1, 0, -60}";
}
);
layerId = "BA82AF6A-5289-49F9-B535-AE40A2A15B95";
paths = (
{
closed = 0;
nodes = (
"47 41 LINE"
);
}
);
width = 0;
}
);
unicode = 064D;
},
{
glyphname = "fatha-ar";
layers = (
{
anchors = (
{
name = _top;
position = "{80, 592}";
},
{
name = top;
position = "{76, 704}";
}
);
layerId = "BA82AF6A-5289-49F9-B535-AE40A2A15B95";
paths = (
{
closed = 1;
nodes = (
"179 689 LINE",
"169 713 LINE",
"-16 630 LINE",
"-6 606 LINE"
);
}
);
width = 0;
}
);
unicode = 064E;
},
{
glyphname = "damma-ar";
layers = (
{
anchors = (
{
name = _top;
position = "{98, 651}";
},
{
name = top;
position = "{93, 791}";
}
);
components = (
{
name = "sukun-ar";
transform = "{0.94525, -0.27975, 0.28256, 0.95474, -162, 113}";
}
);
layerId = "BA82AF6A-5289-49F9-B535-AE40A2A15B95";
paths = (
{
closed = 1;
nodes = (
"82 667 OFFCURVE",
"109 683 OFFCURVE",
"123 698 CURVE",
"112 713 LINE",
"98 699 OFFCURVE",
"73 684 OFFCURVE",
"54 676 CURVE",
"63 659 LINE"
);
}
);
width = 0;
}
);
rightMetricsKey = "=|";
unicode = 064F;
},
{
glyphname = "kasra-ar";
layers = (
{
anchors = (
{
name = _bottom;
position = "{88, -356}";
},
{
name = bottom;
position = "{98, -431}";
}
);
layerId = "BA82AF6A-5289-49F9-B535-AE40A2A15B95";
paths = (
{
closed = 1;
nodes = (
"194 -372 LINE",
"184 -348 LINE",
"-1 -431 LINE",
"9 -455 LINE"
);
}
);
width = 0;
}
);
unicode = 0650;
},
{
glyphname = "shadda-ar";
layers = (
{
anchors = (
{
name = _top;
position = "{107, 582}";
},
{
name = top;
position = "{109, 724}";
}
);
layerId = "BA82AF6A-5289-49F9-B535-AE40A2A15B95";
paths = (
{
closed = 1;
nodes = (
"33 574 OFFCURVE",
"116 596 OFFCURVE",
"100 666 CURVE",
"75 660 LINE",
"101 544 OFFCURVE",
"288 582 OFFCURVE",
"245 760 CURVE",
"220 755 LINE",
"255 609 OFFCURVE",
"117 589 OFFCURVE",
"100 666 CURVE",
"75 660 LINE",
"83 624 OFFCURVE",
"51 614 OFFCURVE",
"46 640 CURVE",
"20 635 LINE"
);
}
);
width = 1;
}
);
unicode = 0651;
},
{
glyphname = "sukun-ar";
layers = (
{
anchors = (
{
name = _top;
position = "{73, 599}";
},
{
name = top;
position = "{65, 726}";
}
);
layerId = "BA82AF6A-5289-49F9-B535-AE40A2A15B95";
paths = (
{
closed = 1;
nodes = (
"97 621 OFFCURVE",
"115 642 OFFCURVE",
"115 669 CURVE SMOOTH",
"115 695 OFFCURVE",
"96 715 OFFCURVE",
"72 715 CURVE SMOOTH",
"47 715 OFFCURVE",
"26 694 OFFCURVE",
"26 669 CURVE SMOOTH",
"26 643 OFFCURVE",
"48 621 OFFCURVE",
"73 621 CURVE SMOOTH"
);
},
{
closed = 1;
nodes = (
"59 641 OFFCURVE",
"46 654 OFFCURVE",
"46 669 CURVE SMOOTH",
"46 684 OFFCURVE",
"57 695 OFFCURVE",
"72 695 CURVE SMOOTH",
"85 695 OFFCURVE",
"95 684 OFFCURVE",
"95 669 CURVE SMOOTH",
"95 653 OFFCURVE",
"85 641 OFFCURVE",
"73 641 CURVE SMOOTH"
);
}
);
width = 0;
}
);
unicode = 0652;
},
{
glyphname = "madda-ar";
layers = (
{
anchors = (
{
name = _top;
position = "{188, 435}";
},
{
name = top;
position = "{184, 514}";
}
);
layerId = "BA82AF6A-5289-49F9-B535-AE40A2A15B95";
paths = (
{
closed = 1;
nodes = (
"135 479 OFFCURVE",
"139 479 OFFCURVE",
"163 474 CURVE SMOOTH",
"185 469 OFFCURVE",
"221 460 OFFCURVE",
"302 467 CURVE SMOOTH",
"305 467 OFFCURVE",
"307 469 OFFCURVE",
"307 472 CURVE SMOOTH",
"305 488 LINE SMOOTH",
"305 491 OFFCURVE",
"303 493 OFFCURVE",
"300 493 CURVE SMOOTH",
"223 486 OFFCURVE",
"191 494 OFFCURVE",
"169 499 CURVE SMOOTH",
"137 507 OFFCURVE",
"125 503 OFFCURVE",
"96 480 CURVE SMOOTH",
"94 478 OFFCURVE",
"93 476 OFFCURVE",
"95 473 CURVE SMOOTH",
"105 461 LINE SMOOTH",
"107 458 OFFCURVE",
"110 458 OFFCURVE",
"112 460 CURVE SMOOTH"
);
}
);
width = 600;
}
);
unicode = 0653;
},
{
glyphname = "madda-ar.001";
layers = (
{
anchors = (
{
name = _top;
position = "{126, 596}";
},
{
name = top;
position = "{126, 733}";
}
);
layerId = "BA82AF6A-5289-49F9-B535-AE40A2A15B95";
paths = (
{
closed = 1;
nodes = (
"94 647 LINE",
"60 653 LINE",
"72 614 OFFCURVE",
"112 596 OFFCURVE",
"147 596 CURVE SMOOTH",
"191 596 OFFCURVE",
"226 624 OFFCURVE",
"238 663 CURVE",
"237 643 LINE",
"219 660 LINE",
"227 674 LINE",
"218 644 OFFCURVE",
"184 630 OFFCURVE",
"154 630 CURVE SMOOTH",
"124 630 OFFCURVE",
"91 644 OFFCURVE",
"81 674 CURVE",
"113 660 LINE",
"58 660 LINE",
"20 611 LINE",
"40 593 LINE"
);
}
);
width = 252;
},
{
anchors = (
{
name = _top;
position = "{178, 537}";
},
{
name = top;
position = "{178, 759}";
}
);
associatedMasterId = "BA82AF6A-5289-49F9-B535-AE40A2A15B95";
layerId = "D02A7F20-5372-446E-84B7-8F4B885083B2";
name = SemiBold;
paths = (
{
closed = 1;
nodes = (
"113 596 LINE",
"77 596 LINE",
"107 563 OFFCURVE",
"150 543 OFFCURVE",
"200 543 CURVE SMOOTH",
"277 543 OFFCURVE",
"317 592 OFFCURVE",
"347 637 CURVE",
"363 599 LINE",
"266 675 LINE",
"301 709 LINE",
"307 672 OFFCURVE",
"266 646 OFFCURVE",
"222 646 CURVE SMOOTH",
"188 646 OFFCURVE",
"156 661 OFFCURVE",
"146 682 CURVE",
"169 670 LINE",
"63 670 LINE",
"2 582 LINE",
"53 537 LINE"
);
}
);
width = 340;
},
{
anchors = (
{
name = _top;
position = "{226, 484}";
},
{
name = top;
position = "{226, 761}";
}
);
associatedMasterId = "BA82AF6A-5289-49F9-B535-AE40A2A15B95";
layerId = "2D07D9D6-DD7A-4EF1-82E8-8B18836F0AAC";
name = Bold;
paths = (
{
closed = 1;
nodes = (
"197 578 LINE",
"102 581 LINE",
"136 540 OFFCURVE",
"187 515 OFFCURVE",
"247 515 CURVE SMOOTH",
"350 515 OFFCURVE",
"406 590 OFFCURVE",
"436 652 CURVE",
"463 606 LINE",
"343 693 LINE",
"386 700 LINE",
"367 671 OFFCURVE",
"326 652 OFFCURVE",
"279 652 CURVE SMOOTH",
"240 652 OFFCURVE",
"202 664 OFFCURVE",
"182 687 CURVE",
"219 675 LINE",
"81 675 LINE",
"20 553 LINE",
"103 484 LINE"
);
}
);
width = 446;
},
{
anchors = (
{
name = _top;
position = "{166, 588}";
},
{
name = top;
position = "{166, 691}";
}
);
associatedMasterId = "BA82AF6A-5289-49F9-B535-AE40A2A15B95";
layerId = "63562451-5376-4BFE-A17E-73A64719D2E3";
name = "Dec 8 17, 23:35";
paths = (
{
closed = 1;
nodes = (
"264 632 OFFCURVE",
"249 622 OFFCURVE",
"240 622 CURVE SMOOTH",
"213 622 OFFCURVE",
"152 671 OFFCURVE",
"106 671 CURVE SMOOTH",
"79 671 OFFCURVE",
"59 658 OFFCURVE",
"20 618 CURVE",
"45 594 LINE",
"74 624 OFFCURVE",
"89 637 OFFCURVE",
"106 637 CURVE SMOOTH",
"140 637 OFFCURVE",
"201 588 OFFCURVE",
"240 588 CURVE SMOOTH",
"261 588 OFFCURVE",
"284 603 OFFCURVE",
"311 635 CURVE",
"284 657 LINE"
);
}
);
width = 331;
},
{
anchors = (
{
name = _top;
position = "{166, 588}";
},
{
name = top;
position = "{166, 691}";
}
);
associatedMasterId = "BA82AF6A-5289-49F9-B535-AE40A2A15B95";
layerId = "77A28C5E-7C3E-47F3-97FD-56D4699F1B41";
name = "Dec 8 17, 23:40";
paths = (
{
closed = 1;
nodes = (
"272 635 OFFCURVE",
"245 622 OFFCURVE",
"224 622 CURVE SMOOTH",
"182 622 OFFCURVE",
"137 671 OFFCURVE",
"88 671 CURVE SMOOTH",
"54 671 OFFCURVE",
"27 647 OFFCURVE",
"12 606 CURVE",
"45 594 LINE",
"56 624 OFFCURVE",
"71 637 OFFCURVE",
"88 637 CURVE SMOOTH",
"121 637 OFFCURVE",
"172 588 OFFCURVE",
"222 588 CURVE SMOOTH",
"249 588 OFFCURVE",
"294 602 OFFCURVE",
"311 635 CURVE",
"280 651 LINE"
);
}
);
width = 331;
},
{
anchors = (
{
name = _top;
position = "{180, 596}";
},
{
name = top;
position = "{180, 683}";
}
);
associatedMasterId = "BA82AF6A-5289-49F9-B535-AE40A2A15B95";
layerId = "E0C48A7B-AE60-4F4B-AEBE-8CC13B9CA0AD";
name = "Dec 9 17, 00:28";
paths = (
{
closed = 1;
nodes = (
"127 647 LINE",
"99 653 LINE",
"114 614 OFFCURVE",
"163 596 OFFCURVE",
"209 596 CURVE SMOOTH",
"255 596 OFFCURVE",
"305 614 OFFCURVE",
"319 653 CURVE",
"318 633 LINE",
"284 660 LINE",
"294 674 LINE",
"283 644 OFFCURVE",
"244 630 OFFCURVE",
"209 630 CURVE SMOOTH",
"174 630 OFFCURVE",
"136 644 OFFCURVE",
"124 674 CURVE",
"146 660 LINE",
"91 660 LINE",
"47 616 LINE",
"73 593 LINE"
);
}
);
width = 331;
},
{
anchors = (
{
name = _top;
position = "{174, 580}";
},
{
name = top;
position = "{174, 699}";
}
);
associatedMasterId = "BA82AF6A-5289-49F9-B535-AE40A2A15B95";
layerId = "73C0DDB8-A85A-4BBD-BDFD-FEA32EB9729A";
name = SemiBold;
paths = (
{
closed = 1;
nodes = (
"127 621 LINE",
"100 621 LINE",
"123 596 OFFCURVE",
"165 580 OFFCURVE",
"211 580 CURVE SMOOTH",
"264 580 OFFCURVE",
"311 601 OFFCURVE",
"332 634 CURVE",
"345 604 LINE",
"247 682 LINE",
"274 709 LINE",
"278 680 OFFCURVE",
"247 660 OFFCURVE",
"212 660 CURVE SMOOTH",
"185 660 OFFCURVE",
"161 672 OFFCURVE",
"153 688 CURVE",
"171 679 LINE",
"65 679 LINE",
"17 631 LINE",
"81 575 LINE"
);
}
);
width = 343;
},
{
anchors = (
{
name = _top;
position = "{147, 596}";
},
{
name = top;
position = "{147, 683}";
}
);
associatedMasterId = "BA82AF6A-5289-49F9-B535-AE40A2A15B95";
layerId = "5ACC7519-86A3-4AB8-B31B-294344F8B3B5";
name = "Dec 9 17, 01:02";
paths = (
{
closed = 1;
nodes = (
"94 647 LINE",
"66 653 LINE",
"81 614 OFFCURVE",
"127 596 OFFCURVE",
"168 596 CURVE SMOOTH",
"219 596 OFFCURVE",
"260 624 OFFCURVE",
"274 663 CURVE",
"273 643 LINE",
"251 660 LINE",
"261 674 LINE",
"250 644 OFFCURVE",
"211 630 OFFCURVE",
"176 630 CURVE SMOOTH",
"141 630 OFFCURVE",
"103 644 OFFCURVE",
"91 674 CURVE",
"113 660 LINE",
"58 660 LINE",
"20 611 LINE",
"40 593 LINE"
);
}
);
width = 287;
},
{
anchors = (
{
name = _top;
position = "{156, 580}";
},
{
name = top;
position = "{156, 759}";
}
);
associatedMasterId = "BA82AF6A-5289-49F9-B535-AE40A2A15B95";
layerId = "47ABB6E3-2F43-493E-AB72-4FD023AD779A";
name = SemiBold;
paths = (
{
closed = 1;
nodes = (
"106 621 LINE",
"79 621 LINE",
"102 596 OFFCURVE",
"135 580 OFFCURVE",
"174 580 CURVE SMOOTH",
"234 580 OFFCURVE",
"265 618 OFFCURVE",
"288 653 CURVE",
"301 623 LINE",
"226 682 LINE",
"253 709 LINE",
"257 680 OFFCURVE",
"226 660 OFFCURVE",
"191 660 CURVE SMOOTH",
"164 660 OFFCURVE",
"140 672 OFFCURVE",
"132 688 CURVE",
"150 679 LINE",
"67 679 LINE",
"20 610 LINE",
"60 575 LINE"
);
}
);
width = 312;
},
{
anchors = (
{
name = _top;
position = "{197, 512}";
},
{
name = top;
position = "{197, 761}";
}
);
associatedMasterId = "BA82AF6A-5289-49F9-B535-AE40A2A15B95";
layerId = "29645448-7AAD-4D63-8DA7-955BF299D1EA";
name = Bold;
paths = (
{
closed = 1;
nodes = (
"174 594 LINE",
"91 596 LINE",
"121 561 OFFCURVE",
"165 539 OFFCURVE",
"217 539 CURVE SMOOTH",
"307 539 OFFCURVE",
"356 604 OFFCURVE",
"382 658 CURVE",
"405 618 LINE",
"301 694 LINE",
"338 700 LINE",
"322 675 OFFCURVE",
"286 658 OFFCURVE",
"245 658 CURVE SMOOTH",
"211 658 OFFCURVE",
"178 669 OFFCURVE",
"161 689 CURVE",
"193 678 LINE",
"73 678 LINE",
"20 572 LINE",
"92 512 LINE"
);
}
);
width = 393;
}
);
},
{
export = 0;
glyphname = _connection;
layers = (
{
anchors = (
{
name = "#entry";
position = "{52, 0}";
},
{
name = "#exit";
position = "{0, 0}";
}
);
guideLines = (
{
angle = 90;
position = "{78, 63}";
showMeasurement = 1;
}
);
layerId = "BA82AF6A-5289-49F9-B535-AE40A2A15B95";
paths = (
{
closed = 1;
nodes = (
"-1 0 LINE",
"52 0 LINE",
"52 38 LINE",
"-1 38 LINE"
);
}
);
width = 52;
}
);
},
{
export = 0;
glyphname = _tajweef;
layers = (
{
anchors = (
{
name = "#entry";
position = "{446, -2}";
}
);
layerId = "BA82AF6A-5289-49F9-B535-AE40A2A15B95";
paths = (
{
closed = 1;
nodes = (
"0 -114 OFFCURVE",
"94 -232 OFFCURVE",
"236 -194 CURVE SMOOTH",
"358 -163 OFFCURVE",
"427 -8 OFFCURVE",
"407 195 CURVE",
"369 193 LINE",
"388 10 OFFCURVE",
"330 -131 OFFCURVE",
"226 -158 CURVE SMOOTH",
"113 -188 OFFCURVE",
"38 -84 OFFCURVE",
"38 101 CURVE",
"0 101 LINE"
);
}
);
width = 410;
}
);
rightMetricsKey = "=|";
},
{
export = 0;
glyphname = _counter;
layers = (
{
layerId = "BA82AF6A-5289-49F9-B535-AE40A2A15B95";
paths = (
{
closed = 1;
nodes = (
"105 57 OFFCURVE",
"34 148 OFFCURVE",
"38 247 CURVE SMOOTH",
"43 360 OFFCURVE",
"117 453 OFFCURVE",
"203 453 CURVE SMOOTH",
"465 453 OFFCURVE",
"594 -13 OFFCURVE",
"196 44 CURVE SMOOTH"
);
},
{
closed = 1;
nodes = (
"650 -61 OFFCURVE",
"509 490 OFFCURVE",
"206 490 CURVE SMOOTH",
"98 490 OFFCURVE",
"8 381 OFFCURVE",
"3 248 CURVE SMOOTH",
"-1 130 OFFCURVE",
"69 23 OFFCURVE",
"193 5 CURVE SMOOTH"
);
}
);
width = 487;
}
);
},
{
export = 0;
glyphname = _counter_small;
layers = (
{
guideLines = (
{
position = "{25, 447}";
}
);
layerId = "BA82AF6A-5289-49F9-B535-AE40A2A15B95";
paths = (
{
closed = 1;
nodes = (
"63 -161 OFFCURVE",
"36 -122 OFFCURVE",
"38 -76 CURVE SMOOTH",
"40 -26 OFFCURVE",
"68 2 OFFCURVE",
"118 2 CURVE SMOOTH",
"169 2 OFFCURVE",
"201 -39 OFFCURVE",
"199 -103 CURVE SMOOTH",
"197 -167 OFFCURVE",
"166 -192 OFFCURVE",
"109 -175 CURVE SMOOTH"
);
},
{
closed = 1;
nodes = (
"181 -235 OFFCURVE",
"236 -192 OFFCURVE",
"237 -103 CURVE SMOOTH",
"238 -19 OFFCURVE",
"191 40 OFFCURVE",
"118 40 CURVE SMOOTH",
"48 40 OFFCURVE",
"2 -4 OFFCURVE",
"0 -74 CURVE SMOOTH",
"-2 -138 OFFCURVE",
"35 -190 OFFCURVE",
"97 -211 CURVE"
);
}
);
width = 237;
}
);
},
{
glyphname = _connection2;
layers = (
{
layerId = "BA82AF6A-5289-49F9-B535-AE40A2A15B95";
paths = (
{
closed = 1;
nodes = (
"195 74 OFFCURVE",
"214 170 CURVE",
"177 170 LINE",
"169 98 OFFCURVE",
"56 -65 OFFCURVE",
"0 -116 CURVE",
"23 -142 LINE",
"77 -99 OFFCURVE"
);
}
);
width = 214;
}
);
},
{
export = 0;
glyphname = _ending;
layers = (
{
anchors = (
{
name = entry;
position = "{254, 0}";
}
);
layerId = "BA82AF6A-5289-49F9-B535-AE40A2A15B95";
paths = (
{
closed = 1;
nodes = (
"157 42 OFFCURVE",
"97 50 OFFCURVE",
"15 103 CURVE",
"0 64 LINE",
"91 12 OFFCURVE",
"153 2 OFFCURVE",
"255 0 CURVE",
"255 38 LINE"
);
}
);
width = 600;
}
);
},
{
export = 0;
glyphname = _vertical_pipe;
layers = (
{
layerId = "BA82AF6A-5289-49F9-B535-AE40A2A15B95";
paths = (
{
closed = 1;
nodes = (
"0 687 LINE",
"20 373 OFFCURVE",
"27 211 OFFCURVE",
"12 17 CURVE",
"52 17 LINE",
"60 96 OFFCURVE",
"59 323 OFFCURVE",
"43 686 CURVE"
);
}
);
width = 57;
}
);
},
{
export = 0;
glyphname = _horizontal_small_pipe;
layers = (
{
anchors = (
{
name = "#entry";
position = "{0, 0}";
}
);
layerId = "BA82AF6A-5289-49F9-B535-AE40A2A15B95";
paths = (
{
closed = 1;
nodes = (
"0 0 LINE",
"18 -2 OFFCURVE",
"157 -2 OFFCURVE",
"172 0 CURVE",
"172 38 LINE",
"158 36 OFFCURVE",
"20 36 OFFCURVE",
"0 38 CURVE"
);
}
);
width = 172;
}
);
},
{
export = 0;
glyphname = _horizontal_large_pipe;
layers = (
{
anchors = (
{
name = "#entry";
position = "{-2, -1}";
}
);
layerId = "BA82AF6A-5289-49F9-B535-AE40A2A15B95";
paths = (
{
closed = 1;
nodes = (
"0 0 LINE",
"18 -2 OFFCURVE",
"347 -2 OFFCURVE",
"362 0 CURVE",
"362 38 LINE",
"348 36 OFFCURVE",
"20 36 OFFCURVE",
"0 38 CURVE"
);
}
);
width = 362;
}
);
},
{
export = 0;
glyphname = _vertical_bar_small_caps;
layers = (
{
layerId = "BA82AF6A-5289-49F9-B535-AE40A2A15B95";
paths = (
{
closed = 1;
nodes = (
"65 112 OFFCURVE",
"66 351 OFFCURVE",
"62 669 CURVE",
"58 669 OFFCURVE",
"41 667 OFFCURVE",
"20 664 CURVE",
"30 381 OFFCURVE",
"31 146 OFFCURVE",
"27 0 CURVE",
"65 -3 LINE"
);
}
);
width = 83;
}
);
},
{
export = 0;
glyphname = _long_fatha;
layers = (
{
anchors = (
{
name = _top;
position = "{234, 267}";
},
{
name = top;
position = "{194, 427}";
}
);
layerId = "BA82AF6A-5289-49F9-B535-AE40A2A15B95";
paths = (
{
closed = 1;
nodes = (
"259 303 OFFCURVE",
"382 496 OFFCURVE",
"319 736 CURVE",
"280 737 LINE",
"345 520 OFFCURVE",
"234 343 OFFCURVE",
"2 293 CURVE",
"12 255 LINE"
);
}
);
width = 335;
}
);
},
{
export = 0;
glyphname = _connection3;
layers = (
{
anchors = (
{
name = "#entry";
position = "{265, 0}";
},
{
name = "#exit";
position = "{0, 0}";
},
{
name = bottom;
position = "{114, -145}";
},
{
name = top;
position = "{97, 489}";
}
);
layerId = "BA82AF6A-5289-49F9-B535-AE40A2A15B95";
paths = (
{
closed = 1;
nodes = (
"195 39 OFFCURVE",
"149 94 OFFCURVE",
"145 180 CURVE",
"109 174 LINE",
"112 94 OFFCURVE",
"67 39 OFFCURVE",
"0 39 CURVE",
"0 1 LINE",
"89 1 OFFCURVE",
"149 71 OFFCURVE",
"145 180 CURVE",
"109 174 LINE",
"112 71 OFFCURVE",
"173 1 OFFCURVE",
"265 0 CURVE",
"265 38 LINE"
);
}
);
width = 265;
}
);
},
{
export = 0;
glyphname = _connection4;
layers = (
{
anchors = (
{
name = "#entry";
position = "{156, 0}";
},
{
name = "#exit";
position = "{31, 0}";
},
{
name = bottom;
position = "{31, -145}";
},
{
name = top;
position = "{31, 489}";
}
);
layerId = "BA82AF6A-5289-49F9-B535-AE40A2A15B95";
paths = (
{
closed = 1;
nodes = (
"86 39 OFFCURVE",
"40 94 OFFCURVE",
"36 180 CURVE",
"0 180 LINE",
"3 71 OFFCURVE",
"64 1 OFFCURVE",
"156 0 CURVE",
"156 38 LINE"
);
}
);
width = 156;
}
);
},
{
export = 0;
glyphname = _connection5;
layers = (
{
anchors = (
{
name = "#entry";
position = "{120, 0}";
},
{
name = "#exit";
position = "{0, 1}";
},
{
name = bottom;
position = "{68, -145}";
},
{
name = top;
position = "{60, 360}";
}
);
layerId = "BA82AF6A-5289-49F9-B535-AE40A2A15B95";
paths = (
{
closed = 1;
nodes = (
"120 0 LINE",
"120 38 LINE",
"0 38 LINE",
"0 0 LINE"
);
},
{
closed = 1;
nodes = (
"63 89 OFFCURVE",
"63 172 OFFCURVE",
"68 255 CURVE",
"30 245 LINE",
"25 165 OFFCURVE",
"25 86 OFFCURVE",
"30 6 CURVE",
"68 6 LINE"
);
}
);
width = 120;
}
);
},
{
export = 0;
glyphname = _tajweef.001;
layers = (
{
layerId = "BA82AF6A-5289-49F9-B535-AE40A2A15B95";
paths = (
{
closed = 1;
nodes = (
"229 -67 OFFCURVE",
"184 -134 OFFCURVE",
"115 -134 CURVE SMOOTH",
"70 -134 OFFCURVE",
"39 -82 OFFCURVE",
"38 -4 CURVE SMOOTH",
"38 -1 OFFCURVE",
"36 1 OFFCURVE",
"33 1 CURVE SMOOTH",
"5 1 LINE SMOOTH",
"2 1 OFFCURVE",
"0 -1 OFFCURVE",
"0 -4 CURVE SMOOTH",
"2 -105 OFFCURVE",
"47 -172 OFFCURVE",
"115 -172 CURVE SMOOTH",
"206 -172 OFFCURVE",
"267 -90 OFFCURVE",
"269 33 CURVE SMOOTH",
"269 36 OFFCURVE",
"267 38 OFFCURVE",
"264 38 CURVE SMOOTH",
"236 38 LINE SMOOTH",
"233 38 OFFCURVE",
"231 36 OFFCURVE",
"231 33 CURVE SMOOTH"
);
}
);
width = 269;
}
);
},
